<?xml version="1.0" standalone="no"?>
<!DOCTYPE svg PUBLIC "-//W3C//DTD SVG 1.1//EN" "http://www.w3.org/Graphics/SVG/1.1/DTD/svg11.dtd" >
<svg>
<metadata>
Created by FontForge 20090914 at Thu Jun 30 02:44:03 2022
 By www-data
Copyright (c) 2012 by Fontfabric LLC. All rights reserved.
</metadata>
<defs>
<font id="Intro-Book" horiz-adv-x="598" >
  <font-face 
    font-family="Intro Book"
    font-weight="400"
    font-stretch="normal"
    units-per-em="1000"
    panose-1="2 0 0 0 0 0 0 0 0 0"
    ascent="750"
    descent="-250"
    x-height="481"
    cap-height="700"
    bbox="-46 -267.001 1301 959"
    underline-thickness="50"
    underline-position="-200"
    unicode-range="U+0020-U+2212"
  />
<missing-glyph horiz-adv-x="219" 
 />
    <glyph glyph-name=".notdef" horiz-adv-x="219" 
 />
    <glyph glyph-name="space" unicode=" " horiz-adv-x="259" 
 />
    <glyph glyph-name="space" unicode="&#xa0;" horiz-adv-x="259" 
 />
    <glyph glyph-name="exclam" unicode="!" horiz-adv-x="255" 
d="M127 -13c-13.333 0 -24.667 4.33301 -34 13s-14 19.667 -14 33c0 14 4.5 25.167 13.5 33.5s20.5 12.5 34.5 12.5s25.833 -4.16699 35.5 -12.5s14.5 -19.5 14.5 -33.5c0 -13.333 -4.83301 -24.333 -14.5 -33s-21.5 -13 -35.5 -13zM89.999 147l-6 553h87l-5 -553h-76z" />
    <glyph glyph-name="quotedbl" unicode="&#x22;" horiz-adv-x="362" 
d="M75 700h75l-10 -223h-65v223zM218 700h74l-10 -223h-64v223z" />
    <glyph glyph-name="numbersign" unicode="#" horiz-adv-x="690" 
d="M46 200v57h125l24 164h-118v57h127l33 221h70l-32 -221h197l33 221h71l-33 -221h101v-57h-109l-24 -164h102v-57h-111l-28 -200h-74l30 200h-196l-29 -200h-74l31 200h-116zM265 423l-25 -168h201l24 168h-200z" />
    <glyph glyph-name="dollar" unicode="$" horiz-adv-x="643" 
d="M289 710l0.00195312 68h68v-69c60 -7.33301 111.333 -27.166 154 -59.499s65 -76.833 67 -133.5h-79c-2 34.667 -16.667 61.667 -44 81s-60 31.333 -98 36v-245c29.333 -4.66699 54 -9.16699 74 -13.5s41.5 -11.333 64.5 -21s41.333 -20.834 55 -33.501
s25.167 -29.667 34.5 -51s14 -46 14 -74c0 -60 -24 -107.667 -72 -143s-104.667 -56 -170 -62v-69h-68v69c-42 4 -80.333 13.333 -115 28s-64.334 37 -89.001 67s-37.667 65.333 -39 106h81c2 -37.333 18.667 -66.5 50 -87.5s68.666 -33.833 111.999 -38.5v261
c-33.333 4.66699 -62.333 10.5 -87 17.5s-48.5 17.167 -71.5 30.5s-40.5 31.333 -52.5 54s-18 49.667 -18 81c0 60 22.167 107 66.5 141s98.5 54 162.5 60zM515.002 195c0 21.333 -4 39.3311 -12 53.998s-20.167 26.5 -36.5 35.5s-32.5 15.833 -48.5 20.5s-36.333 9 -61 13
v-253c43.333 4.66699 80.5 17.834 111.5 39.501s46.5 51.834 46.5 90.501zM143.002 509.998c0 -26 8 -47.3311 24 -63.998s33.167 -27.834 51.5 -33.501s41.833 -10.834 70.5 -15.501v238c-39.333 -4.66699 -73.5 -17.5 -102.5 -38.5s-43.5 -49.833 -43.5 -86.5z" />
    <glyph glyph-name="percent" unicode="%" horiz-adv-x="838" 
d="M208 -1l343 699h78l-342 -699h-79zM802 152c0 -30 -6.16699 -57.001 -18.5 -81.001s-28.166 -42.167 -47.499 -54.5s-40.666 -21.333 -63.999 -27s-46.833 -5.66699 -70.5 0s-45.167 14.667 -64.5 27s-35.166 30.5 -47.499 54.5s-18.5 51 -18.5 81
c0 30.667 6.16699 57.834 18.5 81.501s28.166 41.667 47.499 54s40.666 21.333 63.999 27s46.833 5.66699 70.5 0s45.167 -14.667 64.5 -27s35.166 -30.5 47.499 -54.5s18.5 -51 18.5 -81zM535 151.999c0 -34 10.5 -60.833 31.5 -80.5s44.167 -29.5 69.5 -29.5
s48.5 9.83301 69.5 29.5s31.5 46.5 31.5 80.5s-10.5 60.833 -31.5 80.5s-44.167 29.5 -69.5 29.5s-48.5 -9.83301 -69.5 -29.5s-31.5 -46.5 -31.5 -80.5zM368 544.999c0 -35.333 -8.16406 -66 -24.4971 -92s-36.833 -44.833 -61.5 -56.5s-51.167 -17.5 -79.5 -17.5
s-54.833 5.83301 -79.5 17.5s-45.167 30.5 -61.5 56.5s-24.5 56.667 -24.5 92c0 30.667 6.16699 58 18.5 82s28.166 42.167 47.499 54.5s40.666 21.333 63.999 27s46.833 5.66699 70.5 0s45.167 -14.667 64.5 -27s35.166 -30.5 47.499 -54.5s18.5 -51.333 18.5 -82z
M102.003 544.999c0 -34 10.5 -60.833 31.5 -80.5s44.167 -29.5 69.5 -29.5s48.5 9.83301 69.5 29.5s31.5 46.5 31.5 80.5s-10.5 60.833 -31.5 80.5s-44.167 29.5 -69.5 29.5s-48.5 -9.83301 -69.5 -29.5s-31.5 -46.5 -31.5 -80.5z" />
    <glyph glyph-name="ampersand" unicode="&#x26;" horiz-adv-x="651" 
d="M525 556h-73.001c0 30.667 -13.167 53.167 -39.5 67.5s-58.166 21.5 -95.499 21.5c-38 0 -70.833 -8.83301 -98.5 -26.5s-41.5 -45.167 -41.5 -82.5c0 -75.333 52.667 -113 158 -113v-65c-16.667 0 -29.334 -0.333008 -38.001 -1c-106.667 -9.33301 -160 -59 -160 -149
c0 -44.667 16.333 -81.167 49 -109.5s73.334 -42.5 122.001 -42.5c106 0 159 57 159 171v196h146v-67h-72v-130c0 -79.333 -19.833 -139.333 -59.5 -180s-97.5 -61 -173.5 -61s-137.333 20.833 -184 62.5s-70 94.5 -70 158.5c0 96 48 159.667 144 191
c-32 10 -56.5 27.167 -73.5 51.5s-25.5 53.5 -25.5 87.5c0 58 21 102.333 63 133s94 46 156 46c63.333 0 114.333 -13.5 153 -40.5s56.667 -66.5 54 -118.5z" />
    <glyph glyph-name="quotesingle" unicode="'" horiz-adv-x="221" 
d="M75 700h76l-10 -223h-66v223z" />
    <glyph glyph-name="parenleft" unicode="(" horiz-adv-x="307" 
d="M250 769l28.002 -48.001c-49.333 -37.333 -87 -97.5 -113 -180.5s-38.5 -168.833 -37.5 -257.5s14.5 -174.5 40.5 -257.5s62.667 -143.833 110 -182.5l-28 -48c-64.667 43.333 -114.834 111 -150.501 203s-53.834 186.833 -54.501 284.5s16.833 192.334 52.5 284.001
s86.5 159.167 152.5 202.5z" />
    <glyph glyph-name="parenright" unicode=")" horiz-adv-x="307" 
d="M29 721l28.0029 48.001c66.667 -42.667 117.667 -109.667 153 -201s52.666 -185.833 51.999 -283.5s-18.834 -192.667 -54.501 -285s-85.834 -160.5 -150.501 -204.5l-28 48c46.667 38.667 83.167 99.667 109.5 183s40 169.166 41 257.499s-11.5 173.833 -37.5 256.5
s-63.667 143 -113 181z" />
    <glyph glyph-name="asterisk" unicode="*" horiz-adv-x="412" 
d="M352 592l-105 -35l77 -92l-48 -35l-69 94l-68 -94l-47 35l75 91l-109 32l17 53l107 -38l-4 110h58l-4 -109l102 40z" />
    <glyph glyph-name="plus" unicode="+" horiz-adv-x="473" 
d="M59 335v62h145v145h65v-145h145v-62h-145v-144h-65v144h-145z" />
    <glyph glyph-name="comma" unicode="," horiz-adv-x="236" 
d="M167 30c-0.666992 -6.66699 -2.66602 -14.667 -5.99902 -24l-30 -95h-49l22 78c-23.333 8 -35 23 -35 45c0 14 4.66699 25.167 14 33.5s21 12.5 35 12.5c24.667 0 40.667 -11.333 48 -34c1.33301 -8.66699 1.66602 -14 0.999023 -16z" />
    <glyph glyph-name="hyphen" unicode="-" horiz-adv-x="461" 
d="M68 299v69h325v-69h-325z" />
    <glyph glyph-name="period" unicode="." horiz-adv-x="239" 
d="M119 -9c-14 0 -26.001 4.49805 -36.001 13.498s-15 20.167 -15 33.5c0 14.667 4.83301 26.334 14.5 35.001s21.834 13 36.501 13c15.333 0 27.833 -4.16699 37.5 -12.5s14.5 -20.166 14.5 -35.499c0 -13.333 -5 -24.5 -15 -33.5s-22.333 -13.5 -37 -13.5z" />
    <glyph glyph-name="slash" unicode="/" horiz-adv-x="481" 
d="M31 1l338 699h82l-338 -699h-82z" />
    <glyph glyph-name="zero" unicode="0" horiz-adv-x="658" 
d="M330 710c73.333 0 134.5 -21.833 183.5 -65.5s73.5 -102.167 73.5 -175.5v-240c0 -73.333 -24.333 -131.833 -73 -175.5s-110 -65.5 -184 -65.5c-74.667 0 -136.5 21.833 -185.5 65.5s-73.5 102.167 -73.5 175.5v240c0 73.333 24.5 131.833 73.5 175.5
s110.833 65.5 185.5 65.5zM330 61c40.667 0 76.333 10.001 107 30.001s51 47.667 61 83c7.33301 22 11 47 11 75v200c0 28 -3.66699 53 -11 75c-10.667 35.333 -31.167 63.166 -61.5 83.499s-65.833 30.5 -106.5 30.5c-42 0 -78 -10 -108 -30s-50.333 -48 -61 -84
c-7.33301 -22 -11 -47 -11 -75v-200c0 -28 3.66699 -53 11 -75c10.667 -35.333 31 -63 61 -83s66 -30 108 -30z" />
    <glyph glyph-name="one" unicode="1" horiz-adv-x="432" 
d="M185 634h-122v66h201v-634h139v-66h-356v66h138v568z" />
    <glyph glyph-name="two" unicode="2" horiz-adv-x="542" 
d="M266 638c-84.667 0 -130.333 -40.333 -137 -121h-70c7.33301 128.667 77 193 209 193c59.333 0 106.833 -15.167 142.5 -45.5s55.5 -68.833 59.5 -115.5c8 -69.333 -12 -134 -60 -194l-228 -281h305v-74h-441v18l289 361c21.333 26 37 54.167 47 84.5
s13.5 58.333 10.5 84s-15.333 47.167 -37 64.5s-51.5 26 -89.5 26z" />
    <glyph glyph-name="three" unicode="3" horiz-adv-x="576" 
d="M48 188l72.9971 0.00292969c5.33301 -41.333 21.833 -72.833 49.5 -94.5s63.167 -32.5 106.5 -32.5c49.333 0 88.833 14 118.5 42s44.834 66.667 45.501 116c0 59.333 -25 102.166 -75 128.499s-106 31.166 -168 14.499v19l192 248h-311v71h440v-13l-202 -262
c57.333 1.33301 105.5 -18.334 144.5 -59.001s58.5 -89.667 58.5 -147c0 -68 -21.833 -123.5 -65.5 -166.5s-102.5 -64.5 -176.5 -64.5c-63.333 0 -116.166 17.833 -158.499 53.5s-66.166 84.5 -71.499 146.5z" />
    <glyph glyph-name="four" unicode="4" horiz-adv-x="588" 
d="M467 147v-157h-76v157h-361v36l355 507h82v-475h72v-68h-72zM399 596h-1l-268 -384h266v176z" />
    <glyph glyph-name="five" unicode="5" horiz-adv-x="580" 
d="M155 625v-181c34 8.66699 69.667 13 107 13c78 0 142.667 -19.167 194 -57.5s76 -97.5 74 -177.5c0 -70.667 -22 -127.167 -66 -169.5s-102.333 -63.5 -175 -63.5c-62.667 0 -115.167 16.833 -157.5 50.5s-66.166 81.167 -71.499 142.5h79
c4.66699 -38 20.5 -67.333 47.5 -88s60.833 -31 101.5 -31c42 0 79.167 12.667 111.5 38s48.5 65 48.5 119c0 59.333 -18.333 101.5 -55 126.5s-83.334 37.5 -140.001 37.5c-70 0 -128 -7.33301 -174 -22v338h410v-75h-334z" />
    <glyph glyph-name="six" unicode="6" horiz-adv-x="587" 
d="M305 703h92l-181 -282c26 15.333 55.667 23 89 23c70 1.33301 128.167 -18.167 174.5 -58.5s69.5 -95.5 69.5 -165.5c0 -72 -24.333 -128.167 -73 -168.5s-109.667 -60.5 -183 -60.5s-134 20.167 -182 60.5s-72 96.5 -72 168.5c0 52 14.333 99.333 43 142zM293 63
c50 0 91.333 14 124 42s49 66.333 49 115c0 49.333 -16.333 88 -49 116s-74.334 42 -125.001 42c-49.333 0 -90.166 -14 -122.499 -42s-48.5 -66.667 -48.5 -116c0 -48.667 16.333 -87 49 -115s73.667 -42 123 -42z" />
    <glyph glyph-name="seven" unicode="7" horiz-adv-x="517" 
d="M504 700v-12l-322 -688h-85l294 626h-354v74h467z" />
    <glyph glyph-name="eight" unicode="8" horiz-adv-x="618" 
d="M423 391c93.333 -36 140.332 -98.334 140.999 -187.001c0 -62.667 -24.167 -114 -72.5 -154s-109.166 -60 -182.499 -60c-74.667 0 -135.834 19 -183.501 57s-71.5 90.333 -71.5 157c0 46 12.833 85 38.5 117s59.5 55.667 101.5 71c-28 13.333 -50.667 31.833 -68 55.5
s-26.333 51.834 -27 84.501c0 52.667 19.833 95.5 59.5 128.5s89.834 49.5 150.501 49.5c61.333 0 112 -16.333 152 -49s60 -75.334 60 -128.001c0 -63.333 -32.667 -110.666 -98 -141.999zM308.999 417.999c37.333 0 69.5 10.167 96.5 30.5s40.5 47.833 40.5 82.5
c0 34 -13.333 61.167 -40 81.5s-59 30.5 -97 30.5c-36.667 0 -68.5 -10.167 -95.5 -30.5s-40.5 -47.833 -40.5 -82.5s13.333 -62 40 -82s58.667 -30 96 -30zM308.999 59.999c48 0 89 13.3311 123 39.998s51 62.334 51 107.001s-17 80.334 -51 107.001s-75 40 -123 40
s-88.833 -13.5 -122.5 -40.5s-50.5 -62.833 -50.5 -107.5c0 -44 17 -79.333 51 -106s74.667 -40 122 -40z" />
    <glyph glyph-name="nine" unicode="9" horiz-adv-x="586" 
d="M282 0h-92.001l185 285c-27.333 -15.333 -57.666 -23 -90.999 -23c-71.333 -1.33301 -130.166 18.167 -176.499 58.5s-69.5 95.5 -69.5 165.5c0 72.667 24.333 129 73 169s109.667 60 183 60s134.166 -20 182.499 -60s72.5 -96.333 72.5 -169
c-0.666992 -52.667 -16 -100.667 -46 -144zM293.999 643c-50 0 -91.333 -14 -124 -42s-49 -66.333 -49 -115c0 -49.333 16.5 -88 49.5 -116s74.5 -42 124.5 -42s91.167 14 123.5 42s48.5 66.667 48.5 116c0 48.667 -16.333 87 -49 115s-74 42 -124 42z" />
    <glyph glyph-name="colon" unicode=":" horiz-adv-x="239" 
d="M119 -9c-14 0 -26.001 4.49805 -36.001 13.498s-15 20.167 -15 33.5c0 14.667 4.83301 26.334 14.5 35.001s21.834 13 36.501 13c15.333 0 27.833 -4.16699 37.5 -12.5s14.5 -20.166 14.5 -35.499c0 -13.333 -5 -24.5 -15 -33.5s-22.333 -13.5 -37 -13.5z
M118.999 323.998c-14 0 -26.001 4.49805 -36.001 13.498s-15 20.167 -15 33.5c0 14.667 4.83301 26.334 14.5 35.001s21.834 13 36.501 13c15.333 0 27.833 -4.16699 37.5 -12.5s14.5 -20.166 14.5 -35.499c0 -13.333 -5 -24.5 -15 -33.5s-22.333 -13.5 -37 -13.5z" />
    <glyph glyph-name="semicolon" unicode=";" horiz-adv-x="239" 
d="M118 326c-14 0 -25.667 4.16699 -35 12.5s-14 19.166 -14 32.499c0 14 4.66699 25.333 14 34s21 13 35 13c14.667 0 26.667 -4.33301 36 -13s14 -20 14 -34c0 -13.333 -4.83301 -24.166 -14.5 -32.499s-21.5 -12.5 -35.5 -12.5zM169 30
c-0.666992 -9.33301 -2.66602 -17.333 -5.99902 -24c0 -0.666992 -9.33301 -29.667 -28 -87h-49l20 70c-23.333 8 -35 23 -35 45c0 14 4.66699 25.167 14 33.5s21 12.5 35 12.5c24.667 0 40.667 -11.333 48 -34c1.33301 -8.66699 1.66602 -14 0.999023 -16z" />
    <glyph glyph-name="less" unicode="&#x3c;" horiz-adv-x="533" 
d="M50 318v59l395 173v-75l-303 -128l303 -134v-75z" />
    <glyph glyph-name="equal" unicode="=" horiz-adv-x="533" 
d="M74 220v66h385v-66h-385zM74 377v66h385v-66h-385z" />
    <glyph glyph-name="greater" unicode="&#x3e;" horiz-adv-x="533" 
d="M483 377v-59l-395 -180v71l303 138l-303 132v71z" />
    <glyph glyph-name="question" unicode="?" horiz-adv-x="492" 
d="M276 148l-74.998 -0.00195312c-0.666992 44.667 4.66602 83.167 15.999 115.5s25.333 57.666 42 75.999s33.334 35.333 50.001 51s31 33.834 43 54.501s18 44.667 18 72c0 32.667 -11.5 59.334 -34.5 80.001s-51.833 31.667 -86.5 33
c-34 1.33301 -63.833 -7.5 -89.5 -26.5s-41.167 -46.5 -46.5 -82.5h-76c4 60.667 25.333 106.334 64 137.001s87.667 46 147 46c60 0 109.333 -16.833 148 -50.5s58 -80.5 58 -140.5c0 -28.667 -6.33301 -54.5 -19 -77.5s-28 -43 -46 -60s-35.833 -35 -53.5 -54
s-32.334 -43.167 -44.001 -72.5s-16.834 -63 -15.501 -101zM241.002 -13.002c-14 0 -25.833 4.33301 -35.5 13s-14.5 20 -14.5 34s4.83301 25.167 14.5 33.5s21.5 12.5 35.5 12.5s25.667 -4.16699 35 -12.5s14 -19.5 14 -33.5s-4.66699 -25.333 -14 -34s-21 -13 -35 -13z
" />
    <glyph glyph-name="at" unicode="@" horiz-adv-x="909" 
d="M600 88l2.00098 15.9971c-17.333 -35.333 -42.333 -62.5 -75 -81.5s-69.334 -28.833 -110.001 -29.5c-69.333 0 -121.333 24.333 -156 73s-48.667 108.334 -42 179.001c6 78.667 35.667 140.5 89 185.5s116.333 67.5 189 67.5c36.667 0 72.667 -7 108 -21
s65.666 -32.667 90.999 -56l-27 -297c-1.33301 -14.667 -1.83301 -27.5 -1.5 -38.5s2.83301 -19.833 7.5 -26.5s12.334 -10 23.001 -10c17.333 -0.666992 33.166 5.5 47.499 18.5s26.166 30.167 35.499 51.5s16.833 42.833 22.5 64.5s9.5 43.167 11.5 64.5
c9.33301 106.667 -14.5 191.5 -71.5 254.5s-139.5 94.5 -247.5 94.5c-104 0 -192.333 -32.667 -265 -98s-113.667 -150 -123 -254c-6.66699 -67.333 0.166016 -127.333 20.499 -180s50.5 -92.5 90.5 -119.5s87.5 -43.333 142.5 -49s113.833 4.16602 176.5 29.499l-5 -49
c-55.333 -17.333 -108 -26.666 -158 -27.999s-95.667 7.83398 -137 27.501s-76.5 45.834 -105.5 78.501s-50.5 74.167 -64.5 124.5s-18 105.5 -12 165.5c10.667 118 57.834 214.667 141.501 290s184.834 113 303.501 113c121.333 0 215.333 -36.333 282 -109
s94 -169.667 82 -291c-6 -68 -27 -128 -63 -180s-80.333 -78 -133 -78c-27.333 0 -46.666 9 -57.999 27s-15 41.667 -11 71zM602.001 234.997l14.001 155.999c-32 26.667 -76.333 40 -133 40c-49.333 0 -91.333 -16.5 -126 -49.5s-54.667 -78.5 -60 -136.5
c-4 -51.333 5.66699 -94.166 29 -128.499s59.666 -51.5 108.999 -51.5c46.667 0 84.667 16.333 114 49s47 73 53 121z" />
    <glyph glyph-name="A" unicode="A" horiz-adv-x="706" 
d="M528 173h-350l-82 -173h-87v11l326 692h38l323 -692v-11h-86zM353 572l-147 -327h294z" />
    <glyph glyph-name="B" unicode="B" horiz-adv-x="669" 
d="M586 510c0 -34 -8.16797 -63.833 -24.501 -89.5s-39.5 -44.167 -69.5 -55.5c84 -24 126 -80 126 -168c0 -62.667 -20.167 -111.167 -60.5 -145.5s-94.166 -51.5 -161.499 -51.5h-303v700h273c66.667 0 120 -15.667 160 -47s60 -79 60 -143zM360.999 630h-185v-238h185
c96 0 144 39 144 117c0 80.667 -48 121 -144 121zM370.999 322h-194.999v-250h214c43.333 0 78.166 10.667 104.499 32s39.5 52.333 39.5 93c1.33301 44 -13 75.833 -43 95.5s-70 29.5 -120 29.5z" />
    <glyph glyph-name="C" unicode="C" horiz-adv-x="762" 
d="M50 350c0 107.333 33.8311 194.167 101.498 260.5s151.834 98.833 252.501 97.5c71.333 0 136 -19 194 -57s97 -92 117 -162h-81c-21.333 46.667 -52 82 -92 106s-86 36 -138 36c-79.333 1.33301 -144 -24.5 -194 -77.5s-75 -120.833 -75 -203.5
c0 -80 24.833 -146.833 74.5 -200.5s114.167 -80.5 193.5 -80.5c54.667 0 103 13.5 145 40.5s72 65.167 90 114.5h81c-19.333 -75.333 -58.166 -132.833 -116.499 -172.5s-124.5 -59.5 -198.5 -59.5c-100 0 -184 32.833 -252 98.5s-102 152.167 -102 259.5z" />
    <glyph glyph-name="D" unicode="D" horiz-adv-x="732" 
d="M93 700l248 -0.000976562c104 0 186.667 -33.333 248 -100s92 -149.667 92 -249c0 -101.333 -30.667 -185.166 -92 -251.499s-144 -99.5 -248 -99.5h-248v700zM177 75.999l162 0.000976562c78.667 0 141.5 25.667 188.5 77s70.5 117 70.5 197
c0 79.333 -23.5 144.666 -70.5 195.999s-109.833 77 -188.5 77h-162v-547z" />
    <glyph glyph-name="E" unicode="E" horiz-adv-x="569" 
d="M500 700v-73h-323v-229h312v-73h-312v-248h334v-77h-418v700h407z" />
    <glyph glyph-name="F" unicode="F" horiz-adv-x="550" 
d="M482 369v-74h-305v-295h-84v700h416v-74h-332v-257h305z" />
    <glyph glyph-name="G" unicode="G" horiz-adv-x="777" 
d="M50 351c0 106.667 33.332 193.166 99.999 259.499s149.667 99.5 249 99.5c73.333 0 138.833 -17.667 196.5 -53s95.834 -87.666 114.501 -156.999h-82c-32.667 89.333 -109 134 -229 134c-80 0 -144.167 -26.833 -192.5 -80.5s-72.5 -121.167 -72.5 -202.5
c0 -82.667 24.167 -150.5 72.5 -203.5s112.5 -79.5 192.5 -79.5c74 0 134.167 19.667 180.5 59s72.833 96 79.5 170h-249v71h326c3.33301 -69.333 -5.66699 -130 -27 -182c-25.333 -63.333 -65.333 -111.833 -120 -145.5s-118 -50.5 -190 -50.5
c-100.667 0 -184 33.333 -250 100s-99 153.667 -99 261z" />
    <glyph glyph-name="H" unicode="H" horiz-adv-x="723" 
d="M630 0h-84v328h-370v-328h-83v700h83v-295h370v295h84v-700z" />
    <glyph glyph-name="I" unicode="I" horiz-adv-x="400" 
d="M242 67h121v-67h-326v67h121v567h-113v66h310v-66h-113v-567z" />
    <glyph glyph-name="J" unicode="J" horiz-adv-x="639" 
d="M553 700v-465c0 -75.333 -24.833 -135 -74.5 -179s-112.5 -66 -188.5 -66c-75.333 0 -136.833 22.167 -184.5 66.5s-71.5 103.833 -71.5 178.5v73h79v-72c0 -54 16 -95.833 48 -125.5s75 -44.5 129 -44.5s97.333 15 130 45s49 71.667 49 125v390h-171v74h255z" />
    <glyph glyph-name="K" unicode="K" horiz-adv-x="666" 
d="M176 700l-0.000976562 -319.999c84 0 137 6.66699 159 20c33.333 20 62.666 76.333 87.999 169c15.333 52 38 89.5 68 112.5s75.667 28.833 137 17.5v-56c-38 4 -66.5 -1.66699 -85.5 -17s-34.167 -42.333 -45.5 -81c-27.333 -94.667 -58.666 -157.334 -93.999 -188.001
l244 -345v-12h-95l-222 323c-29.333 -8.66699 -80.666 -13 -153.999 -13v-310h-83v700h83z" />
    <glyph glyph-name="L" unicode="L" horiz-adv-x="523" 
d="M177 700v-625h330v-75h-414v700h84z" />
    <glyph glyph-name="M" unicode="M" horiz-adv-x="827" 
d="M414 310l288 391h32v-701h-84v505l-230 -316h-13l-230 316v-505h-84v701h33z" />
    <glyph glyph-name="N" unicode="N" horiz-adv-x="746" 
d="M626 -1l-457 530l7 -192v-337h-83v702h29l456 -530l-9 201v328h84v-702h-27z" />
    <glyph glyph-name="O" unicode="O" horiz-adv-x="810" 
d="M760 350c0 -106 -33.001 -192.667 -99.001 -260s-151.667 -101 -257 -101c-101.333 0 -185.666 33 -252.999 99s-101 153.333 -101 262c0 109.333 34 197 102 263s152.333 99 253 99s185 -33.167 253 -99.5s102 -153.833 102 -262.5zM133.999 350
c0 -84 25.668 -152.333 77.001 -205s115.666 -79 192.999 -79c78 0 142.833 26.333 194.5 79s77.5 121 77.5 205s-25.667 152.667 -77 206s-116 80 -194 80c-77.333 0 -141.833 -26.5 -193.5 -79.5s-77.5 -121.833 -77.5 -206.5z" />
    <glyph glyph-name="P" unicode="P" horiz-adv-x="650" 
d="M176 1l-83 0.000976562v700h88h104h88c73.333 0 132.5 -22.833 177.5 -68.5s67.5 -102.834 67.5 -171.501c0 -68 -22.667 -124.667 -68 -170s-104.333 -68 -177 -68h-197v-222zM175 298.001h198c46.667 0 85.667 15.5 117 46.5s47 70.5 47 118.5
c0 47.333 -15.333 86.5 -46 117.5s-70 46.5 -118 46.5h-198v-329z" />
    <glyph glyph-name="Q" unicode="Q" horiz-adv-x="809" 
d="M750 6l-0.000976562 -12h-78l-47 70c-65.333 -48.667 -139.666 -73 -222.999 -73c-100 0 -183.667 33.5 -251 100.5s-101 153.5 -101 259.5s33.167 193 99.5 261s151.5 102 255.5 102c100.667 0 185 -33.5 253 -100.5s102 -154.5 102 -262.5
c0 -95.333 -26.667 -174.333 -80 -237zM133.999 351c0 -88.667 25.5 -158.5 76.5 -209.5s115.833 -76.5 194.5 -76.5c78 0 142.833 26.167 194.5 78.5s77.5 121.5 77.5 207.5c0 88 -25.667 157.667 -77 209s-116.333 77 -195 77c-78 0 -142.667 -25.833 -194 -77.5
s-77 -121.167 -77 -208.5z" />
    <glyph glyph-name="R" unicode="R" horiz-adv-x="672" 
d="M444 268l198 -255.999v-12h-88l-194 257h-183v-257h-84v701h279c70.667 0 128.167 -21.333 172.5 -64s66.5 -96.334 66.5 -161.001c0 -52.667 -15.333 -97.5 -46 -134.5s-71 -61.5 -121 -73.5zM176 326.001l196 -0.000976562c45.333 0 83 14 113 42s45 64.333 45 109
s-14.833 80.834 -44.5 108.501s-67.5 41.5 -113.5 41.5h-196v-301z" />
    <glyph glyph-name="S" unicode="S" horiz-adv-x="646" 
d="M47 191l80.9971 0.00488281c1.33301 -29.333 13 -54.333 35 -75s47 -35 75 -43s57.667 -12 89 -12c32 1.33301 61 5.66602 87 12.999s49.5 21.333 70.5 42s31.833 47 32.5 79c0 12 -1 23.167 -3 33.5s-5.83301 19.333 -11.5 27s-11 14.334 -16 20.001
s-12.667 10.667 -23 15s-18.333 7.83301 -24 10.5s-15.5 5.33398 -29.5 8.00098s-24 4.5 -30 5.5s-17 2.5 -33 4.5s-26.333 3.33301 -31 4c-36 4 -67.5 9.16699 -94.5 15.5s-53.5 16.166 -79.5 29.499s-46 31.833 -60 55.5s-21 52.167 -21 85.5
c0 44 12.833 81.833 38.5 113.5s57.334 54.5 95.001 68.5s77.834 21 120.501 21c31.333 0.666992 61.833 -2.66602 91.5 -9.99902s57.167 -18.5 82.5 -33.5s46 -35.333 62 -61s24.667 -54.834 26 -87.501h-78c-2.66699 28 -13.834 51.167 -33.501 69.5s-42 30.833 -67 37.5
s-52.167 10 -81.5 10c-46 -2 -86.333 -13.167 -121 -33.5s-52 -51.5 -52 -93.5c0 -10 1.16699 -19.333 3.5 -28s4.83301 -16.334 7.5 -23.001s7.33398 -12.834 14.001 -18.501s11.834 -10.334 15.501 -14.001s10.667 -7.33398 21 -11.001s17.666 -6.33398 21.999 -8.00098
s12.833 -3.5 25.5 -5.5s20.834 -3.33301 24.501 -4s12.667 -2 27 -4s22.833 -3 25.5 -3c33.333 -4 60.833 -8 82.5 -12s45.5 -10.5 71.5 -19.5s46.5 -20 61.5 -33s27.667 -30.667 38 -53s15.5 -48.5 15.5 -78.5c0 -47.333 -14.167 -87 -42.5 -119s-62 -54.333 -101 -67
s-81.5 -19.667 -127.5 -21c-33.333 -0.666992 -66 2.83301 -98 10.5s-61.667 19.5 -89 35.5s-49.5 37.5 -66.5 64.5s-26.167 57.833 -27.5 92.5z" />
    <glyph glyph-name="T" unicode="T" horiz-adv-x="549" 
d="M234 625h-216v75h513v-75h-216v-625h-81v625z" />
    <glyph glyph-name="U" unicode="U" horiz-adv-x="707" 
d="M355 -9c-78 0 -142.333 22 -193 66s-76 104.333 -76 181v462h84v-461c0 -54 17.167 -96.333 51.5 -127s78.833 -46 133.5 -46s99 15.333 133 46s51 73 51 127v461h82v-462c0 -76.667 -24.833 -137 -74.5 -181s-113.5 -66 -191.5 -66z" />
    <glyph glyph-name="V" unicode="V" horiz-adv-x="662" 
d="M333 143l98 262l120 295h89v-12l-291 -691h-35l-293 691v12h89l121 -295l101 -262h1z" />
    <glyph glyph-name="W" unicode="W" horiz-adv-x="965" 
d="M462 687h41l183 -544h2l76 299l80 258h87v-11l-215 -693h-58l-175 514h-1l-173 -514h-58l-218 691v13h89l80 -259l80 -298h1z" />
    <glyph glyph-name="X" unicode="X" horiz-adv-x="632" 
d="M316 423h2l98 149l90 128h89v-11l-228 -320l254 -358v-11h-91l-116 164l-96 146h-3l-94 -144l-117 -166h-92v12l254 357l-228 319v12h90l91 -130z" />
    <glyph glyph-name="Y" unicode="Y" horiz-adv-x="628" 
d="M313 366h3l101 170l102 164h89v-12l-252 -401v-287h-84v287l-253 402v11h91l102 -163z" />
    <glyph glyph-name="Z" unicode="Z" horiz-adv-x="584" 
d="M548 700v-13l-396 -611h397v-76h-528v11l396 615h-369v74h500z" />
    <glyph glyph-name="bracketleft" unicode="[" horiz-adv-x="300" 
d="M259 755v-65h-102v-794h102v-72h-176v931h176z" />
    <glyph glyph-name="backslash" unicode="\" horiz-adv-x="481" 
d="M112 700l338 -699h-82l-338 699h82z" />
    <glyph glyph-name="bracketright" unicode="]" horiz-adv-x="300" 
d="M41 690v65h176v-931h-176v72h102v794h-102z" />
    <glyph glyph-name="asciicircum" unicode="^" horiz-adv-x="525" 
d="M232 701h57l176 -285h-71l-134 215l-129 -215h-71z" />
    <glyph glyph-name="underscore" unicode="_" horiz-adv-x="616" 
d="M67 -81v68h482v-68h-482z" />
    <glyph glyph-name="grave" unicode="`" horiz-adv-x="336" 
d="M237 582h-66l-81 103v7l72 29l75 -132v-7z" />
    <glyph glyph-name="a" unicode="a" horiz-adv-x="544" 
d="M400 87c-16.667 -31.333 -42.4951 -54.9961 -77.4951 -70.9961s-72.5 -24 -112.5 -24c-46.667 0 -86.334 13.167 -119.001 39.5s-49.667 62.833 -51 109.5c-1.33301 52.667 15.667 93.667 51 123s79.666 44 132.999 44c63.333 0 118.666 -13.333 165.999 -40v59
c0 25.333 -8.5 46.166 -25.5 62.499s-36.167 27.166 -57.5 32.499s-44.333 8 -69 8c-58 0 -107 -11.667 -147 -35l-13 62c47.333 24 104.666 36 171.999 36c61.333 0 112.166 -13.333 152.499 -40s59.833 -69.334 58.5 -128.001v-201v-7v-16
c0 -3.33301 0.166992 -7.83301 0.5 -13.5s0.833008 -9.5 1.5 -11.5s1.66699 -5.33301 3 -10s2.83301 -7.5 4.5 -8.5s4 -3 7 -6s6.33301 -4.16699 10 -3.5s8 0.166992 13 -1.5s10.5 -1.16699 16.5 1.5l1 -51c-42 -6.66699 -72.167 -3.83398 -90.5 8.49902
s-27.5 39.5 -27.5 81.5zM389.005 163.004l0.00390625 46c-46 26 -96.667 39 -152 39c-34 0 -62.833 -9.16699 -86.5 -27.5s-34.834 -43.833 -33.501 -76.5c1.33301 -28.667 12.166 -50 32.499 -64s45.166 -21 74.499 -21c36 0 70.667 9 104 27s53.666 43.667 60.999 77z" />
    <glyph glyph-name="b" unicode="b" horiz-adv-x="579" 
d="M73 29l-0.000976562 701.998h78v-281c48 28.667 98.333 42.334 151 41.001c64.667 -1.33301 119.334 -24.666 164.001 -69.999s67 -106.333 67 -183c0 -85.333 -24.667 -148.333 -74 -189s-112.333 -61 -189 -61c-66 0 -131.667 13.667 -197 41zM148.999 377.998
l-0.00195312 -299c44.667 -16 86.667 -23.667 126 -23c52.667 1.33301 95.834 16.833 129.501 46.5s50.5 74.834 50.5 135.501c0 60 -15.667 106 -47 138s-70.333 48.333 -117 49c-49.333 1.33301 -96.666 -14.334 -141.999 -47.001z" />
    <glyph glyph-name="c" unicode="c" horiz-adv-x="566" 
d="M523 335l-74.999 0.00195312c-12.667 28.667 -32 50.667 -58 66s-55 23 -87 23c-48 0 -90 -16 -126 -48s-54 -76.333 -54 -133c0 -56 17.667 -100.333 53 -133s76.333 -49 123 -49c33.333 0 64 8.66699 92 26s48.333 42.333 61 75h76
c-14 -54.667 -42.5 -96.667 -85.5 -126s-91.167 -44 -144.5 -44c-68 0 -127.333 22.167 -178 66.5s-76 105.833 -76 184.5c0 79.333 25.5 141.166 76.5 185.499s110.833 66.166 179.5 65.499c51.333 -0.666992 97.666 -14.667 138.999 -42s69.333 -66.333 84 -117z" />
    <glyph glyph-name="d" unicode="d" horiz-adv-x="601" 
d="M441 81v22.002c-33.333 -73.333 -91.333 -110.666 -174 -111.999c-69.333 0 -123.666 24.167 -162.999 72.5s-59 107.833 -59 178.5c0 74.667 22.5 134.667 67.5 180s99.833 67.666 164.5 66.999c53.333 0 103.666 -16 150.999 -48v291h78v-573
c0 -5.33301 -0.166992 -11.666 -0.5 -18.999s-0.5 -13.166 -0.5 -17.499v-16c0 -6.33301 0.333008 -11.166 1 -14.499l2.5 -12.5c1 -5 2.5 -8.33301 4.5 -10s4.5 -4.33398 7.5 -8.00098s6.5 -5.33398 10.5 -5.00098s8.66699 -0.333984 14 -2.00098s11.333 -1.5 18 0.5l1 -57
c-42 -6.66699 -73 -4.33398 -93 6.99902s-30 36.666 -30 75.999zM430 221.002l-0.000976562 147.999c-47.333 35.333 -96 52.333 -146 51c-46 -0.666992 -84.167 -16.667 -114.5 -48s-45.5 -74.666 -45.5 -129.999c0 -51.333 13.333 -94.333 40 -129s64.667 -52 114 -52
c44.667 0 80.834 15.333 108.501 46s42.167 68.667 43.5 114z" />
    <glyph glyph-name="e" unicode="e" horiz-adv-x="554" 
d="M292 493c81.333 -0.666992 140.666 -24.167 177.999 -70.5s49.333 -109.5 36 -189.5h-383c-2.66699 -54 14.666 -97.333 51.999 -130s84 -49 140 -49c52 0 106.333 11.667 163 35l12 -59c-58 -27.333 -117 -41 -177 -41c-81.333 0 -147 24 -197 72
s-73.667 112.333 -71 193c2.66699 74 27.334 132.333 74.001 175s104.334 64 173.001 64zM292 431c-44.667 0 -81.832 -12.168 -111.499 -36.501s-47.834 -58.166 -54.501 -101.499h314c2.66699 44 -10 78 -38 102s-64.667 36 -110 36z" />
    <glyph glyph-name="f" unicode="f" horiz-adv-x="390" 
d="M127 0v418.002h-103v60h104v81c0 43.333 7.83301 79.166 23.5 107.499s36.667 47.666 63 57.999s56 14.5 89 12.5s68.167 -10.333 105.5 -25l-11 -58c-25.333 10.667 -49 17.5 -71 20.5s-42.333 2 -61 -3s-33.5 -16.5 -44.5 -34.5s-16.5 -42.333 -16.5 -73v-86h175v-60
h-175v-418h-78z" />
    <glyph glyph-name="g" unicode="g" horiz-adv-x="576" 
d="M427 -40l-0.000976562 75.999c-50.667 -32 -102 -48.667 -154 -50c-64.667 -2 -118.667 19.833 -162 65.5s-65 108.167 -65 187.5c0 81.333 24.667 143.333 74 186s113 64 191 64c62.667 0 126.667 -14.667 192 -44v-479c0 -78 -21.167 -136.333 -63.5 -175
s-96.833 -58 -163.5 -58s-132 18 -196 54l13 62c62.667 -34 123.334 -50.667 182.001 -50c45.333 0.666992 82 13.834 110 39.501s42 66.167 42 121.5zM425.999 103.999l-0.000976562 296.001c-40 15.333 -79 23 -117 23c-53.333 0 -97.5 -15.833 -132.5 -47.5
s-52.5 -76.834 -52.5 -135.501c0 -60 15.333 -106.333 46 -139s69.334 -48.667 116.001 -48c47.333 0 94 17 140 51z" />
    <glyph glyph-name="h" unicode="h" horiz-adv-x="584" 
d="M514 0l-80 -0.00195312v284c0.666992 46 -11 81.667 -35 107s-57 38 -99 38c-43.333 0.666992 -78.333 -12.666 -105 -39.999s-40 -63.333 -40 -108v-281h-79v731h79v-312c21.333 26.667 44.833 45.834 70.5 57.501s57.167 17.5 94.5 17.5
c64 -0.666992 112.333 -19.667 145 -57s49 -88.333 49 -153v-284z" />
    <glyph glyph-name="i" unicode="i" horiz-adv-x="234" 
d="M68 641c0 20.667 8.16504 35.334 24.498 44.001s32.833 8.66699 49.5 0s25 -23.334 25 -44.001c0 -16 -5.16699 -28.5 -15.5 -37.5s-21.666 -13.5 -33.999 -13.5s-23.666 4.5 -33.999 13.5s-15.5 21.5 -15.5 37.5zM155.998 478v-478h-78v478h78z" />
    <glyph glyph-name="j" unicode="j" horiz-adv-x="234" 
d="M78 480h78.001l-1 -537c0 -78 -15.833 -133 -47.5 -165s-82.834 -41.333 -153.501 -28l2 61c50 -8.66699 82.833 -2.16699 98.5 19.5s23.5 59.5 23.5 113.5v536zM67.001 641c0 20.667 8.16504 35.334 24.498 44.001s32.833 8.66699 49.5 0s25 -23.334 25 -44.001
c0 -16 -5.16699 -28.5 -15.5 -37.5s-21.666 -13.5 -33.999 -13.5s-23.666 4.5 -33.999 13.5s-15.5 21.5 -15.5 37.5z" />
    <glyph glyph-name="k" unicode="k" horiz-adv-x="534" 
d="M155 283h64c66 0 114.167 16 144.5 48s45.5 82.667 45.5 152h75c0 -58.667 -10.5 -107.5 -31.5 -146.5s-56.833 -68.167 -107.5 -87.5l162 -240v-9h-81l-149 225c-18 -4 -37.667 -6 -59 -6h-63v-219h-79v731h79v-448z" />
    <glyph glyph-name="l" unicode="l" horiz-adv-x="275" 
d="M71 733l79 -0.000976562v-559c0 -49.333 8 -82.166 24 -98.499s48.333 -21.5 97 -15.5l3 -62c-73.333 -12 -125.5 -4.33301 -156.5 23s-46.5 78.333 -46.5 153v559z" />
    <glyph glyph-name="m" unicode="m" horiz-adv-x="896" 
d="M825 0l-80 0.00195312v287c0 42 -8.66699 75.833 -26 101.5s-45 38.5 -83 38.5c-40.667 0 -74.5 -13.667 -101.5 -41s-40.5 -62.333 -40.5 -105v-281h-78v283c0 96 -37.333 144 -112 144c-41.333 0 -74.166 -13.333 -98.499 -40s-36.5 -62.334 -36.5 -107.001v-280h-78
v349c0 34 -3.16699 56.167 -9.5 66.5s-21.833 14.166 -46.5 11.499l-1 57c23.333 2.66699 44.5 4.5 63.5 5.5s34.5 -5.16699 46.5 -18.5s18 -35 18 -65c31.333 57.333 85.666 86 162.999 86c80 0 129.667 -34.667 149 -104c14.667 34 38.5 59.833 71.5 77.5
s70.5 26.5 112.5 26.5c111.333 0 167 -68.333 167 -205v-287z" />
    <glyph glyph-name="n" unicode="n" 
d="M528 0h-79v286c0 42.667 -12.5 76.834 -37.5 102.501s-57.5 38.5 -97.5 38.5c-41.333 0 -75.666 -13 -102.999 -39s-41 -59 -41 -99v-289h-78v344c0 34 -3.16699 56 -9.5 66s-21.833 13.667 -46.5 11l-1 62c13.333 2 23.166 3.33301 29.499 4s15.833 1.16699 28.5 1.5
s22.167 -1 28.5 -4s13.5 -7.16699 21.5 -12.5s13.667 -13.333 17 -24s5 -23.334 5 -38.001c36 54.667 92.667 82 170 82c61.333 0 108.833 -19 142.5 -57s50.5 -87.667 50.5 -149v-286z" />
    <glyph glyph-name="o" unicode="o" 
d="M553 242c0 -40 -7.33301 -76.333 -22 -109s-33.834 -59 -57.501 -79s-50.667 -35.5 -81 -46.5s-61.5 -16.5 -93.5 -16.5s-63.167 5.5 -93.5 16.5s-57.333 26.5 -81 46.5s-42.834 46.167 -57.501 78.5s-22 68.833 -22 109.5s7.33301 77.334 22 110.001
s33.834 59 57.501 79s50.667 35.5 81 46.5s61.5 16.5 93.5 16.5s63.167 -5.5 93.5 -16.5s57.333 -26.5 81 -46.5s42.834 -46.333 57.501 -79s22 -69.334 22 -110.001zM124 242c0 -39.333 8.66699 -73.333 26 -102s39 -49.5 65 -62.5s54.167 -19.5 84.5 -19.5
s58.5 6.5 84.5 19.5s47.667 33.833 65 62.5s26 62.667 26 102s-8.66699 73.333 -26 102s-39 49.334 -65 62.001s-54.167 19 -84.5 19s-58.5 -6.33301 -84.5 -19s-47.667 -33.334 -65 -62.001s-26 -62.667 -26 -102z" />
    <glyph glyph-name="p" unicode="p" horiz-adv-x="597" 
d="M157 402c38 62 96.666 92.999 175.999 92.999c68 0 121.333 -23.833 160 -71.5s58 -107.5 58 -179.5c0 -52 -12 -97.833 -36 -137.5s-54.333 -68.667 -91 -87s-78 -25.833 -124 -22.5s-90 19 -132 47v-292h-78v569c0 44 -1.66699 70.667 -5 80
c-7.33301 19.333 -24.666 27.333 -51.999 24l-1 58c40.667 6.66699 72 3.83398 94 -8.49902s32.333 -36.5 31 -72.5zM165.999 263.999l0.000976562 -149.003c43.333 -33.333 88.833 -50.666 136.5 -51.999s87.667 14.334 120 47.001s48.5 77.334 48.5 134.001
c0 52 -12.833 95 -38.5 129s-63.834 51 -114.501 51c-44 0 -80 -15.833 -108 -47.5s-42.667 -69.167 -44 -112.5z" />
    <glyph glyph-name="q" unicode="q" horiz-adv-x="579" 
d="M506 453v-704h-79v291c-48.667 -31.333 -99.334 -47 -152.001 -47c-64 0 -118 22.667 -162 68s-66.333 106 -67 182c-1.33301 86 22.834 149.333 72.501 190s113.167 61 190.5 61c63.333 0 129 -13.667 197 -41zM429 111v293.999c-40.667 16 -80 24.333 -118 25
c-54 1.33301 -98.5 -13.667 -133.5 -45s-52.5 -78.666 -52.5 -141.999c0.666992 -58 17 -103 49 -135s71.333 -47.667 118 -47c48 1.33301 93.667 18 137 50z" />
    <glyph glyph-name="r" unicode="r" horiz-adv-x="433" 
d="M163 418c24.667 53.333 73.3359 80 146.003 80c42 0 79.667 -12 113 -36l-19 -66c-33.333 21.333 -67.333 32 -102 32c-36 0 -67.167 -12.167 -93.5 -36.5s-39.5 -54.833 -39.5 -91.5v-300h-77v369c0 13.333 -0.333008 23.333 -1 30s-2.83398 13.5 -6.50098 20.5
s-9.5 11.667 -17.5 14s-19 2.83301 -33 1.5l-1 52c41.333 7.33301 73.166 6.33301 95.499 -3s34.166 -31.333 35.499 -66z" />
    <glyph glyph-name="s" unicode="s" horiz-adv-x="509" 
d="M40 136l75.999 -0.000976562c2 -28.667 16.5 -50 43.5 -64s58.5 -21 94.5 -21s67.333 7.5 94 22.5s40.667 36.5 42 64.5c0 25.333 -10 43.166 -30 53.499s-55 19.166 -105 26.499c-22.667 2.66699 -42 5.5 -58 8.5s-33.667 7.66699 -53 14s-35 13.833 -47 22.5
s-22.167 20.334 -30.5 35.001s-12.833 31.667 -13.5 51c-1.33301 46.667 17.834 82.167 57.501 106.5s87.167 36.5 142.5 36.5c54.667 0 102 -12 142 -36s59.333 -58 58 -102h-75c0 24.667 -12.167 43.5 -36.5 56.5s-53.833 19.5 -88.5 19.5s-64.667 -6.66699 -90 -20
s-37.333 -33 -36 -59c0.666992 -22 11 -37.667 31 -47s54.667 -17.666 104 -24.999c22.667 -2.66699 39.834 -5 51.501 -7s27 -5.16699 46 -9.5s33.667 -9.66602 44 -15.999s21.166 -14.333 32.499 -24s19.333 -21.5 24 -35.5s6.66699 -30.333 6 -49
c0 -46.667 -20.333 -83 -61 -109s-91 -39.667 -151 -41c-58.667 0 -108 11.833 -148 35.5s-62 61.167 -66 112.5z" />
    <glyph glyph-name="t" unicode="t" horiz-adv-x="421" 
d="M204 630v-149.999h177v-57h-177v-236c0 -60 17.5 -99.833 52.5 -119.5s81.5 -18.167 139.5 4.5l9 -63c-56 -16.667 -104.667 -22.834 -146 -18.501s-73.833 23 -97.5 56s-35.5 79.167 -35.5 138.5v238l-103 5v52h108l8 150h65z" />
    <glyph glyph-name="u" unicode="u" horiz-adv-x="587" 
d="M417 482l78.001 -0.00195312v-353c0 -35.333 3.33301 -57.5 10 -66.5s22.334 -12.167 47.001 -9.5l1 -54c-43.333 -7.33301 -76.333 -6.16602 -99 3.50098s-33 33.834 -31 72.501c-30.667 -55.333 -88 -83 -172 -83c-61.333 0 -106.833 19 -136.5 57
s-44.5 88.667 -44.5 152v281h79v-281c-0.666992 -44.667 10.166 -80 32.499 -106s53.166 -39 92.499 -39c42.667 0 77.167 13.167 103.5 39.5s39.5 61.833 39.5 106.5v280z" />
    <glyph glyph-name="v" unicode="v" horiz-adv-x="532" 
d="M283 -4h-33l-229 477v9h85l82 -181l80 -187l80 190l79 178h84v-9z" />
    <glyph glyph-name="w" unicode="w" horiz-adv-x="758" 
d="M249 -4h-35l-188 477v9h84l71 -190l51 -156h2l129 334h31l131 -334h1l52 156l35.5 95c15.667 42 27.167 73.667 34.5 95h85v-9l-190 -477h-36l-127 324z" />
    <glyph glyph-name="x" unicode="x" horiz-adv-x="492" 
d="M247 208h-2l-73 -106l-78 -102h-78v9l186 247l-159 218v8h81l63 -87l61 -94h2l66 98l63 83h78v-9l-165 -221l180 -243v-9h-76l-73 99z" />
    <glyph glyph-name="y" unicode="y" horiz-adv-x="547" 
d="M518 473l-212.002 -507l-24 -55.5c-5.33301 -12.333 -13.5 -29.166 -24.5 -50.499s-20.833 -37 -29.5 -47s-20 -21 -34 -33s-28.167 -19.5 -42.5 -22.5s-31.166 -3.5 -50.499 -1.5s-40 7.66699 -62 17l11 58c42 -19.333 74.833 -19.833 98.5 -1.5
s44.834 51.166 63.501 98.499l28 68l-221 477v8h83l96 -214l79 -191h1l73 189l88 216h79v-8z" />
    <glyph glyph-name="z" unicode="z" horiz-adv-x="461" 
d="M424 482v-11l-269 -402h267v-69h-392v10l273 404h-258v68h379z" />
    <glyph glyph-name="braceleft" unicode="{" horiz-adv-x="298" 
d="M256 765l-0.00292969 -59.0029c-31.333 0.666992 -53.666 -4.66602 -66.999 -15.999s-20 -32.333 -20 -63v-198c0 -69.333 -17.667 -111.666 -53 -126.999c22 -9.33301 36.333 -25 43 -47s10 -49.333 10 -82v-205c0 -30.667 6.83301 -51.5 20.5 -62.5
s35.834 -15.833 66.501 -14.5v-64c-58 0 -99.333 8.83301 -124 26.5s-37 54.834 -37 111.501l-1 202c0 66 -18.333 101 -55 105v59c16 2.66699 28.333 10.167 37 22.5s13.834 24.5 15.501 36.5s2.5 27 2.5 45l1 194c0 55.333 12.833 91.833 38.5 109.5s66.5 26.5 122.5 26.5
z" />
    <glyph glyph-name="bar" unicode="|" horiz-adv-x="244" 
d="M86 702h72v-782h-72v782z" />
    <glyph glyph-name="braceright" unicode="}" horiz-adv-x="298" 
d="M42 706l-0.00292969 59.002c56 0 96.833 -8.83301 122.5 -26.5s38.5 -54.167 38.5 -109.5l1 -194c0 -18 0.833008 -33 2.5 -45s6.83398 -24.167 15.501 -36.5s21 -19.833 37 -22.5v-59c-36.667 -4 -55 -39 -55 -105l-1 -202c0 -56.667 -12.333 -93.834 -37 -111.501
s-66 -26.5 -124 -26.5v64c30.667 -1.33301 52.834 3.5 66.501 14.5s20.5 31.833 20.5 62.5v205c0 32.667 3.66699 60 11 82s22.333 37.667 45 47c-37.333 16 -56 58.333 -56 127v198c0 30.667 -6.66699 51.667 -20 63s-35.666 16.666 -66.999 15.999z" />
    <glyph glyph-name="asciitilde" unicode="~" horiz-adv-x="613" 
d="M111 289l-49.001 26.998c20.667 54 55.667 86.667 105 98s97.666 1 144.999 -31c20.667 -13.333 39.334 -23.5 56.001 -30.5s33.667 -11.333 51 -13s32.833 2.83301 46.5 13.5s25.167 27.334 34.5 50.001l54 -25c-11.333 -30.667 -26.166 -54.5 -44.499 -71.5
s-38.833 -26.833 -61.5 -29.5s-46.167 -0.666992 -70.5 6s-49.833 18 -76.5 34c-92 52.667 -155.333 43.334 -190 -27.999z" />
    <glyph glyph-name="exclamdown" unicode="&#xa1;" horiz-adv-x="232" 
d="M117 488c13.333 0 24.667 -4.33301 34 -13s14 -19.667 14 -33c0 -14 -4.5 -25.167 -13.5 -33.5s-20.5 -12.5 -34.5 -12.5s-25.833 4.16699 -35.5 12.5s-14.5 19.5 -14.5 33.5c0 13.333 4.83301 24.333 14.5 33s21.5 13 35.5 13zM153.001 322l5 -547h-83l4 547h74z" />
    <glyph glyph-name="cent" unicode="&#xa2;" horiz-adv-x="602" 
d="M542 333l-73.999 -3.00098c-14 35.333 -41.333 61.666 -82 78.999l-118 -342c44 -11.333 86 -8.16602 126 9.50098s67 48.5 81 92.5l75 -3c-18 -68.667 -57 -117.667 -117 -147s-122.667 -35.666 -188 -18.999l-27 -79h-39l31 91c-44 18.667 -79.667 47.667 -107 87
s-41 87.333 -41 144c0 60 16.5 111 49.5 153s73 70.333 120 85s94.833 17 143.5 7l26 75h37l-29 -84c69.333 -26 113.666 -74.667 132.999 -146zM235.001 81.999l116 339c-52 8.66699 -100.167 -3.33301 -144.5 -36s-66.5 -80 -66.5 -142c0 -38 8.66699 -70.667 26 -98
s40.333 -48.333 69 -63z" />
    <glyph glyph-name="sterling" unicode="&#xa3;" horiz-adv-x="657" 
d="M47 320l-0.00195312 61h80c-10.667 55.333 -11.834 103.5 -3.50098 144.5s24.333 75 48 102s51.834 47.333 84.501 61s68 20.5 106 20.5c66.667 0.666992 135.667 -19.333 207 -60l-28 -60c-55.333 36 -116.333 52.333 -183 49
c-59.333 -2.66699 -104.166 -26 -134.499 -70s-35.5 -106.333 -15.5 -187h242v-61h-233c8.66699 -49.333 11 -91 7 -125c-4.66699 -40 -19.334 -77.333 -44.001 -112c18.667 9.33301 41.834 13.5 69.501 12.5s51.667 -4.16699 72 -9.5s44.333 -11 72 -17
s50.834 -9 69.501 -9c26 0 45.833 8 59.5 24s19.834 43.667 18.501 83h67c8 -117.333 -35.667 -176 -131 -176c-18 0 -44.167 3.16699 -78.5 9.5l-93.5 17.5c-28 5.33301 -58.167 7 -90.5 5s-58.833 -9.66699 -79.5 -23h-81v8c31.333 30 54.166 59.667 68.499 89
s22.833 65 25.5 107c0.666992 30 -3.33301 68.667 -12 116h-89z" />
    <glyph glyph-name="currency" unicode="&#xa4;" horiz-adv-x="565" 
d="M127 558l57 -58.0029c29.333 18.667 62.333 28.334 99 29.001s70 -7.66602 100 -24.999l54 54l50 -50l-52 -52c21.333 -30 32 -66.333 32 -109c0 -41.333 -11 -78 -33 -110l53 -52l-50 -50l-55 54c-30 -17.333 -63 -25.666 -99 -24.999s-68.667 10.334 -98 29.001
l-58 -58l-50 50l57 57c-18.667 28.667 -28 63.667 -28 105c0 39.333 9.33301 73.666 28 102.999l-57 58zM173 346.997c0 -37.333 11.833 -66.5 35.5 -87.5s49.667 -31.5 78 -31.5s54.333 10.5 78 31.5s35.5 50.167 35.5 87.5c0 36.667 -11.833 65.5 -35.5 86.5
s-49.667 31.5 -78 31.5s-54.333 -10.5 -78 -31.5s-35.5 -49.833 -35.5 -86.5z" />
    <glyph glyph-name="yen" unicode="&#xa5;" horiz-adv-x="561" 
d="M320 0h-79v144h-142v57h142v63h-142v56h123l-186 369v11h90l155 -334l155 334h89v-11l-187 -369h124v-56h-142v-63h142v-57h-142v-144z" />
    <glyph glyph-name="brokenbar" unicode="&#xa6;" horiz-adv-x="246" 
d="M87 702h72v-308h-72v308zM87 298h72v-312h-72v312z" />
    <glyph glyph-name="section" unicode="&#xa7;" horiz-adv-x="643" 
d="M415 177c27.333 8 49.999 21.666 67.999 40.999s27 42.333 27 69c0 37.333 -16.5 63.333 -49.5 78s-82.833 25.334 -149.5 32.001l-30 3c-13.333 1.33301 -23.666 2.66602 -30.999 3.99902c-30 -8 -55.167 -21.333 -75.5 -40s-29.833 -41.334 -28.5 -68.001
c1.33301 -33.333 14.333 -57.666 39 -72.999s58.667 -25.333 102 -30c56 -5.33301 98.667 -10.666 128 -15.999zM175.999 424.999c-33.333 11.333 -58.998 26.5029 -76.998 45.5029s-27 44.5 -27 76.5c0 38 12.667 70.333 38 97s55.333 45.5 90 56.5s72 17.167 112 18.5
c38.667 1.33301 75.834 -3.33398 111.501 -14.001s67.167 -29 94.5 -55s41.666 -57.667 42.999 -95h-77c-2 34 -20.667 59.5 -56 76.5s-73.333 24.5 -114 22.5c-26 -1.33301 -50.333 -4.83301 -73 -10.5s-43.334 -16.834 -62.001 -33.501s-28 -37.334 -28 -62.001
c0 -11.333 1.83301 -21.333 5.5 -30s10 -16 19 -22s17.667 -11 26 -15s20.5 -7.66699 36.5 -11s29.167 -5.66602 39.5 -6.99902l45.5 -6c32.667 -3.33301 59.334 -6.5 80.001 -9.5s43.834 -8.5 69.501 -16.5s45.667 -17.5 60 -28.5s26.666 -26.167 36.999 -45.5
s15.5 -42 15.5 -68c-0.666992 -58.667 -32.667 -104 -96 -136c64 -26 96 -70 96 -132c0 -29.333 -8 -55.333 -24 -78s-37 -40.5 -63 -53.5s-53.5 -23 -82.5 -30s-58.833 -10.833 -89.5 -11.5c-42 -1.33301 -82.667 3.5 -122 14.5s-73.833 30.167 -103.5 57.5
s-44.834 60.666 -45.501 99.999c9.33301 0 22.666 0.166992 39.999 0.5s30.333 0.5 39 0.5c0.666992 -26 12 -47.833 34 -65.5s46.833 -29.667 74.5 -36s55.167 -8.83301 82.5 -7.5c20 0.666992 39.667 3.16699 59 7.5s38.333 10.5 57 18.5s33.834 19.167 45.501 33.5
s17.5 30.833 17.5 49.5c0 12.667 -2.33301 24.167 -7 34.5s-10.334 19 -17.001 26s-16.167 13.333 -28.5 19s-23 10 -32 13s-21.667 5.83301 -38 8.5s-28.666 4.5 -36.999 5.5s-21 2.16699 -38 3.5s-27.833 2.33301 -32.5 3c-132.667 10 -200.334 61.333 -203.001 154
c-2.66699 62 32.333 107.667 105 137z" />
    <glyph glyph-name="dieresis" unicode="&#xa8;" horiz-adv-x="507" 
d="M367 618c-14 0 -25.667 4.16699 -35 12.5s-14 19.166 -14 32.499c0 14 4.66699 25.167 14 33.5s21 12.5 35 12.5s25.667 -4.16699 35 -12.5s14 -19.5 14 -33.5c0 -13.333 -4.66699 -24.166 -14 -32.499s-21 -12.5 -35 -12.5zM132 618c-14 0 -25.667 4.16699 -35 12.5
s-14 19.166 -14 32.499c0 14 4.66699 25.167 14 33.5s21 12.5 35 12.5s25.833 -4.16699 35.5 -12.5s14.5 -19.5 14.5 -33.5c0 -13.333 -4.83301 -24.166 -14.5 -32.499s-21.5 -12.5 -35.5 -12.5z" />
    <glyph glyph-name="copyright" unicode="&#xa9;" horiz-adv-x="791" 
d="M734 347c0 -54.667 -9.66699 -104.331 -29 -148.998s-44.833 -80.667 -76.5 -108s-67.834 -48.333 -108.501 -63s-82.167 -22.167 -124.5 -22.5s-83.833 7 -124.5 22s-76.834 36.167 -108.501 63.5s-57.167 63.166 -76.5 107.499s-29 94.166 -29 149.499
c0 54.667 9.66699 104.167 29 148.5s44.833 80.166 76.5 107.499s67.834 48.5 108.501 63.5s82.167 22.5 124.5 22.5s83.833 -7.5 124.5 -22.5s76.834 -36.167 108.501 -63.5s57.167 -63.166 76.5 -107.499s29 -93.833 29 -148.5zM550 403.003l-48.998 -4.00098
c-10 33.333 -32.5 54.333 -67.5 63s-68 2.16699 -99 -19.5s-46.5 -53.834 -46.5 -96.501c0 -34 11.167 -61.667 33.5 -83s49.5 -32.666 81.5 -33.999c22.667 -0.666992 43.5 5 62.5 17s32.167 29.667 39.5 53h50c-6.66699 -28.667 -19.167 -52.667 -37.5 -72
s-39.333 -32.5 -63 -39.5s-48.334 -9 -74.001 -6s-49.167 10.833 -70.5 23.5s-39 31.334 -53 56.001s-21 53 -21 85c0 38 9.5 70.833 28.5 98.5s42.667 46.334 71 56.001s57.166 13.667 86.499 12s56 -12.334 80 -32.001s40 -45.5 48 -77.5zM116.002 347.002
c0 -46.667 8 -88.667 24 -126s37.167 -67.666 63.5 -90.999s56.166 -41.166 89.499 -53.499s67.5 -18.5 102.5 -18.5s69.167 6.16699 102.5 18.5s63.166 30.166 89.499 53.499s47.5 53.666 63.5 90.999s24 79.333 24 126s-8 88.834 -24 126.501s-37.167 68 -63.5 91
s-56.166 40.833 -89.499 53.5s-67.5 19 -102.5 19s-69.167 -6.33301 -102.5 -19s-63.166 -30.5 -89.499 -53.5s-47.5 -53.333 -63.5 -91s-24 -79.834 -24 -126.501z" />
    <glyph glyph-name="ordfeminine" unicode="&#xaa;" horiz-adv-x="493" 
d="M329 401c-22.667 -39.333 -67.6709 -59.001 -135.004 -59.001c-35.333 0 -65.166 9.16699 -89.499 27.5s-37.166 45.166 -38.499 80.499c-1.33301 38.667 11.834 68.334 39.501 89.001s61.167 31 100.5 31c42.667 -1.33301 80.334 -10.333 113.001 -27v31
c0 55.333 -35.667 83 -107 83c-39.333 0 -73.666 -8 -102.999 -24l-11 43c35.333 19.333 76.333 29 123 29c47.333 0 86 -10.667 116 -32s45 -54.666 45 -99.999v-163c0 -11.333 2.66699 -19.5 8 -24.5s15.333 -6.83301 30 -5.5l2 -36
c-28.667 -7.33301 -52.334 -6 -71.001 4s-26 27.667 -22 53zM87.9961 213.999v52h321v-52h-321zM318.996 458.999l0.000976562 39.001c-28 17.333 -62.667 26 -104 26c-24.667 0 -45.334 -5.83301 -62.001 -17.5s-25 -28.834 -25 -51.501
c0 -21.333 7.16699 -37.333 21.5 -48s32.833 -16 55.5 -16c26 0 50 5.83301 72 17.5s36 28.5 42 50.5z" />
    <glyph glyph-name="guillemotleft" unicode="&#xab;" horiz-adv-x="468" 
d="M241 551l-104 -205l104 -202l-52 -20l-135 222l135 223zM404 551l-104 -205l104 -202l-52 -20l-135 222l135 223z" />
    <glyph glyph-name="logicalnot" unicode="&#xac;" horiz-adv-x="559" 
d="M74 308v69h407v-241h-65v172h-342z" />
    <glyph glyph-name="registered" unicode="&#xae;" horiz-adv-x="791" 
d="M734 350c0 -54.667 -9.66699 -104.331 -29 -148.998s-44.833 -80.667 -76.5 -108s-67.834 -48.333 -108.501 -63s-82.167 -22.167 -124.5 -22.5s-83.833 7 -124.5 22s-76.834 36.167 -108.501 63.5s-57.167 63.166 -76.5 107.499s-29 94.166 -29 149.499
c0 54.667 9.66699 104.167 29 148.5s44.833 80.166 76.5 107.499s67.834 48.5 108.501 63.5s82.167 22.5 124.5 22.5s83.833 -7.5 124.5 -22.5s76.834 -36.167 108.501 -63.5s57.167 -63.166 76.5 -107.499s29 -93.833 29 -148.5zM460 308.003l87 -114v-8h-53l-85 115h-71
v-115h-51v327h134c33.333 0 61 -9.5 83 -28.5s33 -45.167 33 -78.5c0 -24.667 -7 -46 -21 -64s-32.667 -29.333 -56 -34zM338 469.003v-126h79c20 0 36.5 5.66699 49.5 17s19.5 26.666 19.5 45.999c0 18.667 -6.5 33.834 -19.5 45.501s-29.5 17.5 -49.5 17.5h-79z
M117 350.003c0 -46.667 8 -88.667 24 -126s37 -67.666 63 -90.999s55.833 -41.166 89.5 -53.499s67.834 -18.5 102.501 -18.5s68.834 6.16699 102.501 18.5s63.5 30.166 89.5 53.499s47 53.666 63 90.999s24 79.333 24 126s-8 88.834 -24 126.501s-37 68 -63 91
s-55.833 40.833 -89.5 53.5s-67.834 19 -102.501 19s-68.834 -6.33301 -102.501 -19s-63.5 -30.5 -89.5 -53.5s-47 -53.333 -63 -91s-24 -79.834 -24 -126.501z" />
    <glyph glyph-name="macron" unicode="&#xaf;" horiz-adv-x="499" 
d="M94 636v61h297v-61h-297z" />
    <glyph glyph-name="degree" unicode="&#xb0;" horiz-adv-x="431" 
d="M379 554c0 -28 -6 -53.167 -18 -75.5s-27.667 -39.166 -47 -50.499s-40.5 -19.666 -63.5 -24.999s-46.167 -5.33301 -69.5 0s-44.666 13.666 -63.999 24.999s-35 28.166 -47 50.499s-18 47.5 -18 75.5s6 53 18 75s27.667 38.833 47 50.5s40.5 20.167 63.5 25.5
s46.167 5.33301 69.5 0s44.666 -13.833 63.999 -25.5s35 -28.5 47 -50.5s18 -47 18 -75zM112 554c0 -25.333 7.16992 -46.666 21.5029 -63.999s31.666 -28.166 51.999 -32.499s40.5 -4.33301 60.5 0s37.167 15.166 51.5 32.499s21.5 38.666 21.5 63.999
c0 32 -10.833 57 -32.5 75s-45.334 26.833 -71.001 26.5s-49.334 -9.5 -71.001 -27.5s-32.5 -42.667 -32.5 -74z" />
    <glyph glyph-name="plusminus" unicode="&#xb1;" horiz-adv-x="521" 
d="M84 333v64h145v145h64v-145h146v-64h-146v-150h-64v150h-145zM74 39v67h371v-67h-371z" />
    <glyph glyph-name="twosuperior" unicode="&#xb2;" horiz-adv-x="403" 
d="M334 414l0.000976562 -53.998h-269v14l172 206c17.333 19.333 27.666 39.666 30.999 60.999s-1.33398 39.166 -14.001 53.499s-31.667 21.5 -57 21.5c-45.333 0 -69.333 -21.333 -72 -64h-53c3.33301 78 45.333 117 126 117c42 0 74.333 -12 97 -36
s32.834 -52.667 30.501 -86s-15.5 -64 -39.5 -92l-120 -141h168z" />
    <glyph glyph-name="threesuperior" unicode="&#xb3;" horiz-adv-x="384" 
d="M43 473l54.998 0.00292969c7.33301 -44 36 -66 86 -66c26.667 0 48.334 7.16699 65.001 21.5s25 34.166 25 59.499c0 32.667 -13.5 55.5 -40.5 68.5s-58.833 15.167 -95.5 6.5v15l97 135h-174v50h270v-10l-108 -146c34.667 -1.33301 61.834 -13.5 81.501 -36.5
s29.5 -50.5 29.5 -82.5c0 -38.667 -13.333 -70.834 -40 -96.501s-63 -38.5 -109 -38.5c-39.333 0 -72 10.667 -98 32s-40.667 50.666 -44 87.999z" />
    <glyph glyph-name="acute" unicode="&#xb4;" horiz-adv-x="303" 
d="M147 576h-66v7l75 132l72 -29v-7z" />
    <glyph glyph-name="mu" unicode="&#xb5;" horiz-adv-x="572" 
d="M512 0h-75.999v90c-10 -30.667 -27.333 -54.667 -52 -72s-54.334 -26 -89.001 -26c-66.667 0 -113 27.333 -139 82v-324h-75v733h75v-285c0.666992 -46 12.667 -81.5 36 -106.5s57 -37.833 101 -38.5c42 0 76.333 13.667 103 41s40 63 40 107v282h76v-483z" />
    <glyph glyph-name="mu" unicode="&#x3bc;" horiz-adv-x="572" 
d="M512 0h-75.999v90c-10 -30.667 -27.333 -54.667 -52 -72s-54.334 -26 -89.001 -26c-66.667 0 -113 27.333 -139 82v-324h-75v733h75v-285c0.666992 -46 12.667 -81.5 36 -106.5s57 -37.833 101 -38.5c42 0 76.333 13.667 103 41s40 63 40 107v282h76v-483z" />
    <glyph glyph-name="paragraph" unicode="&#xb6;" horiz-adv-x="735" 
d="M641 -199l-77.998 0.00195312v826h-211v-826h-79v377c-48.667 1.33301 -91.334 15.166 -128.001 41.499s-63.667 58.666 -81 96.999s-26.333 80 -27 125s7.16602 86.5 23.499 124.5s43.833 69.667 82.5 95s84.667 38 138 38h360v-898z" />
    <glyph glyph-name="periodcentered" unicode="&#xb7;" horiz-adv-x="238" 
d="M119 311c-14 0 -26.002 4.33301 -36.002 13s-15 20 -15 34s4.83301 25.5 14.5 34.5s21.834 13.5 36.501 13.5s26.834 -4.5 36.501 -13.5s14.5 -20.5 14.5 -34.5s-5 -25.333 -15 -34s-22 -13 -36 -13z" />
    <glyph glyph-name="cedilla" unicode="&#xb8;" horiz-adv-x="392" 
d="M156 -76l23.0029 86.998h59l-16 -63c32 -1.33301 55.5 -12.666 70.5 -33.999s18.5 -45.666 10.5 -72.999c-8.66699 -25.333 -25.834 -43.5 -51.501 -54.5s-53 -14.333 -82 -10s-53.833 14.166 -74.5 29.499l4 48c20 -18 46.167 -28 78.5 -30s53.5 8.66699 63.5 32
c7.33301 22.667 0.666016 40.334 -20.001 53.001s-42.334 17.667 -65.001 15z" />
    <glyph glyph-name="onesuperior" unicode="&#xb9;" horiz-adv-x="330" 
d="M54 360v50h80v303h-71v50h132v-353h81v-50h-222z" />
    <glyph glyph-name="ordmasculine" unicode="&#xba;" horiz-adv-x="537" 
d="M466 532c0 -34.667 -7.33301 -65.834 -22 -93.501s-33.834 -48.5 -57.501 -62.5s-49.667 -24.333 -78 -31s-56.666 -6.66699 -84.999 0s-54.333 17 -78 31s-42.834 34.833 -57.501 62.5s-22 58.834 -22 93.501c0 35.333 7.33301 66.666 22 93.999
s33.834 48.166 57.501 62.499s49.667 24.833 78 31.5s56.666 6.66699 84.999 0s54.333 -17.167 78 -31.5s42.834 -35.166 57.501 -62.499s22 -58.666 22 -93.999zM133 533c0 -34 9.16797 -62.667 27.501 -86s40.5 -37.666 66.5 -42.999s52.167 -5.33301 78.5 0
s48.666 19.666 66.999 42.999s27.5 52 27.5 86c0 24.667 -4.83301 46.5 -14.5 65.5s-22.5 33.5 -38.5 43.5s-33.333 17.333 -52 22s-37.5 4.66699 -56.5 0s-36.5 -12 -52.5 -22s-28.833 -24.5 -38.5 -43.5s-14.5 -40.833 -14.5 -65.5zM78.001 197v64h383v-64h-383z" />
    <glyph glyph-name="guillemotright" unicode="&#xbb;" horiz-adv-x="468" 
d="M331 346l-104 205l52 18l135 -223l-135 -222l-52 20zM168 346l-104 205l52 18l135 -223l-135 -222l-52 20z" />
    <glyph glyph-name="onequarter" unicode="&#xbc;" horiz-adv-x="889" 
d="M752 136v91c0 0.666992 1 36 3 106h-1l-144 -197h142zM806 86v-85h-58v85h-214v28l208 290h64v-266h45v-52h-45zM244 1l338 699h65l-338 -699h-65zM49 304v47h81v310h-71v47h132v-357h81v-47h-223z" />
    <glyph glyph-name="onehalf" unicode="&#xbd;" horiz-adv-x="904" 
d="M244 1l338 699h66l-339 -699h-65zM50 304v46h81v308h-71v50h132v-358h81v-46h-223zM860 54l0.000976562 -53.998h-269v14l172 206c17.333 19.333 27.666 39.666 30.999 60.999s-1.33398 39.166 -14.001 53.499s-31.667 21.5 -57 21.5c-45.333 0 -69.333 -21.333 -72 -64
h-53c3.33301 78 45.333 117 126 117c42 0 74.333 -12 97 -36s32.834 -52.667 30.501 -86s-15.5 -64 -39.5 -92l-120 -141h168z" />
    <glyph glyph-name="threequarters" unicode="&#xbe;" horiz-adv-x="911" 
d="M278 1l338 699h64l-338 -699h-64zM774 136v91c0 0.666992 1 36 3 106h-1l-144 -197h142zM828 86v-85h-58v85h-214v28l208 290h64v-266h45v-52h-45zM43 415l54.998 0.00292969c7.33301 -44 36 -66 86 -66c26.667 0 48.334 7.16699 65.001 21.5s25 34.166 25 59.499
c0 32.667 -13.5 55.5 -40.5 68.5s-58.833 15.167 -95.5 6.5v15l97 135h-174v50h270v-10l-108 -146c34.667 -1.33301 61.834 -13.5 81.501 -36.5s29.5 -50.5 29.5 -82.5c0 -38.667 -13.333 -70.834 -40 -96.501s-63 -38.5 -109 -38.5c-39.333 0 -72 10.667 -98 32
s-40.667 50.666 -44 87.999z" />
    <glyph glyph-name="questiondown" unicode="&#xbf;" horiz-adv-x="485" 
d="M214 337l75 0.00390625c0.666992 -44.667 -4.66602 -83.334 -15.999 -116.001s-25.333 -58 -42 -76s-33.334 -34.833 -50.001 -50.5s-31 -33.834 -43 -54.501s-18 -44.667 -18 -72c0 -32.667 11.5 -59.334 34.5 -80.001s51.833 -31.667 86.5 -33
c34 -1.33301 63.833 7.5 89.5 26.5s41.167 46.5 46.5 82.5h76c-4 -60.667 -25.333 -106.334 -64 -137.001s-87.667 -46 -147 -46c-60 0 -109.333 16.833 -148 50.5s-58 80.5 -58 140.5c0 28.667 6.16699 54.5 18.5 77.5s27.5 43 45.5 60s35.667 35 53 54s32 43.167 44 72.5
s17.667 63 17 101zM249 498.004c14 0 25.833 -4.33301 35.5 -13s14.5 -20 14.5 -34s-4.83301 -25.167 -14.5 -33.5s-21.5 -12.5 -35.5 -12.5s-25.667 4.16699 -35 12.5s-14 19.5 -14 33.5s4.66699 25.333 14 34s21 13 35 13z" />
    <glyph glyph-name="Agrave" unicode="&#xc0;" horiz-adv-x="706" 
d="M528 173h-350l-82 -173h-87v11l326 692h38l323 -692v-11h-86zM353 572l-147 -327h294zM393 764h-66l-81 103v7l72 29l75 -132v-7z" />
    <glyph glyph-name="Aacute" unicode="&#xc1;" horiz-adv-x="706" 
d="M528 173h-350l-82 -173h-87v11l326 692h38l323 -692v-11h-86zM353 572l-147 -327h294zM388 767h-66v7l75 132l72 -29v-7z" />
    <glyph glyph-name="Acircumflex" unicode="&#xc2;" horiz-adv-x="706" 
d="M528 173h-350l-82 -173h-87v11l326 692h38l323 -692v-11h-86zM353 572l-147 -327h294zM530 745h-79l-98 91l-98 -91h-81v8l139 132h79l138 -133v-7z" />
    <glyph glyph-name="Atilde" unicode="&#xc3;" horiz-adv-x="706" 
d="M528 173h-350l-82 -173h-87v11l326 692h38l323 -692v-11h-86zM353 572l-147 -327h294zM239 763l-43.001 22.001c18 37.333 41.333 61.166 70 71.499s62.334 4.83301 101.001 -16.5c44 -30 77.667 -23.667 101 19l20.5 -10.5l22.5 -11.5
c-14.667 -36.667 -36.667 -60.5 -66 -71.5s-62 -6.16699 -98 14.5c-48 30 -84 24.333 -108 -17z" />
    <glyph glyph-name="Adieresis" unicode="&#xc4;" horiz-adv-x="706" 
d="M528 173h-350l-82 -173h-87v11l326 692h38l323 -692v-11h-86zM353 572l-147 -327h294zM472 757c-14 0 -25.667 4.16699 -35 12.5s-14 19.166 -14 32.499c0 14 4.66699 25.167 14 33.5s21 12.5 35 12.5s25.667 -4.16699 35 -12.5s14 -19.5 14 -33.5
c0 -13.333 -4.66699 -24.166 -14 -32.499s-21 -12.5 -35 -12.5zM237 757c-14 0 -25.667 4.16699 -35 12.5s-14 19.166 -14 32.499c0 14 4.66699 25.167 14 33.5s21 12.5 35 12.5s25.833 -4.16699 35.5 -12.5s14.5 -19.5 14.5 -33.5
c0 -13.333 -4.83301 -24.166 -14.5 -32.499s-21.5 -12.5 -35.5 -12.5z" />
    <glyph glyph-name="Aring" unicode="&#xc5;" horiz-adv-x="706" 
d="M281 801c0 -26.667 11.667 -45.5 35 -56.5s46.666 -11 69.999 0s35 29.833 35 56.5s-11.667 45.334 -35 56.001s-46.666 10.667 -69.999 0s-35 -29.334 -35 -56.001zM353 564l-147 -319h294zM528 173l-349.999 -0.000976562l-82 -173h-87v11l321 683
c-28.667 4.66699 -52.167 15.834 -70.5 33.501s-27.5 42.167 -27.5 73.5c0 34.667 12.333 61.834 37 81.501s52 29.5 82 29.5s57.333 -9.83301 82 -29.5s37 -46.834 37 -81.501c0 -30 -8.83301 -54 -26.5 -72s-39.834 -29.333 -66.501 -34l319 -684v-11h-86z" />
    <glyph glyph-name="AE" unicode="&#xc6;" horiz-adv-x="825" 
d="M191 200l-102 -200h-81v12l356 686h397v-74h-285v-226h269v-71h-269v-254h290v-73h-363v200h-212zM405 623l-186 -353h184l3 353h-1z" />
    <glyph glyph-name="Ccedilla" unicode="&#xc7;" horiz-adv-x="762" 
d="M50 350c0 107.333 33.832 194.165 101.499 260.498s151.834 98.833 252.501 97.5c71.333 0 136 -19 194 -57s97 -92 117 -162h-81c-21.333 46.667 -52 82 -92 106s-86 36 -138 36c-79.333 1.33301 -144 -24.5 -194 -77.5s-75 -120.833 -75 -203.5
c0 -80 24.833 -146.833 74.5 -200.5s114.167 -80.5 193.5 -80.5c54.667 0 103 13.5 145 40.5s72 65.167 90 114.5h81c-18 -68 -52.333 -121.667 -103 -161s-109.334 -62 -176.001 -68l-14 -57c32.667 -1.33301 56.667 -11.666 72 -30.999s18.333 -43.666 9 -72.999
c-8 -26 -25 -44.5 -51 -55.5s-53.333 -14.167 -82 -9.5s-53.667 14.667 -75 30l4 47c17.333 -17.333 42.833 -26 76.5 -26s54.167 12 61.5 36c7.33301 22 1.5 38.333 -17.5 49s-40.167 15 -63.5 13l20 76c-95.333 4 -174.166 38.667 -236.499 104s-93.5 149.333 -93.5 252z
" />
    <glyph glyph-name="Egrave" unicode="&#xc8;" horiz-adv-x="569" 
d="M500 700v-73h-323v-229h312v-73h-312v-248h334v-77h-418v700h407zM361 761h-66l-81 103v7l72 29l75 -132v-7z" />
    <glyph glyph-name="Eacute" unicode="&#xc9;" horiz-adv-x="569" 
d="M500 700v-73h-323v-229h312v-73h-312v-248h334v-77h-418v700h407zM332 762h-66v7l75 132l72 -29v-7z" />
    <glyph glyph-name="Ecircumflex" unicode="&#xca;" horiz-adv-x="569" 
d="M500 700v-73h-323v-229h312v-73h-312v-248h334v-77h-418v700h407zM469 766h-76l-93 90l-94 -90h-77v8l132 130h76l132 -131v-7z" />
    <glyph glyph-name="Edieresis" unicode="&#xcb;" horiz-adv-x="569" 
d="M500 700v-73h-323v-229h312v-73h-312v-248h334v-77h-418v700h407zM416 766c-14 0 -25.667 4.16699 -35 12.5s-14 19.166 -14 32.499c0 14 4.66699 25.167 14 33.5s21 12.5 35 12.5s25.667 -4.16699 35 -12.5s14 -19.5 14 -33.5c0 -13.333 -4.66699 -24.166 -14 -32.499
s-21 -12.5 -35 -12.5zM181 766c-14 0 -25.667 4.16699 -35 12.5s-14 19.166 -14 32.499c0 14 4.66699 25.167 14 33.5s21 12.5 35 12.5s25.833 -4.16699 35.5 -12.5s14.5 -19.5 14.5 -33.5c0 -13.333 -4.83301 -24.166 -14.5 -32.499s-21.5 -12.5 -35.5 -12.5z" />
    <glyph glyph-name="Igrave" unicode="&#xcc;" horiz-adv-x="400" 
d="M242 67h121v-67h-326v67h121v567h-113v66h310v-66h-113v-567zM232 765h-66l-81 103v7l72 29l75 -132v-7z" />
    <glyph glyph-name="Iacute" unicode="&#xcd;" horiz-adv-x="400" 
d="M242 67h121v-67h-326v67h121v567h-113v66h310v-66h-113v-567zM219 761h-66v7l75 132l72 -29v-7z" />
    <glyph glyph-name="Icircumflex" unicode="&#xce;" horiz-adv-x="400" 
d="M242 67h121v-67h-326v67h121v567h-113v66h310v-66h-113v-567zM375 752h-75l-94 88l-94 -88h-77v7l133 129h75l132 -130v-6z" />
    <glyph glyph-name="Idieresis" unicode="&#xcf;" horiz-adv-x="400" 
d="M242 67h121v-67h-326v67h121v567h-113v66h310v-66h-113v-567zM322 758c-14 0 -25.667 4.16699 -35 12.5s-14 19.166 -14 32.499c0 14 4.66699 25.167 14 33.5s21 12.5 35 12.5s25.667 -4.16699 35 -12.5s14 -19.5 14 -33.5c0 -13.333 -4.66699 -24.166 -14 -32.499
s-21 -12.5 -35 -12.5zM87 758c-14 0 -25.667 4.16699 -35 12.5s-14 19.166 -14 32.499c0 14 4.66699 25.167 14 33.5s21 12.5 35 12.5s25.833 -4.16699 35.5 -12.5s14.5 -19.5 14.5 -33.5c0 -13.333 -4.83301 -24.166 -14.5 -32.499s-21.5 -12.5 -35.5 -12.5z" />
    <glyph glyph-name="Eth" unicode="&#xd0;" horiz-adv-x="734" 
d="M16 311v67.001h80v322h248c103.333 0 185.833 -33.833 247.5 -101.5s92.5 -150.167 92.5 -247.5c0 -98.667 -30.833 -181.834 -92.5 -249.501s-144.167 -101.5 -247.5 -101.5h-248v311h-80zM180 76.001l162 -0.000976562c78 0 140.667 26.167 188 78.5s71 117.5 71 195.5
c0 76.667 -23.667 141.334 -71 194.001s-110 79 -188 79h-162v-245h126v-67h-126v-235z" />
    <glyph glyph-name="Ntilde" unicode="&#xd1;" horiz-adv-x="746" 
d="M626 -1l-457 530l7 -192v-337h-83v702h29l456 -530l-9 201v328h84v-702h-27zM255 758l-43.001 22.001c18 37.333 41.333 61.166 70 71.499s62.334 4.83301 101.001 -16.5c44 -30 77.667 -23.667 101 19l20.5 -10.5l22.5 -11.5c-14.667 -36.667 -36.667 -60.5 -66 -71.5
s-62 -6.16699 -98 14.5c-48 30 -84 24.333 -108 -17z" />
    <glyph glyph-name="Ograve" unicode="&#xd2;" horiz-adv-x="810" 
d="M760 350c0 -106 -33.001 -192.667 -99.001 -260s-151.667 -101 -257 -101c-101.333 0 -185.666 33 -252.999 99s-101 153.333 -101 262c0 109.333 34 197 102 263s152.333 99 253 99s185 -33.167 253 -99.5s102 -153.833 102 -262.5zM133.999 350
c0 -84 25.668 -152.333 77.001 -205s115.666 -79 192.999 -79c78 0 142.833 26.333 194.5 79s77.5 121 77.5 205s-25.667 152.667 -77 206s-116 80 -194 80c-77.333 0 -141.833 -26.5 -193.5 -79.5s-77.5 -121.833 -77.5 -206.5zM448 774h-66l-81 103v7l72 29l75 -132v-7z
" />
    <glyph glyph-name="Oacute" unicode="&#xd3;" horiz-adv-x="810" 
d="M760 350c0 -106 -33.001 -192.667 -99.001 -260s-151.667 -101 -257 -101c-101.333 0 -185.666 33 -252.999 99s-101 153.333 -101 262c0 109.333 34 197 102 263s152.333 99 253 99s185 -33.167 253 -99.5s102 -153.833 102 -262.5zM133.999 350
c0 -84 25.668 -152.333 77.001 -205s115.666 -79 192.999 -79c78 0 142.833 26.333 194.5 79s77.5 121 77.5 205s-25.667 152.667 -77 206s-116 80 -194 80c-77.333 0 -141.833 -26.5 -193.5 -79.5s-77.5 -121.833 -77.5 -206.5zM437 775h-66v7l75 132l72 -29v-7z" />
    <glyph glyph-name="Ocircumflex" unicode="&#xd4;" horiz-adv-x="810" 
d="M760 350c0 -106 -33.001 -192.667 -99.001 -260s-151.667 -101 -257 -101c-101.333 0 -185.666 33 -252.999 99s-101 153.333 -101 262c0 109.333 34 197 102 263s152.333 99 253 99s185 -33.167 253 -99.5s102 -153.833 102 -262.5zM133.999 350
c0 -84 25.668 -152.333 77.001 -205s115.666 -79 192.999 -79c78 0 142.833 26.333 194.5 79s77.5 121 77.5 205s-25.667 152.667 -77 206s-116 80 -194 80c-77.333 0 -141.833 -26.5 -193.5 -79.5s-77.5 -121.833 -77.5 -206.5zM581 765h-79l-98 91l-98 -91h-81v8l139 132
h79l138 -133v-7z" />
    <glyph glyph-name="Otilde" unicode="&#xd5;" horiz-adv-x="810" 
d="M760 350c0 -106 -33.001 -192.667 -99.001 -260s-151.667 -101 -257 -101c-101.333 0 -185.666 33 -252.999 99s-101 153.333 -101 262c0 109.333 34 197 102 263s152.333 99 253 99s185 -33.167 253 -99.5s102 -153.833 102 -262.5zM133.999 350
c0 -84 25.668 -152.333 77.001 -205s115.666 -79 192.999 -79c78 0 142.833 26.333 194.5 79s77.5 121 77.5 205s-25.667 152.667 -77 206s-116 80 -194 80c-77.333 0 -141.833 -26.5 -193.5 -79.5s-77.5 -121.833 -77.5 -206.5zM293 785l-43.001 22.001
c18 37.333 41.333 61.166 70 71.499s62.334 4.83301 101.001 -16.5c44 -30 77.667 -23.667 101 19l20.5 -10.5l22.5 -11.5c-14.667 -36.667 -36.667 -60.5 -66 -71.5s-62 -6.16699 -98 14.5c-48 30 -84 24.333 -108 -17z" />
    <glyph glyph-name="Odieresis" unicode="&#xd6;" horiz-adv-x="810" 
d="M760 350c0 -106 -33.001 -192.667 -99.001 -260s-151.667 -101 -257 -101c-101.333 0 -185.666 33 -252.999 99s-101 153.333 -101 262c0 109.333 34 197 102 263s152.333 99 253 99s185 -33.167 253 -99.5s102 -153.833 102 -262.5zM133.999 350
c0 -84 25.668 -152.333 77.001 -205s115.666 -79 192.999 -79c78 0 142.833 26.333 194.5 79s77.5 121 77.5 205s-25.667 152.667 -77 206s-116 80 -194 80c-77.333 0 -141.833 -26.5 -193.5 -79.5s-77.5 -121.833 -77.5 -206.5zM518 773c-14 0 -25.667 4.16699 -35 12.5
s-14 19.166 -14 32.499c0 14 4.66699 25.167 14 33.5s21 12.5 35 12.5s25.667 -4.16699 35 -12.5s14 -19.5 14 -33.5c0 -13.333 -4.66699 -24.166 -14 -32.499s-21 -12.5 -35 -12.5zM283 773c-14 0 -25.667 4.16699 -35 12.5s-14 19.166 -14 32.499
c0 14 4.66699 25.167 14 33.5s21 12.5 35 12.5s25.833 -4.16699 35.5 -12.5s14.5 -19.5 14.5 -33.5c0 -13.333 -4.83301 -24.166 -14.5 -32.499s-21.5 -12.5 -35.5 -12.5z" />
    <glyph glyph-name="multiply" unicode="&#xd7;" horiz-adv-x="450" 
d="M69 456l46 47l110 -108l109 108l47 -47l-109 -110l108 -107l-47 -47l-108 107l-108 -107l-47 47l107 108z" />
    <glyph glyph-name="Oslash" unicode="&#xd8;" horiz-adv-x="808" 
d="M683 741l-62 -103c91.333 -66.667 137 -163 137 -289c0 -108 -34 -195 -102 -261s-152 -99 -252 -99c-52 0 -101.333 10.667 -148 32l-44 -73h-81v8l61 101c-94 66 -141 163.333 -141 292c0 108.667 33.667 196 101 262s151.333 99 252 99
c56.667 0 108.667 -11.667 156 -35l42 74h81v-8zM574 565l-279 -471c34 -16.667 70.667 -25 110 -25c77.333 0 141.5 25.833 192.5 77.5s76.5 119.167 76.5 202.5c0 96 -33.333 168 -100 216zM239 128l281 475.001c-36.667 17.333 -75.334 26 -116.001 26
c-77.333 0 -141.666 -25.833 -192.999 -77.5s-77 -119.167 -77 -202.5c0 -98.667 35 -172.334 105 -221.001z" />
    <glyph glyph-name="Ugrave" unicode="&#xd9;" horiz-adv-x="707" 
d="M355 -9c-78 0 -142.333 22 -193 66s-76 104.333 -76 181v462h84v-461c0 -54 17.167 -96.333 51.5 -127s78.833 -46 133.5 -46s99 15.333 133 46s51 73 51 127v461h82v-462c0 -76.667 -24.833 -137 -74.5 -181s-113.5 -66 -191.5 -66zM395 773h-66l-81 103v7l72 29
l75 -132v-7z" />
    <glyph glyph-name="Uacute" unicode="&#xda;" horiz-adv-x="707" 
d="M355 -9c-78 0 -142.333 22 -193 66s-76 104.333 -76 181v462h84v-461c0 -54 17.167 -96.333 51.5 -127s78.833 -46 133.5 -46s99 15.333 133 46s51 73 51 127v461h82v-462c0 -76.667 -24.833 -137 -74.5 -181s-113.5 -66 -191.5 -66zM382 770h-66v7l75 132l72 -29v-7z
" />
    <glyph glyph-name="Ucircumflex" unicode="&#xdb;" horiz-adv-x="707" 
d="M355 -9c-78 0 -142.333 22 -193 66s-76 104.333 -76 181v462h84v-461c0 -54 17.167 -96.333 51.5 -127s78.833 -46 133.5 -46s99 15.333 133 46s51 73 51 127v461h82v-462c0 -76.667 -24.833 -137 -74.5 -181s-113.5 -66 -191.5 -66zM530 769h-79l-98 91l-98 -91h-81v8
l139 132h79l138 -133v-7z" />
    <glyph glyph-name="Udieresis" unicode="&#xdc;" horiz-adv-x="707" 
d="M355 -9c-78 0 -142.333 22 -193 66s-76 104.333 -76 181v462h84v-461c0 -54 17.167 -96.333 51.5 -127s78.833 -46 133.5 -46s99 15.333 133 46s51 73 51 127v461h82v-462c0 -76.667 -24.833 -137 -74.5 -181s-113.5 -66 -191.5 -66zM469 769
c-14 0 -25.667 4.16699 -35 12.5s-14 19.166 -14 32.499c0 14 4.66699 25.167 14 33.5s21 12.5 35 12.5s25.667 -4.16699 35 -12.5s14 -19.5 14 -33.5c0 -13.333 -4.66699 -24.166 -14 -32.499s-21 -12.5 -35 -12.5zM234 769c-14 0 -25.667 4.16699 -35 12.5
s-14 19.166 -14 32.499c0 14 4.66699 25.167 14 33.5s21 12.5 35 12.5s25.833 -4.16699 35.5 -12.5s14.5 -19.5 14.5 -33.5c0 -13.333 -4.83301 -24.166 -14.5 -32.499s-21.5 -12.5 -35.5 -12.5z" />
    <glyph glyph-name="Yacute" unicode="&#xdd;" horiz-adv-x="628" 
d="M313 366h3l101 170l102 164h89v-12l-252 -401v-287h-84v287l-253 402v11h91l102 -163zM328 765h-66v7l75 132l72 -29v-7z" />
    <glyph glyph-name="Thorn" unicode="&#xde;" horiz-adv-x="652" 
d="M175 189l198.001 0.000976562c47.333 0 86.666 15.667 117.999 47s47 71.333 47 120c0 47.333 -15.5 86.666 -46.5 117.999s-70.5 47 -118.5 47h-198v-332zM93.001 0.000976562v700.001h84v-106h196c73.333 0 132.5 -22.833 177.5 -68.5s67.5 -102.834 67.5 -171.501
c0 -68 -22.667 -124.667 -68 -170s-104.333 -68 -177 -68h-196v-116h-84z" />
    <glyph glyph-name="germandbls" unicode="&#xdf;" horiz-adv-x="588" 
d="M75 1l0.00195312 499.997c0 38.667 6 71.834 18 99.501s27.333 48.834 46 63.501s41.5 25.5 68.5 32.5s53 10.667 78 11s52.667 -1.66699 83 -6s55.5 -8.83301 75.5 -13.5s40.667 -10.334 62 -17.001v-21l-145 -236c50 0 92.833 -19 128.5 -57s53.5 -85.333 53.5 -142
c0 -88 -26.833 -151.167 -80.5 -189.5s-122.834 -46.166 -207.501 -23.499v66c62 -16 111.5 -10.5 148.5 16.5s55.5 70.5 55.5 130.5c0 52.667 -20.833 92.667 -62.5 120s-87.834 34 -138.501 20v25l143 240c-47.333 14 -89.333 20.333 -126 19s-66 -14.666 -88 -39.999
s-33 -61.333 -33 -108v-490h-79z" />
    <glyph glyph-name="agrave" unicode="&#xe0;" horiz-adv-x="544" 
d="M400 87c-16.667 -31.333 -42.5 -54.998 -77.5 -70.998s-72.5 -24 -112.5 -24c-47.333 0 -87.666 13.167 -120.999 39.5s-50.666 62.833 -51.999 109.5c-1.33301 52.667 16.167 93.667 52.5 123s81.166 44 134.499 44c60.667 0 114.667 -13.333 162 -40v59
c0 36.667 -14.5 63 -43.5 79s-63.833 24 -104.5 24c-60 0 -110 -11.667 -150 -35l-13 60c49.333 25.333 107.666 38 174.999 38c61.333 0 112 -13.333 152 -40s60 -69.334 60 -128.001l-1 -201v-7v-16c0 -3.33301 0.166992 -7.83301 0.5 -13.5s0.833008 -9.5 1.5 -11.5
s1.66699 -5.33301 3 -10s2.83301 -7.5 4.5 -8.5s4 -3 7 -6s6.33301 -4.16699 10 -3.5s8 0.166992 13 -1.5s10.5 -1.16699 16.5 1.5l1 -51c-42 -6.66699 -72.167 -3.83398 -90.5 8.49902s-27.5 39.5 -27.5 81.5zM385 163.002l0.00195312 46c-46 26 -95.333 39 -148 39
c-34.667 0 -64.167 -9.16699 -88.5 -27.5s-35.833 -43.833 -34.5 -76.5c1.33301 -28.667 12.5 -50 33.5 -64s46.5 -21 76.5 -21c37.333 0 71.666 9 102.999 27s50.666 43.667 57.999 77zM312.002 587.002h-60l-75 94v7l66 26l69 -121v-6z" />
    <glyph glyph-name="aacute" unicode="&#xe1;" horiz-adv-x="544" 
d="M400 87c-16.667 -31.333 -42.5 -54.998 -77.5 -70.998s-72.5 -24 -112.5 -24c-47.333 0 -87.666 13.167 -120.999 39.5s-50.666 62.833 -51.999 109.5c-1.33301 52.667 16.167 93.667 52.5 123s81.166 44 134.499 44c60.667 0 114.667 -13.333 162 -40v59
c0 36.667 -14.5 63 -43.5 79s-63.833 24 -104.5 24c-60 0 -110 -11.667 -150 -35l-13 60c49.333 25.333 107.666 38 174.999 38c61.333 0 112 -13.333 152 -40s60 -69.334 60 -128.001l-1 -201v-7v-16c0 -3.33301 0.166992 -7.83301 0.5 -13.5s0.833008 -9.5 1.5 -11.5
s1.66699 -5.33301 3 -10s2.83301 -7.5 4.5 -8.5s4 -3 7 -6s6.33301 -4.16699 10 -3.5s8 0.166992 13 -1.5s10.5 -1.16699 16.5 1.5l1 -51c-42 -6.66699 -72.167 -3.83398 -90.5 8.49902s-27.5 39.5 -27.5 81.5zM385 163.002l0.00195312 46c-46 26 -95.333 39 -148 39
c-34.667 0 -64.167 -9.16699 -88.5 -27.5s-35.833 -43.833 -34.5 -76.5c1.33301 -28.667 12.5 -50 33.5 -64s46.5 -21 76.5 -21c37.333 0 71.666 9 102.999 27s50.666 43.667 57.999 77zM273.002 587.002h-62v6l71 124l68 -27v-6z" />
    <glyph glyph-name="acircumflex" unicode="&#xe2;" horiz-adv-x="544" 
d="M400 87c-16.667 -31.333 -42.5 -54.998 -77.5 -70.998s-72.5 -24 -112.5 -24c-47.333 0 -87.666 13.167 -120.999 39.5s-50.666 62.833 -51.999 109.5c-1.33301 52.667 16.167 93.667 52.5 123s81.166 44 134.499 44c60.667 0 114.667 -13.333 162 -40v59
c0 36.667 -14.5 63 -43.5 79s-63.833 24 -104.5 24c-60 0 -110 -11.667 -150 -35l-13 60c49.333 25.333 107.666 38 174.999 38c61.333 0 112 -13.333 152 -40s60 -69.334 60 -128.001l-1 -201v-7v-16c0 -3.33301 0.166992 -7.83301 0.5 -13.5s0.833008 -9.5 1.5 -11.5
s1.66699 -5.33301 3 -10s2.83301 -7.5 4.5 -8.5s4 -3 7 -6s6.33301 -4.16699 10 -3.5s8 0.166992 13 -1.5s10.5 -1.16699 16.5 1.5l1 -51c-42 -6.66699 -72.167 -3.83398 -90.5 8.49902s-27.5 39.5 -27.5 81.5zM385 163.002l0.00195312 46c-46 26 -95.333 39 -148 39
c-34.667 0 -64.167 -9.16699 -88.5 -27.5s-35.833 -43.833 -34.5 -76.5c1.33301 -28.667 12.5 -50 33.5 -64s46.5 -21 76.5 -21c37.333 0 71.666 9 102.999 27s50.666 43.667 57.999 77zM413.002 579.002h-70l-86 87l-87 -87h-71v8l122 126h70l122 -127v-7z" />
    <glyph glyph-name="atilde" unicode="&#xe3;" horiz-adv-x="544" 
d="M400 87c-16.667 -31.333 -42.5 -54.998 -77.5 -70.998s-72.5 -24 -112.5 -24c-47.333 0 -87.666 13.167 -120.999 39.5s-50.666 62.833 -51.999 109.5c-1.33301 52.667 16.167 93.667 52.5 123s81.166 44 134.499 44c60.667 0 114.667 -13.333 162 -40v59
c0 36.667 -14.5 63 -43.5 79s-63.833 24 -104.5 24c-60 0 -110 -11.667 -150 -35l-13 60c49.333 25.333 107.666 38 174.999 38c61.333 0 112 -13.333 152 -40s60 -69.334 60 -128.001l-1 -201v-7v-16c0 -3.33301 0.166992 -7.83301 0.5 -13.5s0.833008 -9.5 1.5 -11.5
s1.66699 -5.33301 3 -10s2.83301 -7.5 4.5 -8.5s4 -3 7 -6s6.33301 -4.16699 10 -3.5s8 0.166992 13 -1.5s10.5 -1.16699 16.5 1.5l1 -51c-42 -6.66699 -72.167 -3.83398 -90.5 8.49902s-27.5 39.5 -27.5 81.5zM385 163.002l0.00195312 46c-46 26 -95.333 39 -148 39
c-34.667 0 -64.167 -9.16699 -88.5 -27.5s-35.833 -43.833 -34.5 -76.5c1.33301 -28.667 12.5 -50 33.5 -64s46.5 -21 76.5 -21c37.333 0 71.666 9 102.999 27s50.666 43.667 57.999 77zM150.002 607.002c-4 2.66699 -10.667 6.33105 -20 10.998l-20 10
c16.667 34.667 38.334 56.667 65.001 66s58 4.33301 94 -15c42 -28.667 73.333 -22.667 94 18l19.5 -10l21.5 -11c-14.667 -33.333 -35.667 -55.166 -63 -65.499s-57.333 -6.16602 -90 12.501c-19.333 14 -37.833 20.333 -55.5 19s-32.834 -13 -45.501 -35z" />
    <glyph glyph-name="adieresis" unicode="&#xe4;" horiz-adv-x="544" 
d="M360 599c-14 0 -25.667 4.16699 -35 12.5s-14 19.166 -14 32.499c0 14 4.66699 25.167 14 33.5s21 12.5 35 12.5s25.667 -4.16699 35 -12.5s14 -19.5 14 -33.5c0 -13.333 -4.66699 -24.166 -14 -32.499s-21 -12.5 -35 -12.5zM157 599c-14 0 -25.667 4.16699 -35 12.5
s-14 19.166 -14 32.499c0 14 4.66699 25.167 14 33.5s21 12.5 35 12.5s25.833 -4.16699 35.5 -12.5s14.5 -19.5 14.5 -33.5c0 -13.333 -4.83301 -24.166 -14.5 -32.499s-21.5 -12.5 -35.5 -12.5zM400 87c-16.667 -31.333 -42.5 -54.998 -77.5 -70.998s-72.5 -24 -112.5 -24
c-47.333 0 -87.666 13.167 -120.999 39.5s-50.666 62.833 -51.999 109.5c-1.33301 52.667 16.167 93.667 52.5 123s81.166 44 134.499 44c60.667 0 114.667 -13.333 162 -40v59c0 36.667 -14.5 63 -43.5 79s-63.833 24 -104.5 24c-60 0 -110 -11.667 -150 -35l-13 60
c49.333 25.333 107.666 38 174.999 38c61.333 0 112 -13.333 152 -40s60 -69.334 60 -128.001l-1 -201v-7v-16c0 -3.33301 0.166992 -7.83301 0.5 -13.5s0.833008 -9.5 1.5 -11.5s1.66699 -5.33301 3 -10s2.83301 -7.5 4.5 -8.5s4 -3 7 -6s6.33301 -4.16699 10 -3.5
s8 0.166992 13 -1.5s10.5 -1.16699 16.5 1.5l1 -51c-42 -6.66699 -72.167 -3.83398 -90.5 8.49902s-27.5 39.5 -27.5 81.5zM385 163.002l0.00195312 46c-46 26 -95.333 39 -148 39c-34.667 0 -64.167 -9.16699 -88.5 -27.5s-35.833 -43.833 -34.5 -76.5
c1.33301 -28.667 12.5 -50 33.5 -64s46.5 -21 76.5 -21c37.333 0 71.666 9 102.999 27s50.666 43.667 57.999 77z" />
    <glyph glyph-name="aring" unicode="&#xe5;" horiz-adv-x="544" 
d="M400 87c-16.667 -31.333 -42.5 -54.998 -77.5 -70.998s-72.5 -24 -112.5 -24c-47.333 0 -87.666 13.167 -120.999 39.5s-50.666 62.833 -51.999 109.5c-1.33301 52.667 16.167 93.667 52.5 123s81.166 44 134.499 44c60.667 0 114.667 -13.333 162 -40v59
c0 36.667 -14.5 63 -43.5 79s-63.833 24 -104.5 24c-60 0 -110 -11.667 -150 -35l-13 60c49.333 25.333 107.666 38 174.999 38c61.333 0 112 -13.333 152 -40s60 -69.334 60 -128.001l-1 -201v-7v-16c0 -3.33301 0.166992 -7.83301 0.5 -13.5s0.833008 -9.5 1.5 -11.5
s1.66699 -5.33301 3 -10s2.83301 -7.5 4.5 -8.5s4 -3 7 -6s6.33301 -4.16699 10 -3.5s8 0.166992 13 -1.5s10.5 -1.16699 16.5 1.5l1 -51c-42 -6.66699 -72.167 -3.83398 -90.5 8.49902s-27.5 39.5 -27.5 81.5zM385 163.002l0.00195312 46c-46 26 -95.333 39 -148 39
c-34.667 0 -64.167 -9.16699 -88.5 -27.5s-35.833 -43.833 -34.5 -76.5c1.33301 -28.667 12.5 -50 33.5 -64s46.5 -21 76.5 -21c37.333 0 71.666 9 102.999 27s50.666 43.667 57.999 77zM379.002 652.002c0 -29.333 -11.332 -52.333 -33.999 -69s-47.667 -25 -75 -25
s-52.333 8.33301 -75 25s-34 39.667 -34 69c0 23.333 7.5 42.833 22.5 58.5s33.167 25.334 54.5 29.001s42.666 3.66699 63.999 0s39.5 -13.334 54.5 -29.001s22.5 -35.167 22.5 -58.5zM206.003 652.002c0 -22.667 10.667 -38.667 32 -48s42.5 -9.33301 63.5 0
s31.5 25.333 31.5 48c0 22 -10.5 37.5 -31.5 46.5s-42.167 9 -63.5 0s-32 -24.5 -32 -46.5z" />
    <glyph glyph-name="ae" unicode="&#xe6;" horiz-adv-x="836" 
d="M204 -9c-45.333 0 -84.334 13.1689 -117.001 39.502s-49 61.833 -49 106.5c-1.33301 48.667 13 87.334 43 116.001s68.667 45 116 49c24 1.33301 44.333 0.666016 61 -2.00098c45.333 -6 84 -17.667 116 -35v57c0 37.333 -14.667 64.666 -44 81.999s-64 26 -104 26
c-53.333 0 -99.666 -11.333 -138.999 -34l-13 55c48.667 26.667 103 40 163 40c46.667 0 87.167 -9.33301 121.5 -28s54.5 -47.667 60.5 -87c14.667 36.667 37.5 65 68.5 85s67.167 30 108.5 30c75.333 0 129.5 -24.667 162.5 -74s42.5 -111 28.5 -185h-346
c0 -56 14.333 -99.833 43 -131.5s69 -47.834 121 -48.501c49.333 -2.66699 100.666 8.33301 153.999 33l13 -58c-60.667 -25.333 -116.334 -38 -167.001 -38c-91.333 1.33301 -154.666 35.333 -189.999 102c-47.333 -66.667 -117.666 -100 -210.999 -100zM374.999 202.002
c-42.667 26.667 -90.668 39.999 -144.001 39.999c-34.667 0 -63.167 -8.66699 -85.5 -26s-32.833 -42.333 -31.5 -75c0.666992 -28.667 10.834 -50.167 30.501 -64.5s44.5 -21.833 74.5 -22.5c35.333 0 68.833 8.83301 100.5 26.5s53.167 41.834 64.5 72.501
c-5.33301 18 -8.33301 34.333 -9 49zM590.998 429.001c-41.333 0.666992 -74.5 -11.168 -99.5 -35.501s-40.833 -58.166 -47.5 -101.499h281c2 42 -9.16699 75.333 -33.5 100s-57.833 37 -100.5 37z" />
    <glyph glyph-name="ccedilla" unicode="&#xe7;" horiz-adv-x="569" 
d="M261 -76l17.999 68.9961c-63.333 4.66699 -118.166 29 -164.499 73s-69.5 103 -69.5 177c0 47.333 10.333 89.333 31 126s47 64.667 79 84s67.333 31.833 106 37.5s75.667 3.83398 111 -5.49902s67.166 -27 95.499 -53s47.833 -58.333 58.5 -97h-77
c-15.333 35.333 -41.166 60.333 -77.499 75s-72.666 18.334 -108.999 11.001s-68.5 -26.833 -96.5 -58.5s-42 -71.5 -42 -119.5c0 -39.333 9.33301 -73.666 28 -102.999s42.167 -49.833 70.5 -61.5s57.5 -17.334 87.5 -17.001s58.333 9.5 85 27.5s46 42.333 58 73h78
c-12.667 -47.333 -36.667 -85.5 -72 -114.5s-76 -46.5 -122 -52.5l-12 -47c32 -1.33301 55.5 -12.666 70.5 -33.999s18.5 -45.666 10.5 -72.999c-8.66699 -25.333 -25.834 -43.5 -51.501 -54.5s-53 -14.333 -82 -10s-53.833 14.166 -74.5 29.499l4 48
c20 -18 46.167 -28 78.5 -30s53.5 8.66699 63.5 32c7.33301 22.667 0.833008 40.334 -19.5 53.001s-41.5 17.667 -63.5 15z" />
    <glyph glyph-name="egrave" unicode="&#xe8;" horiz-adv-x="554" 
d="M292 493c81.333 -0.666992 140.666 -24.167 177.999 -70.5s49.333 -109.5 36 -189.5h-383c-2.66699 -54 14.666 -97.333 51.999 -130s84 -49 140 -49c52 0 106.333 11.667 163 35l12 -59c-58 -27.333 -117 -41 -177 -41c-81.333 0 -147 24 -197 72
s-73.667 112.333 -71 193c2.66699 74 27.334 132.333 74.001 175s104.334 64 173.001 64zM292 431c-44.667 0 -81.832 -12.168 -111.499 -36.501s-47.834 -58.166 -54.501 -101.499h314c2.66699 44 -10 78 -38 102s-64.667 36 -110 36zM336.002 590.999h-62l-76 96v7l68 27
l70 -124v-6z" />
    <glyph glyph-name="eacute" unicode="&#xe9;" horiz-adv-x="554" 
d="M292 493c81.333 -0.666992 140.666 -24.167 177.999 -70.5s49.333 -109.5 36 -189.5h-383c-2.66699 -54 14.666 -97.333 51.999 -130s84 -49 140 -49c52 0 106.333 11.667 163 35l12 -59c-58 -27.333 -117 -41 -177 -41c-81.333 0 -147 24 -197 72
s-73.667 112.333 -71 193c2.66699 74 27.334 132.333 74.001 175s104.334 64 173.001 64zM292 431c-44.667 0 -81.832 -12.168 -111.499 -36.501s-47.834 -58.166 -54.501 -101.499h314c2.66699 44 -10 78 -38 102s-64.667 36 -110 36zM306.002 591.999h-62v7l70 122l67 -27
v-6z" />
    <glyph glyph-name="ecircumflex" unicode="&#xea;" horiz-adv-x="554" 
d="M292 493c81.333 -0.666992 140.666 -24.167 177.999 -70.5s49.333 -109.5 36 -189.5h-383c-2.66699 -54 14.666 -97.333 51.999 -130s84 -49 140 -49c52 0 106.333 11.667 163 35l12 -59c-58 -27.333 -117 -41 -177 -41c-81.333 0 -147 24 -197 72
s-73.667 112.333 -71 193c2.66699 74 27.334 132.333 74.001 175s104.334 64 173.001 64zM292 431c-44.667 0 -81.832 -12.168 -111.499 -36.501s-47.834 -58.166 -54.501 -101.499h314c2.66699 44 -10 78 -38 102s-64.667 36 -110 36zM455.002 577.999h-74l-90 85l-91 -85
h-75v8l129 122h73l128 -123v-7z" />
    <glyph glyph-name="edieresis" unicode="&#xeb;" horiz-adv-x="554" 
d="M389 608c-13.333 0 -24.333 3.99902 -33 11.999s-13 18 -13 30c0 12.667 4.33301 22.834 13 30.501s19.667 11.5 33 11.5c12.667 0 23.334 -4 32.001 -12s13 -18 13 -30s-4.33301 -22 -13 -30s-19.334 -12 -32.001 -12zM183 607.999
c-12.667 0 -23.334 4.00098 -32.001 12.001s-13 18 -13 30s4.33301 22 13 30s19.334 12 32.001 12c13.333 0 24.5 -3.83301 33.5 -11.5s13.5 -17.834 13.5 -30.501c0 -12 -4.5 -22 -13.5 -30s-20.167 -12 -33.5 -12zM292 493
c81.333 -0.666992 140.666 -24.167 177.999 -70.5s49.333 -109.5 36 -189.5h-383c-2.66699 -54 14.666 -97.333 51.999 -130s84 -49 140 -49c52 0 106.333 11.667 163 35l12 -59c-58 -27.333 -117 -41 -177 -41c-81.333 0 -147 24 -197 72s-73.667 112.333 -71 193
c2.66699 74 27.334 132.333 74.001 175s104.334 64 173.001 64zM292 431c-44.667 0 -81.832 -12.168 -111.499 -36.501s-47.834 -58.166 -54.501 -101.499h314c2.66699 44 -10 78 -38 102s-64.667 36 -110 36z" />
    <glyph glyph-name="igrave" unicode="&#xec;" horiz-adv-x="235" 
d="M157 481v-481h-79v481h79zM160 584h-64l-78 100v6l70 28l72 -127v-7z" />
    <glyph glyph-name="iacute" unicode="&#xed;" horiz-adv-x="235" 
d="M157 481v-481h-79v481h79zM139 585h-63v6l71 127l69 -28v-7z" />
    <glyph glyph-name="icircumflex" unicode="&#xee;" horiz-adv-x="235" 
d="M157 481v-481h-79v481h79zM266 567h-66l-83 94l-83 -94h-68v8l117 137h67l116 -138v-7z" />
    <glyph glyph-name="idieresis" unicode="&#xef;" horiz-adv-x="235" 
d="M203 618c-14 0 -25.667 4.16699 -35 12.5s-14 19.166 -14 32.499c0 14 4.66699 25.167 14 33.5s21 12.5 35 12.5s25.667 -4.16699 35 -12.5s14 -19.5 14 -33.5c0 -13.333 -4.66699 -24.166 -14 -32.499s-21 -12.5 -35 -12.5zM28 618c-14 0 -25.667 4.16699 -35 12.5
s-14 19.166 -14 32.499c0 14 4.66699 25.167 14 33.5s21 12.5 35 12.5s25.833 -4.16699 35.5 -12.5s14.5 -19.5 14.5 -33.5c0 -13.333 -4.83301 -24.166 -14.5 -32.499s-21.5 -12.5 -35.5 -12.5zM157 481v-481h-79v481h79z" />
    <glyph glyph-name="eth" unicode="&#xf0;" horiz-adv-x="593" 
d="M46 235c0 73.333 24 130.664 72 171.997s105.333 62.666 172 63.999c28 0 56.667 -5.5 86 -16.5s51.666 -25.833 66.999 -44.5c-14.667 38.667 -51 90.667 -109 156l-64 -44l-22 32l61 43c-35.333 40.667 -70.666 72.334 -105.999 95.001v4h70
c29.333 -19.333 56.666 -41.666 81.999 -66.999l63 45l22 -32l-57 -42c49.333 -54 88.833 -112.667 118.5 -176s44.5 -126.333 44.5 -189c0.666992 -34.667 -4.66602 -66.5 -15.999 -95.5s-26.5 -53 -45.5 -72s-41 -35.167 -66 -48.5s-51.333 -21.666 -79 -24.999
s-55.5 -3.66602 -83.5 -0.999023s-54.5 10.5 -79.5 23.5s-47.333 29 -67 48s-35.167 43.333 -46.5 73s-17 62.167 -17 97.5zM473 234.998c0 31.333 -6.33301 59.333 -19 84s-29.334 43.334 -50.001 56.001s-43.5 22 -68.5 28s-49.833 6 -74.5 0s-47.334 -15.333 -68.001 -28
s-37.334 -31.334 -50.001 -56.001s-19 -52.667 -19 -84c0 -32 6.33301 -60.667 19 -86s29.334 -44.5 50.001 -57.5s43.334 -22.5 68.001 -28.5s49.5 -6 74.5 0s47.833 15.5 68.5 28.5s37.334 32.167 50.001 57.5s19 54 19 86z" />
    <glyph glyph-name="ntilde" unicode="&#xf1;" 
d="M528 0h-79v286c0 42.667 -12.5 76.834 -37.5 102.501s-57.5 38.5 -97.5 38.5c-41.333 0 -75.666 -13 -102.999 -39s-41 -59 -41 -99v-289h-78v344c0 34 -3.16699 56 -9.5 66s-21.833 13.667 -46.5 11l-1 62c13.333 2 23.166 3.33301 29.499 4s15.833 1.16699 28.5 1.5
s22.167 -1 28.5 -4s13.5 -7.16699 21.5 -12.5s13.667 -13.333 17 -24s5 -23.334 5 -38.001c36 54.667 92.667 82 170 82c61.333 0 108.833 -19 142.5 -57s50.5 -87.667 50.5 -149v-286zM193 610c-4 2.66699 -10.668 6.33203 -20.001 10.999l-20 10
c16.667 35.333 38.5 57.833 65.5 67.5s58.833 4.5 95.5 -15.5c18.667 -14 36.334 -20 53.001 -18s31 14 43 36l40 -21c-14.667 -34.667 -35.667 -57.167 -63 -67.5s-58 -5.83301 -92 13.5c-45.333 28.667 -79.333 23.334 -102 -15.999z" />
    <glyph glyph-name="ograve" unicode="&#xf2;" 
d="M553 242c0 -40 -7.33301 -76.333 -22 -109s-33.834 -59 -57.501 -79s-50.667 -35.5 -81 -46.5s-61.5 -16.5 -93.5 -16.5s-63.167 5.5 -93.5 16.5s-57.333 26.5 -81 46.5s-42.834 46.167 -57.501 78.5s-22 68.833 -22 109.5s7.33301 77.334 22 110.001
s33.834 59 57.501 79s50.667 35.5 81 46.5s61.5 16.5 93.5 16.5s63.167 -5.5 93.5 -16.5s57.333 -26.5 81 -46.5s42.834 -46.333 57.501 -79s22 -69.334 22 -110.001zM124 242c0 -39.333 8.66699 -73.333 26 -102s39 -49.5 65 -62.5s54.167 -19.5 84.5 -19.5
s58.5 6.5 84.5 19.5s47.667 33.833 65 62.5s26 62.667 26 102s-8.66699 73.333 -26 102s-39 49.334 -65 62.001s-54.167 19 -84.5 19s-58.5 -6.33301 -84.5 -19s-47.667 -33.334 -65 -62.001s-26 -62.667 -26 -102zM336 583h-61l-75 95v6l67 27l69 -122v-6z" />
    <glyph glyph-name="oacute" unicode="&#xf3;" 
d="M553 242c0 -40 -7.33301 -76.333 -22 -109s-33.834 -59 -57.501 -79s-50.667 -35.5 -81 -46.5s-61.5 -16.5 -93.5 -16.5s-63.167 5.5 -93.5 16.5s-57.333 26.5 -81 46.5s-42.834 46.167 -57.501 78.5s-22 68.833 -22 109.5s7.33301 77.334 22 110.001
s33.834 59 57.501 79s50.667 35.5 81 46.5s61.5 16.5 93.5 16.5s63.167 -5.5 93.5 -16.5s57.333 -26.5 81 -46.5s42.834 -46.333 57.501 -79s22 -69.334 22 -110.001zM124 242c0 -39.333 8.66699 -73.333 26 -102s39 -49.5 65 -62.5s54.167 -19.5 84.5 -19.5
s58.5 6.5 84.5 19.5s47.667 33.833 65 62.5s26 62.667 26 102s-8.66699 73.333 -26 102s-39 49.334 -65 62.001s-54.167 19 -84.5 19s-58.5 -6.33301 -84.5 -19s-47.667 -33.334 -65 -62.001s-26 -62.667 -26 -102zM323 585h-62v7l70 122l67 -27v-6z" />
    <glyph glyph-name="ocircumflex" unicode="&#xf4;" 
d="M553 242c0 -40 -7.33301 -76.333 -22 -109s-33.834 -59 -57.501 -79s-50.667 -35.5 -81 -46.5s-61.5 -16.5 -93.5 -16.5s-63.167 5.5 -93.5 16.5s-57.333 26.5 -81 46.5s-42.834 46.167 -57.501 78.5s-22 68.833 -22 109.5s7.33301 77.334 22 110.001
s33.834 59 57.501 79s50.667 35.5 81 46.5s61.5 16.5 93.5 16.5s63.167 -5.5 93.5 -16.5s57.333 -26.5 81 -46.5s42.834 -46.333 57.501 -79s22 -69.334 22 -110.001zM124 242c0 -39.333 8.66699 -73.333 26 -102s39 -49.5 65 -62.5s54.167 -19.5 84.5 -19.5
s58.5 6.5 84.5 19.5s47.667 33.833 65 62.5s26 62.667 26 102s-8.66699 73.333 -26 102s-39 49.334 -65 62.001s-54.167 19 -84.5 19s-58.5 -6.33301 -84.5 -19s-47.667 -33.334 -65 -62.001s-26 -62.667 -26 -102zM461 572h-72l-90 87l-90 -87h-74v8l127 126h73l126 -127
v-7z" />
    <glyph glyph-name="otilde" unicode="&#xf5;" 
d="M553 242c0 -40 -7.33301 -76.333 -22 -109s-33.834 -59 -57.501 -79s-50.667 -35.5 -81 -46.5s-61.5 -16.5 -93.5 -16.5s-63.167 5.5 -93.5 16.5s-57.333 26.5 -81 46.5s-42.834 46.167 -57.501 78.5s-22 68.833 -22 109.5s7.33301 77.334 22 110.001
s33.834 59 57.501 79s50.667 35.5 81 46.5s61.5 16.5 93.5 16.5s63.167 -5.5 93.5 -16.5s57.333 -26.5 81 -46.5s42.834 -46.333 57.501 -79s22 -69.334 22 -110.001zM124 242c0 -39.333 8.66699 -73.333 26 -102s39 -49.5 65 -62.5s54.167 -19.5 84.5 -19.5
s58.5 6.5 84.5 19.5s47.667 33.833 65 62.5s26 62.667 26 102s-8.66699 73.333 -26 102s-39 49.334 -65 62.001s-54.167 19 -84.5 19s-58.5 -6.33301 -84.5 -19s-47.667 -33.334 -65 -62.001s-26 -62.667 -26 -102zM189 609l-20.001 9.99805
c-9.33301 4.66699 -16 8.33398 -20 11.001c16.667 35.333 38.5 57.833 65.5 67.5s58.833 4.5 95.5 -15.5c18.667 -14 36.334 -20 53.001 -18s31 14 43 36l40 -21c-14.667 -34.667 -35.667 -57.167 -63 -67.5s-58 -5.83301 -92 13.5
c-45.333 28.667 -79.333 23.334 -102 -15.999z" />
    <glyph glyph-name="odieresis" unicode="&#xf6;" 
d="M395 608c-13.333 0 -24.333 3.99902 -33 11.999s-13 18 -13 30c0 12.667 4.33301 22.834 13 30.501s19.667 11.5 33 11.5c12.667 0 23.334 -4 32.001 -12s13 -18 13 -30s-4.33301 -22 -13 -30s-19.334 -12 -32.001 -12zM196 607.999
c-12.667 0 -23.334 4.00098 -32.001 12.001s-13 18 -13 30s4.33301 22 13 30s19.334 12 32.001 12c13.333 0 24.5 -3.83301 33.5 -11.5s13.5 -17.834 13.5 -30.501c0 -12 -4.5 -22 -13.5 -30s-20.167 -12 -33.5 -12zM553 242c0 -40 -7.33301 -76.333 -22 -109
s-33.834 -59 -57.501 -79s-50.667 -35.5 -81 -46.5s-61.5 -16.5 -93.5 -16.5s-63.167 5.5 -93.5 16.5s-57.333 26.5 -81 46.5s-42.834 46.167 -57.501 78.5s-22 68.833 -22 109.5s7.33301 77.334 22 110.001s33.834 59 57.501 79s50.667 35.5 81 46.5s61.5 16.5 93.5 16.5
s63.167 -5.5 93.5 -16.5s57.333 -26.5 81 -46.5s42.834 -46.333 57.501 -79s22 -69.334 22 -110.001zM124 242c0 -39.333 8.66699 -73.333 26 -102s39 -49.5 65 -62.5s54.167 -19.5 84.5 -19.5s58.5 6.5 84.5 19.5s47.667 33.833 65 62.5s26 62.667 26 102
s-8.66699 73.333 -26 102s-39 49.334 -65 62.001s-54.167 19 -84.5 19s-58.5 -6.33301 -84.5 -19s-47.667 -33.334 -65 -62.001s-26 -62.667 -26 -102z" />
    <glyph glyph-name="divide" unicode="&#xf7;" horiz-adv-x="544" 
d="M271 150c-14 0 -25.667 4.16699 -35 12.5s-14 19.166 -14 32.499c0 14 4.66699 25.167 14 33.5s21 12.5 35 12.5s25.833 -4.33301 35.5 -13s14.5 -19.667 14.5 -33s-4.83301 -24.166 -14.5 -32.499s-21.5 -12.5 -35.5 -12.5zM271 477c-14 0 -25.667 4.16699 -35 12.5
s-14 19.166 -14 32.499c0 14 4.66699 25.167 14 33.5s21 12.5 35 12.5s25.833 -4.33301 35.5 -13s14.5 -19.667 14.5 -33s-4.83301 -24.166 -14.5 -32.499s-21.5 -12.5 -35.5 -12.5zM77 324v69h390v-69h-390z" />
    <glyph glyph-name="oslash" unicode="&#xf8;" horiz-adv-x="597" 
d="M553 243c0 -39.333 -7.00098 -75.1699 -21.001 -107.503s-32.5 -58.166 -55.5 -77.499s-49.167 -35.166 -78.5 -47.499s-59.666 -18.166 -90.999 -17.499s-62 5 -92 13l-31 -62h-64l43 85c-78.667 45.333 -118 116.666 -118 213.999c0 40 7.16699 76.333 21.5 109
s33.333 58.667 57 78s50.667 34.833 81 46.5s61.333 16.834 93 15.501s62.5 -6.33301 92.5 -15l34 67h64l-46 -91c74 -46 111 -116 111 -210zM119.999 242.996c0 -67.333 26.667 -116.333 80 -147l161 318c-54.667 20 -108.5 14 -161.5 -18s-79.5 -83 -79.5 -153z
M476.999 242.996c0 64 -24.332 111.333 -72.999 142l-160 -316c25.333 -8.66699 51.666 -10.5 78.999 -5.5s52.5 13.833 75.5 26.5s41.833 32.5 56.5 59.5s22 58.167 22 93.5z" />
    <glyph glyph-name="ugrave" unicode="&#xf9;" horiz-adv-x="587" 
d="M417 482l78.001 -0.00195312v-353c0 -35.333 3.33301 -57.5 10 -66.5s22.334 -12.167 47.001 -9.5l1 -54c-43.333 -7.33301 -76.333 -6.16602 -99 3.50098s-33 33.834 -31 72.501c-30.667 -55.333 -88 -83 -172 -83c-61.333 0 -106.833 19 -136.5 57
s-44.5 88.667 -44.5 152v281h79v-281c-0.666992 -44.667 10.166 -80 32.499 -106s53.166 -39 92.499 -39c42.667 0 77.167 13.167 103.5 39.5s39.5 61.833 39.5 106.5v280zM331.001 586.998h-63l-77 98v7l69 27l71 -125v-7z" />
    <glyph glyph-name="uacute" unicode="&#xfa;" horiz-adv-x="587" 
d="M417 482l78.001 -0.00195312v-353c0 -35.333 3.33301 -57.5 10 -66.5s22.334 -12.167 47.001 -9.5l1 -54c-43.333 -7.33301 -76.333 -6.16602 -99 3.50098s-33 33.834 -31 72.501c-30.667 -55.333 -88 -83 -172 -83c-61.333 0 -106.833 19 -136.5 57
s-44.5 88.667 -44.5 152v281h79v-281c-0.666992 -44.667 10.166 -80 32.499 -106s53.166 -39 92.499 -39c42.667 0 77.167 13.167 103.5 39.5s39.5 61.833 39.5 106.5v280zM304.001 583.998h-62v6l71 124l68 -27v-6z" />
    <glyph glyph-name="ucircumflex" unicode="&#xfb;" horiz-adv-x="587" 
d="M417 482l78.001 -0.00195312v-353c0 -35.333 3.33301 -57.5 10 -66.5s22.334 -12.167 47.001 -9.5l1 -54c-43.333 -7.33301 -76.333 -6.16602 -99 3.50098s-33 33.834 -31 72.501c-30.667 -55.333 -88 -83 -172 -83c-61.333 0 -106.833 19 -136.5 57
s-44.5 88.667 -44.5 152v281h79v-281c-0.666992 -44.667 10.166 -80 32.499 -106s53.166 -39 92.499 -39c42.667 0 77.167 13.167 103.5 39.5s39.5 61.833 39.5 106.5v280zM455.001 577.998h-76l-93 87l-94 -87h-77v7l132 126h76l132 -127v-6z" />
    <glyph glyph-name="udieresis" unicode="&#xfc;" horiz-adv-x="587" 
d="M417 482l78.001 -0.00195312v-353c0 -35.333 3.33301 -57.5 10 -66.5s22.334 -12.167 47.001 -9.5l1 -54c-43.333 -7.33301 -76.333 -6.16602 -99 3.50098s-33 33.834 -31 72.501c-30.667 -55.333 -88 -83 -172 -83c-61.333 0 -106.833 19 -136.5 57
s-44.5 88.667 -44.5 152v281h79v-281c-0.666992 -44.667 10.166 -80 32.499 -106s53.166 -39 92.499 -39c42.667 0 77.167 13.167 103.5 39.5s39.5 61.833 39.5 106.5v280zM392.001 599.998c-14 0 -25.5 4 -34.5 12s-13.5 18.667 -13.5 32s4.5 24 13.5 32s20.5 12 34.5 12
s25.5 -4 34.5 -12s13.5 -18.667 13.5 -32s-4.5 -24 -13.5 -32s-20.5 -12 -34.5 -12zM163.001 599.998c-14 0 -25.5 4 -34.5 12s-13.5 18.667 -13.5 32s4.5 24 13.5 32s20.5 12 34.5 12s25.667 -4 35 -12s14 -18.667 14 -32s-4.66699 -24 -14 -32s-21 -12 -35 -12z" />
    <glyph glyph-name="yacute" unicode="&#xfd;" horiz-adv-x="547" 
d="M518 473l-212.002 -507l-24 -55.5c-5.33301 -12.333 -13.5 -29.166 -24.5 -50.499s-20.833 -37 -29.5 -47s-20 -21 -34 -33s-28.167 -19.5 -42.5 -22.5s-31.166 -3.5 -50.499 -1.5s-40 7.66699 -62 17l11 58c42 -19.333 74.833 -19.833 98.5 -1.5
s44.834 51.166 63.501 98.499l28 68l-221 477v8h83l96 -214l79 -191h1l73 189l88 216h79v-8zM294.998 579h-66v7l75 132l72 -29v-7z" />
    <glyph glyph-name="thorn" unicode="&#xfe;" horiz-adv-x="583" 
d="M537 245c0 -52.667 -11.502 -98.5 -34.502 -137.5s-52.5 -67.667 -88.5 -86s-77.167 -25.833 -123.5 -22.5s-91.833 18.666 -136.5 45.999v-292h-78v966h78v-274c44.667 28 90.334 43.667 137.001 47s87.834 -4.16699 123.501 -22.5s65 -47.166 88 -86.499
s34.5 -85.333 34.5 -138zM457.998 245c0 57.333 -16.167 102.17 -48.5 134.503s-72.333 47.666 -120 45.999s-93.167 -19.167 -136.5 -52.5v-256c43.333 -33.333 88.833 -50.833 136.5 -52.5s87.667 13.666 120 45.999s48.5 77.166 48.5 134.499z" />
    <glyph glyph-name="ydieresis" unicode="&#xff;" horiz-adv-x="547" 
d="M518 473l-212.002 -507l-24 -55.5c-5.33301 -12.333 -13.5 -29.166 -24.5 -50.499s-20.833 -37 -29.5 -47s-20 -21 -34 -33s-28.167 -19.5 -42.5 -22.5s-31.166 -3.5 -50.499 -1.5s-40 7.66699 -62 17l11 58c42 -19.333 74.833 -19.833 98.5 -1.5
s44.834 51.166 63.501 98.499l28 68l-221 477v8h83l96 -214l79 -191h1l73 189l88 216h79v-8zM393.998 602c-14 0 -25.667 4.16699 -35 12.5s-14 19.166 -14 32.499c0 14 4.66699 25.167 14 33.5s21 12.5 35 12.5s25.667 -4.16699 35 -12.5s14 -19.5 14 -33.5
c0 -13.333 -4.66699 -24.166 -14 -32.499s-21 -12.5 -35 -12.5zM158.998 602c-14 0 -25.667 4.16699 -35 12.5s-14 19.166 -14 32.499c0 14 4.66699 25.167 14 33.5s21 12.5 35 12.5s25.833 -4.16699 35.5 -12.5s14.5 -19.5 14.5 -33.5
c0 -13.333 -4.83301 -24.166 -14.5 -32.499s-21.5 -12.5 -35.5 -12.5z" />
    <glyph glyph-name="Amacron" unicode="&#x100;" horiz-adv-x="706" 
d="M528 173h-350l-82 -173h-87v11l326 692h38l323 -692v-11h-86zM353 572l-147 -327h294zM199 770v61h297v-61h-297z" />
    <glyph glyph-name="amacron" unicode="&#x101;" horiz-adv-x="544" 
d="M400 87c-16.667 -31.333 -42.5 -54.998 -77.5 -70.998s-72.5 -24 -112.5 -24c-47.333 0 -87.666 13.167 -120.999 39.5s-50.666 62.833 -51.999 109.5c-1.33301 52.667 16.167 93.667 52.5 123s81.166 44 134.499 44c60.667 0 114.667 -13.333 162 -40v59
c0 36.667 -14.5 63 -43.5 79s-63.833 24 -104.5 24c-60 0 -110 -11.667 -150 -35l-13 60c49.333 25.333 107.666 38 174.999 38c61.333 0 112 -13.333 152 -40s60 -69.334 60 -128.001l-1 -201v-7v-16c0 -3.33301 0.166992 -7.83301 0.5 -13.5s0.833008 -9.5 1.5 -11.5
s1.66699 -5.33301 3 -10s2.83301 -7.5 4.5 -8.5s4 -3 7 -6s6.33301 -4.16699 10 -3.5s8 0.166992 13 -1.5s10.5 -1.16699 16.5 1.5l1 -51c-42 -6.66699 -72.167 -3.83398 -90.5 8.49902s-27.5 39.5 -27.5 81.5zM385 163.002l0.00195312 46c-46 26 -95.333 39 -148 39
c-34.667 0 -64.167 -9.16699 -88.5 -27.5s-35.833 -43.833 -34.5 -76.5c1.33301 -28.667 12.5 -50 33.5 -64s46.5 -21 76.5 -21c37.333 0 71.666 9 102.999 27s50.666 43.667 57.999 77zM112.002 612.002v61h297v-61h-297z" />
    <glyph glyph-name="Abreve" unicode="&#x102;" horiz-adv-x="706" 
d="M528 173h-350l-82 -173h-87v11l326 692h38l323 -692v-11h-86zM353 572l-147 -327h294zM181 897l68.0049 -0.00292969c4 -19.333 13.167 -35.333 27.5 -48s30.666 -20.5 48.999 -23.5s36.833 -3 55.5 0s35.167 11 49.5 24s23.166 28.833 26.499 47.5h68
c-4 -35.333 -17.833 -64.833 -41.5 -88.5s-51.334 -38.167 -83.001 -43.5s-63.334 -5.16602 -95.001 0.500977s-59.334 20.334 -83.001 44.001s-37.5 52.834 -41.5 87.501z" />
    <glyph glyph-name="abreve" unicode="&#x103;" horiz-adv-x="544" 
d="M400 87c-16.667 -31.333 -42.5 -54.998 -77.5 -70.998s-72.5 -24 -112.5 -24c-47.333 0 -87.666 13.167 -120.999 39.5s-50.666 62.833 -51.999 109.5c-1.33301 52.667 16.167 93.667 52.5 123s81.166 44 134.499 44c60.667 0 114.667 -13.333 162 -40v59
c0 36.667 -14.5 63 -43.5 79s-63.833 24 -104.5 24c-60 0 -110 -11.667 -150 -35l-13 60c49.333 25.333 107.666 38 174.999 38c61.333 0 112 -13.333 152 -40s60 -69.334 60 -128.001l-1 -201v-7v-16c0 -3.33301 0.166992 -7.83301 0.5 -13.5s0.833008 -9.5 1.5 -11.5
s1.66699 -5.33301 3 -10s2.83301 -7.5 4.5 -8.5s4 -3 7 -6s6.33301 -4.16699 10 -3.5s8 0.166992 13 -1.5s10.5 -1.16699 16.5 1.5l1 -51c-42 -6.66699 -72.167 -3.83398 -90.5 8.49902s-27.5 39.5 -27.5 81.5zM385 163.002l0.00195312 46c-46 26 -95.333 39 -148 39
c-34.667 0 -64.167 -9.16699 -88.5 -27.5s-35.833 -43.833 -34.5 -76.5c1.33301 -28.667 12.5 -50 33.5 -64s46.5 -21 76.5 -21c37.333 0 71.666 9 102.999 27s50.666 43.667 57.999 77zM102.002 717.002l62 -0.000976562c6.66699 -29.333 24.334 -50 53.001 -62
s57.167 -12.167 85.5 -0.5s45.166 32.5 50.499 62.5h63c-4 -41.333 -22 -73.666 -54 -96.999s-66.5 -34.833 -103.5 -34.5s-71.333 12 -103 35s-49.5 55.167 -53.5 96.5z" />
    <glyph glyph-name="Aogonek" unicode="&#x104;" horiz-adv-x="706" 
d="M353 564l-147 -319h294zM528 173l-350.002 0.000976562l-82 -173h-87v11l185.5 396.5l140.5 295.5h38l323 -692v-11c-27.333 -8 -49.666 -21.5 -66.999 -40.5s-20 -41.5 -8 -67.5c8 -14.667 19.333 -23.834 34 -27.501s28.667 -3.66699 42 0s27.333 9.83398 42 18.501
l9 -52c-20.667 -12 -43.167 -20.167 -67.5 -24.5s-48.166 -2.33301 -71.499 6s-40 24.166 -50 47.499c-22 50 -5.33301 97.333 50 142z" />
    <glyph glyph-name="aogonek" unicode="&#x105;" horiz-adv-x="543" 
d="M384 158l0.00488281 54.001c-46 26 -95.333 39 -148 39c-34 0 -63.333 -9.83301 -88 -29.5s-36.334 -45.5 -35.001 -77.5c1.33301 -28.667 12.666 -50.834 33.999 -66.501s46.666 -23.5 75.999 -23.5c37.333 0 71.666 9 102.999 27s50.666 43.667 57.999 77z
M399.005 87.001c-16.667 -31.333 -42.4961 -54.999 -77.4961 -70.999s-72.5 -24 -112.5 -24c-46.667 0 -86.834 13.167 -120.501 39.5s-51.167 62.166 -52.5 107.499c-1.33301 52.667 16.167 93.5 52.5 122.5s81.166 43.5 134.499 43.5c60.667 0 114.667 -13.333 162 -40v62
c0 36.667 -14.667 63.334 -44 80.001s-64 25 -104 25c-60 0 -110 -11.667 -150 -35l-13 58c49.333 25.333 107.666 38 174.999 38c61.333 0 112 -13.333 152 -40s60 -69.334 60 -128.001l-1 -204v-7v-16c0 -3.33301 0.166992 -7.83301 0.5 -13.5s0.833008 -9.5 1.5 -11.5
s1.66699 -5.33301 3 -10s2.83301 -7.5 4.5 -8.5s4 -3 7 -6s6.33301 -4.16699 10 -3.5s8 0.166992 13 -1.5s10.5 -1.16699 16.5 1.5l1 -47c-24.667 2.66699 -46 -7.66602 -64 -30.999s-21 -45 -9 -65c7.33301 -12 17.833 -19.333 31.5 -22s27 -2.16699 40 1.5
s25.5 9.16699 37.5 16.5l8 -46c-14.667 -8 -30.167 -14 -46.5 -18s-32.833 -5.83301 -49.5 -5.5s-31.834 5 -45.501 14s-23.834 22.167 -30.501 39.5c-9.33301 20.667 -8.66602 41.834 2.00098 63.501s26.667 39.167 48 52.5c-15.333 5.33301 -25.333 14.666 -30 27.999
s-8 33.666 -10 60.999z" />
    <glyph glyph-name="Cacute" unicode="&#x106;" horiz-adv-x="762" 
d="M50 350c0 107.333 33.8311 194.167 101.498 260.5s151.834 98.833 252.501 97.5c71.333 0 136 -19 194 -57s97 -92 117 -162h-81c-21.333 46.667 -52 82 -92 106s-86 36 -138 36c-79.333 1.33301 -144 -24.5 -194 -77.5s-75 -120.833 -75 -203.5
c0 -80 24.833 -146.833 74.5 -200.5s114.167 -80.5 193.5 -80.5c54.667 0 103 13.5 145 40.5s72 65.167 90 114.5h81c-19.333 -75.333 -58.166 -132.833 -116.499 -172.5s-124.5 -59.5 -198.5 -59.5c-100 0 -184 32.833 -252 98.5s-102 152.167 -102 259.5zM427.998 773.001
h-66v7l75 132l72 -29v-7z" />
    <glyph glyph-name="cacute" unicode="&#x107;" horiz-adv-x="567" 
d="M524 335l-75.0029 -0.000976562c-15.333 35.333 -41.166 60.333 -77.499 75s-72.666 18.334 -108.999 11.001s-68.5 -26.833 -96.5 -58.5s-42 -71.5 -42 -119.5c0 -39.333 9.33301 -73.666 28 -102.999s42.167 -49.833 70.5 -61.5s57.5 -17.334 87.5 -17.001
s58.333 9.5 85 27.5s46 42.333 58 73h76c-10.667 -40.667 -30.167 -74.834 -58.5 -102.501s-60.333 -46.667 -96 -57s-73 -12.833 -112 -7.5s-74.5 17.5 -106.5 36.5s-58.5 47 -79.5 84s-31.5 79.5 -31.5 127.5c0 47.333 10.333 89.333 31 126s46.667 64.667 78 84
s66.333 31.833 105 37.5s75.5 3.83398 110.5 -5.49902s66.833 -27 95.5 -53s48.334 -58.333 59.001 -97zM309.997 578.999h-64v7l73 120l69 -26v-7z" />
    <glyph glyph-name="Ccircumflex" unicode="&#x108;" horiz-adv-x="762" 
d="M50 350c0 107.333 33.8311 194.167 101.498 260.5s151.834 98.833 252.501 97.5c71.333 0 136 -19 194 -57s97 -92 117 -162h-81c-21.333 46.667 -52 82 -92 106s-86 36 -138 36c-79.333 1.33301 -144 -24.5 -194 -77.5s-75 -120.833 -75 -203.5
c0 -80 24.833 -146.833 74.5 -200.5s114.167 -80.5 193.5 -80.5c54.667 0 103 13.5 145 40.5s72 65.167 90 114.5h81c-19.333 -75.333 -58.166 -132.833 -116.499 -172.5s-124.5 -59.5 -198.5 -59.5c-100 0 -184 32.833 -252 98.5s-102 152.167 -102 259.5zM565.998 776.001
h-79l-98 91l-98 -91h-81v8l139 132h79l138 -133v-7z" />
    <glyph glyph-name="ccircumflex" unicode="&#x109;" horiz-adv-x="567" 
d="M524 335l-75.0029 -0.000976562c-15.333 35.333 -41.166 60.333 -77.499 75s-72.666 18.334 -108.999 11.001s-68.5 -26.833 -96.5 -58.5s-42 -71.5 -42 -119.5c0 -39.333 9.33301 -73.666 28 -102.999s42.167 -49.833 70.5 -61.5s57.5 -17.334 87.5 -17.001
s58.333 9.5 85 27.5s46 42.333 58 73h76c-10.667 -40.667 -30.167 -74.834 -58.5 -102.501s-60.333 -46.667 -96 -57s-73 -12.833 -112 -7.5s-74.5 17.5 -106.5 36.5s-58.5 47 -79.5 84s-31.5 79.5 -31.5 127.5c0 47.333 10.333 89.333 31 126s46.667 64.667 78 84
s66.333 31.833 105 37.5s75.5 3.83398 110.5 -5.49902s66.833 -27 95.5 -53s48.334 -58.333 59.001 -97zM461.997 573.999h-72l-90 87l-90 -87h-74v7l127 126h73l126 -127v-6z" />
    <glyph glyph-name="Cdotaccent" unicode="&#x10a;" horiz-adv-x="762" 
d="M50 350c0 107.333 33.8311 194.167 101.498 260.5s151.834 98.833 252.501 97.5c71.333 0 136 -19 194 -57s97 -92 117 -162h-81c-21.333 46.667 -52 82 -92 106s-86 36 -138 36c-79.333 1.33301 -144 -24.5 -194 -77.5s-75 -120.833 -75 -203.5
c0 -80 24.833 -146.833 74.5 -200.5s114.167 -80.5 193.5 -80.5c54.667 0 103 13.5 145 40.5s72 65.167 90 114.5h81c-19.333 -75.333 -58.166 -132.833 -116.499 -172.5s-124.5 -59.5 -198.5 -59.5c-100 0 -184 32.833 -252 98.5s-102 152.167 -102 259.5zM402.998 774.001
c-14 0 -25.833 4.33301 -35.5 13s-14.5 19.667 -14.5 33c0 14.667 4.83301 26.5 14.5 35.5s21.5 13.5 35.5 13.5c14.667 0 27 -4.5 37 -13.5s15 -20.833 15 -35.5c0 -13.333 -5.16699 -24.333 -15.5 -33s-22.5 -13 -36.5 -13z" />
    <glyph glyph-name="cdotaccent" unicode="&#x10b;" horiz-adv-x="567" 
d="M524 335l-75.0029 -0.000976562c-15.333 35.333 -41.166 60.333 -77.499 75s-72.666 18.334 -108.999 11.001s-68.5 -26.833 -96.5 -58.5s-42 -71.5 -42 -119.5c0 -39.333 9.33301 -73.666 28 -102.999s42.167 -49.833 70.5 -61.5s57.5 -17.334 87.5 -17.001
s58.333 9.5 85 27.5s46 42.333 58 73h76c-10.667 -40.667 -30.167 -74.834 -58.5 -102.501s-60.333 -46.667 -96 -57s-73 -12.833 -112 -7.5s-74.5 17.5 -106.5 36.5s-58.5 47 -79.5 84s-31.5 79.5 -31.5 127.5c0 47.333 10.333 89.333 31 126s46.667 64.667 78 84
s66.333 31.833 105 37.5s75.5 3.83398 110.5 -5.49902s66.833 -27 95.5 -53s48.334 -58.333 59.001 -97zM295.997 595.999c-12.667 0 -23.334 3.66504 -32.001 10.998s-13 17 -13 29c0 12.667 4.33301 22.834 13 30.501s19.334 11.5 32.001 11.5
c13.333 0 24.333 -3.66699 33 -11s13 -17.666 13 -30.999c0 -12 -4.5 -21.667 -13.5 -29s-19.833 -11 -32.5 -11z" />
    <glyph glyph-name="Ccaron" unicode="&#x10c;" horiz-adv-x="762" 
d="M50 350c0 107.333 33.8311 194.167 101.498 260.5s151.834 98.833 252.501 97.5c71.333 0 136 -19 194 -57s97 -92 117 -162h-81c-21.333 46.667 -52 82 -92 106s-86 36 -138 36c-79.333 1.33301 -144 -24.5 -194 -77.5s-75 -120.833 -75 -203.5
c0 -80 24.833 -146.833 74.5 -200.5s114.167 -80.5 193.5 -80.5c54.667 0 103 13.5 145 40.5s72 65.167 90 114.5h81c-19.333 -75.333 -58.166 -132.833 -116.499 -172.5s-124.5 -59.5 -198.5 -59.5c-100 0 -184 32.833 -252 98.5s-102 152.167 -102 259.5zM215.998 914.001
h77l96 -91l97 91h79v-9l-136 -130h-78l-135 132v7z" />
    <glyph glyph-name="ccaron" unicode="&#x10d;" horiz-adv-x="567" 
d="M524 335l-75.0029 -0.000976562c-15.333 35.333 -41.166 60.333 -77.499 75s-72.666 18.334 -108.999 11.001s-68.5 -26.833 -96.5 -58.5s-42 -71.5 -42 -119.5c0 -39.333 9.33301 -73.666 28 -102.999s42.167 -49.833 70.5 -61.5s57.5 -17.334 87.5 -17.001
s58.333 9.5 85 27.5s46 42.333 58 73h76c-10.667 -40.667 -30.167 -74.834 -58.5 -102.501s-60.333 -46.667 -96 -57s-73 -12.833 -112 -7.5s-74.5 17.5 -106.5 36.5s-58.5 47 -79.5 84s-31.5 79.5 -31.5 127.5c0 47.333 10.333 89.333 31 126s46.667 64.667 78 84
s66.333 31.833 105 37.5s75.5 3.83398 110.5 -5.49902s66.833 -27 95.5 -53s48.334 -58.333 59.001 -97zM125.997 708.999h76l95 -88l94 88h79v-8l-135 -128h-76l-133 130v6z" />
    <glyph glyph-name="Dcaron" unicode="&#x10e;" horiz-adv-x="732" 
d="M93 700l248 -0.000976562c104 0 186.667 -33.333 248 -100s92 -149.667 92 -249c0 -101.333 -30.667 -185.166 -92 -251.499s-144 -99.5 -248 -99.5h-248v700zM177 75.999l162 0.000976562c78.667 0 141.5 25.667 188.5 77s70.5 117 70.5 197
c0 79.333 -23.5 144.666 -70.5 195.999s-109.833 77 -188.5 77h-162v-547zM141 899h75l94 -87l94 87h77v-8l-133 -126h-75l-132 128v6z" />
    <glyph glyph-name="dcaron" unicode="&#x10f;" horiz-adv-x="601" 
d="M441 81l-0.000976562 22.001c-33.333 -73.333 -91.333 -110.666 -174 -111.999c-69.333 0 -123.666 24.167 -162.999 72.5s-59 107.833 -59 178.5c0 52.667 12 98.667 36 138s54.333 68 91 86s78 25.333 124 22s90 -19 132 -47v291h78v-573
c0 -5.33301 -0.166992 -11.666 -0.5 -18.999s-0.5 -13.166 -0.5 -17.499v-16c0 -6.33301 0.333008 -11.166 1 -14.499l2.5 -12.5c1 -5 2.5 -8.33301 4.5 -10s4.5 -4.33398 7.5 -8.00098s6.5 -5.33398 10.5 -5.00098s8.66699 -0.333984 14 -2.00098s11.333 -1.5 18 0.5l1 -57
c-42 -6.66699 -73 -4.33398 -93 6.99902s-30 36.666 -30 75.999zM429.999 221.001l-0.000976562 148.001c-44 33.333 -89.833 50.666 -137.5 51.999s-87.667 -14 -120 -46s-48.5 -76.333 -48.5 -133c0 -51.333 13.333 -94.333 40 -129s64.667 -52 114 -52
c44.667 0 80.834 15.333 108.501 46s42.167 68.667 43.5 114zM661.998 684.002c-1.33301 -6.66699 -3.33398 -14.667 -6.00098 -24l-28 -88h-50l21 71c-23.333 8 -35 23 -35 45c0 14 4.66699 25.167 14 33.5s21 12.5 35 12.5c11.333 0 21.333 -3 30 -9
s14.334 -14 17.001 -24c1.33301 -3.33301 2 -9 2 -17z" />
    <glyph glyph-name="Dcroat" unicode="&#x110;" horiz-adv-x="734" 
d="M15 314v64.001h80v322h248c103.333 0 185.833 -33.833 247.5 -101.5s92.5 -150.167 92.5 -247.5c0 -98.667 -30.833 -181.834 -92.5 -249.501s-144.167 -101.5 -247.5 -101.5h-248v314h-80zM179 76.001l162 -0.000976562c78 0 140.667 26.167 188 78.5s71 117.5 71 195.5
c0 76.667 -23.667 141.334 -71 194.001s-110 79 -188 79h-162v-245h126v-64h-126v-238z" />
    <glyph glyph-name="dcroat" unicode="&#x111;" horiz-adv-x="599" 
d="M430 218l-0.000976562 149.002c-44 33.333 -89.833 50.666 -137.5 51.999s-87.667 -14 -120 -46s-48.5 -76.333 -48.5 -133c0 -51.333 13.333 -94.333 40 -129s64.667 -52 114 -52c44.667 0 80.834 15.167 108.501 45.5s42.167 68.166 43.5 113.499zM440.999 78.002
l-0.00195312 16.9951c-14 -35.333 -36.5 -61.833 -67.5 -79.5s-66.5 -26.5 -106.5 -26.5c-69.333 0 -123.666 24.167 -162.999 72.5s-59 107.833 -59 178.5c0 52 12 97.833 36 137.5s54.333 68.334 91 86.001s78 24.834 124 21.501s90 -19 132 -47v142h-104v51h104v99h78
v-99h83v-51h-83v-433c0 -5.33301 -0.166992 -12.166 -0.5 -20.499s-0.5 -14.666 -0.5 -18.999s0.166992 -10 0.5 -17s0.833008 -12 1.5 -15s1.83398 -7.16699 3.50098 -12.5s4 -8.66602 7 -9.99902s6.5 -3.5 10.5 -6.5s9 -4 15 -3s12.667 1.16699 20 0.5l1 -48
c-82 -14 -123 13.333 -123 82z" />
    <glyph glyph-name="Emacron" unicode="&#x112;" horiz-adv-x="569" 
d="M500 700v-73h-323v-229h312v-73h-312v-248h334v-77h-418v700h407zM151 777v61h297v-61h-297z" />
    <glyph glyph-name="emacron" unicode="&#x113;" horiz-adv-x="554" 
d="M292 493c81.333 -0.666992 140.666 -24.167 177.999 -70.5s49.333 -109.5 36 -189.5h-383c-2.66699 -54 14.666 -97.333 51.999 -130s84 -49 140 -49c52 0 106.333 11.667 163 35l12 -59c-58 -27.333 -117 -41 -177 -41c-81.333 0 -147 24 -197 72
s-73.667 112.333 -71 193c2.66699 74 27.334 132.333 74.001 175s104.334 64 173.001 64zM292 431c-44.667 0 -81.832 -12.168 -111.499 -36.501s-47.834 -58.166 -54.501 -101.499h314c2.66699 44 -10 78 -38 102s-64.667 36 -110 36zM143.002 608.999v61h297v-61h-297z
" />
    <glyph glyph-name="Ebreve" unicode="&#x114;" horiz-adv-x="569" 
d="M500 700v-73h-323v-229h312v-73h-312v-248h334v-77h-418v700h407zM121 905l66.998 -0.00195312c6.66699 -30.667 25.334 -52.167 56.001 -64.5s61.5 -12.333 92.5 0s49.5 33.833 55.5 64.5h67c-3.33301 -34.667 -16.833 -63.667 -40.5 -87s-51.167 -37.666 -82.5 -42.999
s-62.666 -5.16602 -93.999 0.500977s-58.5 20.167 -81.5 43.5s-36.167 52 -39.5 86z" />
    <glyph glyph-name="ebreve" unicode="&#x115;" horiz-adv-x="554" 
d="M292 493c81.333 -0.666992 140.666 -24.167 177.999 -70.5s49.333 -109.5 36 -189.5h-383c-2.66699 -54 14.666 -97.333 51.999 -130s84 -49 140 -49c52 0 106.333 11.667 163 35l12 -59c-58 -27.333 -117 -41 -177 -41c-81.333 0 -147 24 -197 72
s-73.667 112.333 -71 193c2.66699 74 27.334 132.333 74.001 175s104.334 64 173.001 64zM292 431c-44.667 0 -81.832 -12.168 -111.499 -36.501s-47.834 -58.166 -54.501 -101.499h314c2.66699 44 -10 78 -38 102s-64.667 36 -110 36zM124.002 695.999h62
c3.33301 -17.333 11.333 -31.833 24 -43.5s27.167 -18.834 43.5 -21.501s32.833 -2.5 49.5 0.5s31.5 10.333 44.5 22s21.167 25.834 24.5 42.501h61c-4.66699 -39.333 -22.667 -70 -54 -92s-64.833 -33 -100.5 -33s-69.167 11 -100.5 33s-49.333 52.667 -54 92z" />
    <glyph glyph-name="Edotaccent" unicode="&#x116;" horiz-adv-x="569" 
d="M500 700v-73h-323v-229h312v-73h-312v-248h334v-77h-418v700h407zM304 781c-14 0 -25.667 4.16699 -35 12.5s-14 19.166 -14 32.499c0 14 4.66699 25.333 14 34s21 13 35 13s25.833 -4.33301 35.5 -13s14.5 -20 14.5 -34c0 -13.333 -4.83301 -24.166 -14.5 -32.499
s-21.5 -12.5 -35.5 -12.5z" />
    <glyph glyph-name="edotaccent" unicode="&#x117;" horiz-adv-x="554" 
d="M292 493c81.333 -0.666992 140.666 -24.167 177.999 -70.5s49.333 -109.5 36 -189.5h-383c-2.66699 -54 14.666 -97.333 51.999 -130s84 -49 140 -49c52 0 106.333 11.667 163 35l12 -59c-58 -27.333 -117 -41 -177 -41c-81.333 0 -147 24 -197 72
s-73.667 112.333 -71 193c2.66699 74 27.334 132.333 74.001 175s104.334 64 173.001 64zM292 431c-44.667 0 -81.832 -12.168 -111.499 -36.501s-47.834 -58.166 -54.501 -101.499h314c2.66699 44 -10 78 -38 102s-64.667 36 -110 36zM295.002 598.999
c-14 0 -25.5 3.83203 -34.5 11.499s-13.5 17.834 -13.5 30.501c0 13.333 4.5 23.833 13.5 31.5s20.5 11.5 34.5 11.5s25.833 -3.83301 35.5 -11.5s14.5 -18.167 14.5 -31.5c0 -12 -4.83301 -22 -14.5 -30s-21.5 -12 -35.5 -12z" />
    <glyph glyph-name="Eogonek" unicode="&#x118;" horiz-adv-x="558" 
d="M493 700l0.000976562 -74h-316v-228h300v-73h-300v-248h321v-77h-92c-22.667 -12 -39 -29.167 -49 -51.5s-10.333 -42.833 -1 -61.5c7.33301 -15.333 19.5 -24.833 36.5 -28.5s33.667 -3.33398 50 0.999023s32.166 10.5 47.499 18.5l9 -52
c-15.333 -9.33301 -32.833 -16.5 -52.5 -21.5s-39.667 -7.5 -60 -7.5s-39 5.5 -56 16.5s-28.833 27.167 -35.5 48.5c-9.33301 24 -8.83301 49.333 1.5 76s27.5 47.334 51.5 62.001h-255v700h400z" />
    <glyph glyph-name="eogonek" unicode="&#x119;" horiz-adv-x="554" 
d="M125 285h315.002c5.33301 46.667 -6.33398 82.667 -35.001 108s-66.334 38 -113.001 38c-46 0 -84 -13 -114 -39s-47.667 -61.667 -53 -107zM292.002 493c81.333 -0.666992 140.663 -24.166 177.996 -70.499s49.333 -109.5 36 -189.5h-382
c0 -56.667 17.833 -100.5 53.5 -131.5s82.167 -46.5 139.5 -46.5c54 0 107.667 11.333 161 34l12 -59c-20 -10 -42.667 -18.667 -68 -26c-18.667 -11.333 -33 -26.5 -43 -45.5s-10.667 -36.833 -2 -53.5c8.66699 -14 20.667 -22.833 36 -26.5s30.5 -3.5 45.5 0.5
s29.5 10 43.5 18l9 -50c-16 -8 -33 -14 -51 -18s-36.167 -5.5 -54.5 -4.5s-35.166 6.66699 -50.499 17s-26.333 24.833 -33 43.5c-16 37.333 -5 73.666 33 108.999c-29.333 -3.33301 -52.666 -4 -69.999 -2c-73.333 4 -132.333 29.667 -177 77s-65.667 109 -63 185
c2.66699 74 27.334 132.333 74.001 175s104.334 64 173.001 64z" />
    <glyph glyph-name="Ecaron" unicode="&#x11a;" horiz-adv-x="569" 
d="M500 700v-73h-323v-229h312v-73h-312v-248h334v-77h-418v700h407zM132 898h76l95 -88l94 88h79v-8l-135 -128h-76l-133 130v6z" />
    <glyph glyph-name="ecaron" unicode="&#x11b;" horiz-adv-x="554" 
d="M292 493c81.333 -0.666992 140.666 -24.167 177.999 -70.5s49.333 -109.5 36 -189.5h-383c-2.66699 -54 14.666 -97.333 51.999 -130s84 -49 140 -49c52 0 106.333 11.667 163 35l12 -59c-58 -27.333 -117 -41 -177 -41c-81.333 0 -147 24 -197 72
s-73.667 112.333 -71 193c2.66699 74 27.334 132.333 74.001 175s104.334 64 173.001 64zM292 431c-44.667 0 -81.832 -12.168 -111.499 -36.501s-47.834 -58.166 -54.501 -101.499h314c2.66699 44 -10 78 -38 102s-64.667 36 -110 36zM116.002 701.999h74l91 -86l91 86h75
v-8l-129 -125h-74l-128 127v6z" />
    <glyph glyph-name="Gcircumflex" unicode="&#x11c;" horiz-adv-x="777" 
d="M50 351c0 106.667 33.332 193.166 99.999 259.499s149.667 99.5 249 99.5c73.333 0 138.833 -17.667 196.5 -53s95.834 -87.666 114.501 -156.999h-82c-32.667 89.333 -109 134 -229 134c-80 0 -144.167 -26.833 -192.5 -80.5s-72.5 -121.167 -72.5 -202.5
c0 -82.667 24.167 -150.5 72.5 -203.5s112.5 -79.5 192.5 -79.5c74 0 134.167 19.667 180.5 59s72.833 96 79.5 170h-249v71h326c3.33301 -69.333 -5.66699 -130 -27 -182c-25.333 -63.333 -65.333 -111.833 -120 -145.5s-118 -50.5 -190 -50.5
c-100.667 0 -184 33.333 -250 100s-99 153.667 -99 261zM578.999 782.999h-79l-98 91l-98 -91h-81v8l139 132h79l138 -133v-7z" />
    <glyph glyph-name="gcircumflex" unicode="&#x11d;" horiz-adv-x="576" 
d="M427 -40v76.001c-44.667 -28.667 -90.167 -45 -136.5 -49s-87.333 3 -123 21s-64.834 47.167 -87.501 87.5s-34 88.166 -34 143.499c0 81.333 24.667 143.333 74 186s113 64 191 64c62.667 0 126.667 -14.667 192 -44v-479c0 -60 -13.5 -109.167 -40.5 -147.5
s-61.5 -63.166 -103.5 -74.499s-87.5 -13.333 -136.5 -6s-96.5 23.666 -142.5 48.999l13 62c34.667 -18.667 70.834 -32.167 108.501 -40.5s73.667 -10.5 108 -6.5s62.5 19.333 84.5 46s33 64 33 112zM426 104.001v296.003c-40 15.333 -79 23 -117 23
c-53.333 0 -97.5 -15.833 -132.5 -47.5s-52.5 -76.834 -52.5 -135.501c0 -59.333 15.667 -105.833 47 -139.5s70.333 -49.834 117 -48.501s92.667 18.666 138 51.999zM480 567.004h-74l-92 91l-92 -91h-75v8l130 132h74l129 -133v-7z" />
    <glyph glyph-name="Gbreve" unicode="&#x11e;" horiz-adv-x="777" 
d="M50 351c0 106.667 33.332 193.166 99.999 259.499s149.667 99.5 249 99.5c73.333 0 138.833 -17.667 196.5 -53s95.834 -87.666 114.501 -156.999h-82c-32.667 89.333 -109 134 -229 134c-80 0 -144.167 -26.833 -192.5 -80.5s-72.5 -121.167 -72.5 -202.5
c0 -82.667 24.167 -150.5 72.5 -203.5s112.5 -79.5 192.5 -79.5c74 0 134.167 19.667 180.5 59s72.833 96 79.5 170h-249v71h326c3.33301 -69.333 -5.66699 -130 -27 -182c-25.333 -63.333 -65.333 -111.833 -120 -145.5s-118 -50.5 -190 -50.5
c-100.667 0 -184 33.333 -250 100s-99 153.667 -99 261zM213.999 909.999h70.001c4.66699 -24 17.667 -42.833 39 -56.5s43.833 -20.5 67.5 -20.5s46 6.83301 67 20.5s33.833 32.5 38.5 56.5h70c-4 -36 -18 -66.167 -42 -90.5s-52.333 -39.333 -85 -45
s-65.334 -5.5 -98.001 0.5s-61 21 -85 45s-38 54 -42 90z" />
    <glyph glyph-name="gbreve" unicode="&#x11f;" horiz-adv-x="576" 
d="M427 -40v76.001c-44.667 -28.667 -90.167 -45 -136.5 -49s-87.333 3 -123 21s-64.834 47.167 -87.501 87.5s-34 88.166 -34 143.499c0 81.333 24.667 143.333 74 186s113 64 191 64c62.667 0 126.667 -14.667 192 -44v-479c0 -60 -13.5 -109.167 -40.5 -147.5
s-61.5 -63.166 -103.5 -74.499s-87.5 -13.333 -136.5 -6s-96.5 23.666 -142.5 48.999l13 62c34.667 -18.667 70.834 -32.167 108.501 -40.5s73.667 -10.5 108 -6.5s62.5 19.333 84.5 46s33 64 33 112zM426 104.001v296.003c-40 15.333 -79 23 -117 23
c-53.333 0 -97.5 -15.833 -132.5 -47.5s-52.5 -76.834 -52.5 -135.501c0 -59.333 15.667 -105.833 47 -139.5s70.333 -49.834 117 -48.501s92.667 18.666 138 51.999zM133 705.004l63.9961 -0.00390625c4.66699 -22 16.834 -39.333 36.501 -52s40.667 -19.167 63 -19.5
s43 5.83398 62 18.501s30.5 30.334 34.5 53.001h65c-3.33301 -34 -16.166 -62.333 -38.499 -85s-48.666 -36.667 -78.999 -42s-60.5 -5.16602 -90.5 0.500977s-56.167 19.834 -78.5 42.501s-35.166 50.667 -38.499 84z" />
    <glyph glyph-name="Gdotaccent" unicode="&#x120;" horiz-adv-x="777" 
d="M50 351c0 106.667 33.332 193.166 99.999 259.499s149.667 99.5 249 99.5c73.333 0 138.833 -17.667 196.5 -53s95.834 -87.666 114.501 -156.999h-82c-32.667 89.333 -109 134 -229 134c-80 0 -144.167 -26.833 -192.5 -80.5s-72.5 -121.167 -72.5 -202.5
c0 -82.667 24.167 -150.5 72.5 -203.5s112.5 -79.5 192.5 -79.5c74 0 134.167 19.667 180.5 59s72.833 96 79.5 170h-249v71h326c3.33301 -69.333 -5.66699 -130 -27 -182c-25.333 -63.333 -65.333 -111.833 -120 -145.5s-118 -50.5 -190 -50.5
c-100.667 0 -184 33.333 -250 100s-99 153.667 -99 261zM402.999 768.999c-14 0 -25.833 4.16699 -35.5 12.5s-14.5 18.5 -14.5 30.5c0 14 4.83301 25.167 14.5 33.5s21.5 12.5 35.5 12.5c14.667 0 27 -4.16699 37 -12.5s15 -19.5 15 -33.5
c0 -12 -5.16699 -22.167 -15.5 -30.5s-22.5 -12.5 -36.5 -12.5z" />
    <glyph glyph-name="gdotaccent" unicode="&#x121;" horiz-adv-x="576" 
d="M427 -40v76.001c-44.667 -28.667 -90.167 -45 -136.5 -49s-87.333 3 -123 21s-64.834 47.167 -87.501 87.5s-34 88.166 -34 143.499c0 81.333 24.667 143.333 74 186s113 64 191 64c62.667 0 126.667 -14.667 192 -44v-479c0 -60 -13.5 -109.167 -40.5 -147.5
s-61.5 -63.166 -103.5 -74.499s-87.5 -13.333 -136.5 -6s-96.5 23.666 -142.5 48.999l13 62c34.667 -18.667 70.834 -32.167 108.501 -40.5s73.667 -10.5 108 -6.5s62.5 19.333 84.5 46s33 64 33 112zM426 104.001v296.003c-40 15.333 -79 23 -117 23
c-53.333 0 -97.5 -15.833 -132.5 -47.5s-52.5 -76.834 -52.5 -135.501c0 -59.333 15.667 -105.833 47 -139.5s70.333 -49.834 117 -48.501s92.667 18.666 138 51.999zM298 603.004c-12.667 0 -23.5 4.16699 -32.5 12.5s-13.5 18.5 -13.5 30.5c0 13.333 4.33301 24 13 32
s19.667 12 33 12s24.5 -4 33.5 -12s13.5 -18.667 13.5 -32c0 -12 -4.66699 -22.167 -14 -30.5s-20.333 -12.5 -33 -12.5z" />
    <glyph glyph-name="Gcommaaccent" unicode="&#x122;" horiz-adv-x="777" 
d="M457 -142c-0.666992 -6.66699 -2.66602 -14.667 -5.99902 -24l-30 -95h-49l22 78c-23.333 8 -35 23 -35 45c0 14 4.66699 25.167 14 33.5s21 12.5 35 12.5c24.667 0 40.667 -11.333 48 -34c1.33301 -8.66699 1.66602 -14 0.999023 -16zM50.001 351
c0 106.667 33.332 193.166 99.999 259.499s149.667 99.5 249 99.5c73.333 0 138.833 -17.667 196.5 -53s95.834 -87.666 114.501 -156.999h-82c-32.667 89.333 -109 134 -229 134c-80 0 -144.167 -26.833 -192.5 -80.5s-72.5 -121.167 -72.5 -202.5
c0 -82.667 24.167 -150.5 72.5 -203.5s112.5 -79.5 192.5 -79.5c74 0 134.167 19.667 180.5 59s72.833 96 79.5 170h-249v71h326c3.33301 -69.333 -5.66699 -130 -27 -182c-25.333 -63.333 -65.333 -111.833 -120 -145.5s-118 -50.5 -190 -50.5
c-100.667 0 -184 33.333 -250 100s-99 153.667 -99 261z" />
    <glyph glyph-name="gcommaaccent" unicode="&#x123;" horiz-adv-x="576" 
d="M427 -40v76.001c-44.667 -28.667 -90.167 -45 -136.5 -49s-87.333 3 -123 21s-64.834 47.167 -87.501 87.5s-34 88.166 -34 143.499c0 81.333 24.667 143.333 74 186s113 64 191 64c62.667 0 126.667 -14.667 192 -44v-479c0 -60 -13.5 -109.167 -40.5 -147.5
s-61.5 -63.166 -103.5 -74.499s-87.5 -13.333 -136.5 -6s-96.5 23.666 -142.5 48.999l13 62c34.667 -18.667 70.834 -32.167 108.501 -40.5s73.667 -10.5 108 -6.5s62.5 19.333 84.5 46s33 64 33 112zM426 104.001v296.003c-40 15.333 -79 23 -117 23
c-53.333 0 -97.5 -15.833 -132.5 -47.5s-52.5 -76.834 -52.5 -135.501c0 -59.333 15.667 -105.833 47 -139.5s70.333 -49.834 117 -48.501s92.667 18.666 138 51.999zM274 620.004c1.33301 12 2.66504 19.333 3.99805 22l27 81h49l-21 -66c23.333 -5.33301 35 -19 35 -41
c0 -12.667 -4.5 -22.834 -13.5 -30.501s-20.5 -11.5 -34.5 -11.5c-11.333 0 -21.166 2.83301 -29.499 8.5s-13.5 12.834 -15.5 21.501c-1.33301 8 -1.66602 13.333 -0.999023 16z" />
    <glyph glyph-name="Hcircumflex" unicode="&#x124;" horiz-adv-x="723" 
d="M630 0h-84v328h-370v-328h-83v700h83v-295h370v295h84v-700zM553 765h-79l-98 91l-98 -91h-81v8l139 132h79l138 -133v-7z" />
    <glyph glyph-name="hcircumflex" unicode="&#x125;" horiz-adv-x="584" 
d="M514 0l-80 -0.00195312v284c0.666992 46 -11 81.667 -35 107s-57 38 -99 38c-43.333 0.666992 -78.333 -12.666 -105 -39.999s-40 -63.333 -40 -108v-281h-79v731h79v-312c21.333 26.667 44.833 45.834 70.5 57.501s57.167 17.5 94.5 17.5
c64 -0.666992 112.333 -19.667 145 -57s49 -88.333 49 -153v-284zM477 769.998h-76l-94 90l-95 -90h-78v8l134 131h76l133 -132v-7z" />
    <glyph glyph-name="Hbar" unicode="&#x126;" horiz-adv-x="733" 
d="M30 524v58h68v118h83v-118h370v118h84v-118h70v-58h-70v-524h-84v312h-370v-312h-83v524h-68zM181 389h370v135h-370v-135z" />
    <glyph glyph-name="hbar" unicode="&#x127;" horiz-adv-x="583" 
d="M513 0h-79.999v284c0.666992 46 -11 81.667 -35 107s-57 38 -99 38c-42.667 0 -77.5 -13.667 -104.5 -41s-40.5 -63 -40.5 -107v-281h-78v580h-66v56h66v95h78v-95h94v-56h-94v-188c13.333 32 34.666 57 63.999 75s63.333 27 102 27
c64 -0.666992 112.167 -19.667 144.5 -57s48.5 -88.333 48.5 -153v-284z" />
    <glyph glyph-name="Itilde" unicode="&#x128;" horiz-adv-x="400" 
d="M242 67h121v-67h-326v67h121v567h-113v66h310v-66h-113v-567zM97 755l-43.001 22.001c18 37.333 41.333 61.166 70 71.499s62.334 4.83301 101.001 -16.5c44 -30 77.667 -23.667 101 19l20.5 -10.5l22.5 -11.5c-14.667 -36.667 -36.667 -60.5 -66 -71.5
s-62 -6.16699 -98 14.5c-48 30 -84 24.333 -108 -17z" />
    <glyph glyph-name="itilde" unicode="&#x129;" horiz-adv-x="235" 
d="M157 481v-481h-79v481h79zM17 609c-4.66699 2 -17.3311 9 -37.998 21c16 37.333 36.5 60.833 61.5 70.5s54.5 4.16699 88.5 -16.5c39.333 -28 68.666 -21.667 87.999 19c5.33301 -2.66699 12 -6.5 20 -11.5s14 -8.5 18 -10.5
c-12.667 -35.333 -31.834 -58.333 -57.501 -69s-54.5 -6.33398 -86.5 12.999c-42 30.667 -73.333 25.334 -94 -15.999z" />
    <glyph glyph-name="Imacron" unicode="&#x12a;" horiz-adv-x="400" 
d="M242 67h121v-67h-326v67h121v567h-113v66h310v-66h-113v-567zM57 771v61h297v-61h-297z" />
    <glyph glyph-name="imacron" unicode="&#x12b;" horiz-adv-x="235" 
d="M157 481v-481h-79v481h79zM-17 613v62h247v-62h-247z" />
    <glyph glyph-name="Ibreve" unicode="&#x12c;" horiz-adv-x="400" 
d="M242 67h121v-67h-326v67h121v567h-113v66h310v-66h-113v-567zM35 890l66.001 0.000976562c5.33301 -24 17.833 -42.5 37.5 -55.5s40.667 -19.5 63 -19.5s43.5 6.66699 63.5 20s32.333 31.666 37 54.999h66c-4 -35.333 -17.333 -65 -40 -89s-49.334 -38.833 -80.001 -44.5
s-61.5 -5.66699 -92.5 0s-57.833 20.5 -80.5 44.5s-36 53.667 -40 89z" />
    <glyph glyph-name="ibreve" unicode="&#x12d;" horiz-adv-x="235" 
d="M157 481v-481h-79v481h79zM-39 700l57.002 -0.00195312c4 -22.667 14.667 -40.167 32 -52.5s35.833 -18.333 55.5 -18s38.167 6.66602 55.5 18.999s27.666 29.5 30.999 51.5h58c-3.33301 -33.333 -14.833 -61.166 -34.5 -83.499s-42.834 -36.166 -69.501 -41.499
s-53.5 -5.16602 -80.5 0.500977s-50.333 19.667 -70 42s-31.167 49.833 -34.5 82.5z" />
    <glyph glyph-name="Iogonek" unicode="&#x12e;" horiz-adv-x="402" 
d="M243 69l120.998 -0.000976562v-69h-128c-19.333 -13.333 -34.166 -30.666 -44.499 -51.999s-10.5 -41.333 -0.5 -60c8 -16 20.833 -25.667 38.5 -29s34.334 -2.66602 50.001 2.00098s31.167 11 46.5 19l9 -54c-22.667 -13.333 -47.334 -22 -74.001 -26
s-52.5 -0.666992 -77.5 10s-42.5 29.667 -52.5 57c-19.333 47.333 -3.66602 91.666 47.001 132.999h-140v69h121v563h-113v68h310v-68h-113v-563z" />
    <glyph glyph-name="iogonek" unicode="&#x12f;" horiz-adv-x="234" 
d="M69 641c0 20 8.16699 34 24.5 42s32.5 8 48.5 0s24 -22 24 -42s-8 -34.167 -24 -42.5s-32.167 -8.33301 -48.5 0s-24.5 22.5 -24.5 42.5zM156 478l0.00390625 -478.001h-26c-18.667 -13.333 -33 -30.666 -43 -51.999s-10 -41 0 -59c8.66699 -16 21.5 -25.667 38.5 -29
s33.333 -2.83301 49 1.5s31.167 10.5 46.5 18.5l10 -53c-16.667 -9.33301 -34.834 -16.333 -54.501 -21s-39.334 -6.5 -59.001 -5.5s-37.834 7.16699 -54.501 18.5s-28.667 27.333 -36 48c-10 24 -9.83301 48 0.5 72s27.166 44.667 50.499 62v477h78z" />
    <glyph glyph-name="Idotaccent" unicode="&#x130;" horiz-adv-x="400" 
d="M242 67h121v-67h-326v67h121v567h-113v66h310v-66h-113v-567zM200 750c-14.667 0 -27.334 4.16699 -38.001 12.5s-16 19.166 -16 32.499c0 14 5.33301 25.5 16 34.5s23.334 13.5 38.001 13.5s27.334 -4.5 38.001 -13.5s16 -20.5 16 -34.5
c0 -13.333 -5.33301 -24.166 -16 -32.499s-23.334 -12.5 -38.001 -12.5z" />
    <glyph glyph-name="dotlessi" unicode="&#x131;" horiz-adv-x="235" 
d="M157 481v-481h-79v481h79z" />
    <glyph glyph-name="IJ" unicode="&#x132;" horiz-adv-x="1039" 
d="M242 67h121v-67h-326v67h121v567h-113v66h310v-66h-113v-567zM953 700v-465c0 -75.333 -24.833 -135 -74.5 -179s-112.5 -66 -188.5 -66c-75.333 0 -136.833 22.167 -184.5 66.5s-71.5 103.833 -71.5 178.5v73h79v-72c0 -54 16 -95.833 48 -125.5s75 -44.5 129 -44.5
s97.333 15 130 45s49 71.667 49 125v390h-171v74h255z" />
    <glyph glyph-name="ij" unicode="&#x133;" horiz-adv-x="467" 
d="M67 641c0 20.667 8.16504 35.334 24.498 44.001s32.833 8.66699 49.5 0s25 -23.334 25 -44.001c0 -16 -5.16699 -28.5 -15.5 -37.5s-21.666 -13.5 -33.999 -13.5s-23.666 4.5 -33.999 13.5s-15.5 21.5 -15.5 37.5zM154.998 478v-478h-78v478h78zM310.998 480h78.001
l-1 -537c0 -78 -15.833 -133 -47.5 -165s-82.834 -41.333 -153.501 -28l2 61c50 -8.66699 82.833 -2.16699 98.5 19.5s23.5 59.5 23.5 113.5v536zM299.999 641c0 20.667 8.33105 35.334 24.998 44.001s33.167 8.66699 49.5 0s24.5 -23.334 24.5 -44.001
c0 -16 -5.16699 -28.5 -15.5 -37.5s-21.666 -13.5 -33.999 -13.5s-23.666 4.5 -33.999 13.5s-15.5 21.5 -15.5 37.5z" />
    <glyph glyph-name="Jcircumflex" unicode="&#x134;" horiz-adv-x="639" 
d="M553 700v-465c0 -75.333 -24.833 -135 -74.5 -179s-112.5 -66 -188.5 -66c-75.333 0 -136.833 22.167 -184.5 66.5s-71.5 103.833 -71.5 178.5v73h79v-72c0 -54 16 -95.833 48 -125.5s75 -44.5 129 -44.5s97.333 15 130 45s49 71.667 49 125v390h-171v74h255zM589 773
h-74l-93 92l-92 -92h-76v8l131 133h74l130 -134v-7z" />
    <glyph glyph-name="jcircumflex" unicode="&#x135;" horiz-adv-x="234" 
d="M78 480h78.001l-1 -537c0 -78 -15.833 -133 -47.5 -165s-82.834 -41.333 -153.501 -28l2 61c50 -8.66699 82.833 -2.16699 98.5 19.5s23.5 59.5 23.5 113.5v536zM263.001 561h-67l-83 97l-83 -97h-69v9l118 140h67l117 -142v-7z" />
    <glyph glyph-name="Kcommaaccent" unicode="&#x136;" horiz-adv-x="666" 
d="M408 -116c-1.33301 -6.66699 -3.33203 -14.667 -5.99902 -24l-30 -95h-49l22 78c-23.333 8 -35 23 -35 45c0 14 4.66699 25.167 14 33.5s21 12.5 35 12.5c24.667 0 40.667 -11.333 48 -34c1.33301 -8.66699 1.66602 -14 0.999023 -16zM176.001 700l-0.000976562 -319.999
c84 0 137 6.66699 159 20c33.333 20 62.666 76.333 87.999 169c15.333 52 38 89.5 68 112.5s75.667 28.833 137 17.5v-56c-38 4 -66.5 -1.66699 -85.5 -17s-34.167 -42.333 -45.5 -81c-27.333 -94.667 -58.666 -157.334 -93.999 -188.001l244 -345v-12h-95l-222 323
c-29.333 -8.66699 -80.666 -13 -153.999 -13v-310h-83v700h83z" />
    <glyph glyph-name="kcommaaccent" unicode="&#x137;" horiz-adv-x="535" 
d="M342 -129c-1.33301 -7.33301 -3.33203 -15.333 -5.99902 -24l-30 -95h-49l22 78c-23.333 8 -35 23 -35 45c0 14 4.66699 25.167 14 33.5s21 12.5 35 12.5c24.667 0 40.667 -11.333 48 -34c1.33301 -8.66699 1.66602 -14 0.999023 -16zM155.001 283h64
c66 0 114.167 16 144.5 48s45.5 82.667 45.5 152h75c0 -58.667 -10.5 -107.5 -31.5 -146.5s-56.833 -68.167 -107.5 -87.5l162 -240v-9h-81l-149 225c-18 -4 -37.667 -6 -59 -6h-63v-219h-79v731h79v-448z" />
    <glyph glyph-name="kgreenlandic" unicode="&#x138;" horiz-adv-x="532" 
d="M152 268h64c62.667 0 109.5 17.333 140.5 52s47.5 89 49.5 163h74c3.33301 -128 -42.667 -210.333 -138 -247l162 -227v-9h-81l-149 212c-18 -4 -37.667 -6 -59 -6h-63v-206h-79v482h79v-214z" />
    <glyph glyph-name="Lacute" unicode="&#x139;" horiz-adv-x="523" 
d="M177 700v-625h330v-75h-414v700h84zM176 802h-66v7l75 132l72 -29v-7z" />
    <glyph glyph-name="lacute" unicode="&#x13a;" horiz-adv-x="275" 
d="M71 733l79 -0.000976562v-559c0 -49.333 8 -82.166 24 -98.499s48.333 -21.5 97 -15.5l3 -62c-73.333 -12 -125.5 -4.33301 -156.5 23s-46.5 78.333 -46.5 153v559zM150 815.999h-61v7l69 122l67 -27v-7z" />
    <glyph glyph-name="Lcommaaccent" unicode="&#x13b;" horiz-adv-x="523" 
d="M360 -142c-1.33301 -6.66699 -3.33203 -14.667 -5.99902 -24l-30 -95h-49l22 78c-23.333 8 -35 23 -35 45c0 14 4.66699 25.167 14 33.5s21 12.5 35 12.5c24.667 0 40.667 -11.333 48 -34c1.33301 -8.66699 1.66602 -14 0.999023 -16zM177.001 700v-625h330v-75h-414v700
h84z" />
    <glyph glyph-name="lcommaaccent" unicode="&#x13c;" horiz-adv-x="275" 
d="M232 -131c-1.33301 -7.33301 -3.33203 -15.333 -5.99902 -24l-30 -95h-49l22 78c-23.333 8 -35 23 -35 45c0 14 4.66699 25.167 14 33.5s21 12.5 35 12.5c24.667 0 40.667 -11.333 48 -34c1.33301 -8.66699 1.66602 -14 0.999023 -16zM71.001 733l79 -0.000976562v-559
c0 -49.333 8 -82.166 24 -98.499s48.333 -21.5 97 -15.5l3 -62c-73.333 -12 -125.5 -4.33301 -156.5 23s-46.5 78.333 -46.5 153v559z" />
    <glyph glyph-name="Lcaron" unicode="&#x13d;" horiz-adv-x="524" 
d="M177 700v-625h330v-75h-414v700h84zM442 649c-0.666992 -6 -2.66699 -13.667 -6 -23l-26 -84h-48l20 68c-22 8 -33 22.333 -33 43c0 13.333 4.33301 24 13 32s19.667 12 33 12c24.667 0 39.667 -10.667 45 -32c1.33301 -2 2 -7.33301 2 -16z" />
    <glyph glyph-name="lcaron" unicode="&#x13e;" horiz-adv-x="275" 
d="M71 733l79 -0.000976562v-559c0 -49.333 8 -82.166 24 -98.499s48.333 -21.5 97 -15.5l3 -62c-73.333 -12 -125.5 -4.33301 -156.5 23s-46.5 78.333 -46.5 153v559zM316 678.999c-1.33301 -10.667 -3.00098 -18.334 -5.00098 -23.001l-27 -83h-48l20 67
c-22 8 -33 22.333 -33 43c0 12.667 4.5 23 13.5 31s20.167 12 33.5 12c24.667 0 39.334 -10.333 44.001 -31c1.33301 -3.33301 2 -8.66602 2 -15.999z" />
    <glyph glyph-name="Ldot" unicode="&#x13f;" horiz-adv-x="523" 
d="M177 700v-625h330v-75h-414v700h84zM359 331c-12.667 0 -23.667 4.5 -33 13.5s-14 20.167 -14 33.5c0 14 4.66699 25.5 14 34.5s20.333 13.5 33 13.5c14 0 25.5 -4.5 34.5 -13.5s13.5 -20.5 13.5 -34.5s-4.5 -25.333 -13.5 -34s-20.5 -13 -34.5 -13z" />
    <glyph glyph-name="ldot" unicode="&#x140;" horiz-adv-x="333" 
d="M71 733l79 -0.000976562v-559c0 -49.333 8 -82.166 24 -98.499s48.333 -21.5 97 -15.5l3 -62c-73.333 -12 -125.5 -4.33301 -156.5 23s-46.5 78.333 -46.5 153v559zM282 329.999c-12.667 0 -23.5 4.33301 -32.5 13s-13.5 19.667 -13.5 33c0 14 4.5 25.5 13.5 34.5
s19.833 13.5 32.5 13.5s23.334 -4.5 32.001 -13.5s13 -20.5 13 -34.5c0 -13.333 -4.33301 -24.333 -13 -33s-19.334 -13 -32.001 -13z" />
    <glyph glyph-name="Lslash" unicode="&#x141;" horiz-adv-x="530" 
d="M184 700v-322l110 33v-69l-110 -33v-234h321v-75h-405v286l-76 -22v69l76 21v346h84z" />
    <glyph glyph-name="lslash" unicode="&#x142;" horiz-adv-x="292" 
d="M84 731l79 -0.000976562v-353l96 29v-68l-96 -29v-134c0 -51.333 8.16699 -86.666 24.5 -105.999s48.5 -25.333 96.5 -18l3 -62c-77.333 -11.333 -130.5 0 -159.5 34s-43.5 94.667 -43.5 182v82l-77 -23v69l77 22v375z" />
    <glyph glyph-name="Nacute" unicode="&#x143;" horiz-adv-x="746" 
d="M626 -1l-457 530l7 -192v-337h-83v702h29l456 -530l-9 201v328h84v-702h-27zM385 756h-66v7l75 132l72 -29v-7z" />
    <glyph glyph-name="nacute" unicode="&#x144;" 
d="M528 0h-79v286c0 42.667 -12.5 76.834 -37.5 102.501s-57.5 38.5 -97.5 38.5c-41.333 0 -75.666 -13 -102.999 -39s-41 -59 -41 -99v-289h-78v344c0 34 -3.16699 56 -9.5 66s-21.833 13.667 -46.5 11l-1 62c13.333 2 23.166 3.33301 29.499 4s15.833 1.16699 28.5 1.5
s22.167 -1 28.5 -4s13.5 -7.16699 21.5 -12.5s13.667 -13.333 17 -24s5 -23.334 5 -38.001c36 54.667 92.667 82 170 82c61.333 0 108.833 -19 142.5 -57s50.5 -87.667 50.5 -149v-286zM315 584h-61v7l69 122l67 -27v-7z" />
    <glyph glyph-name="Ncommaaccent" unicode="&#x145;" horiz-adv-x="746" 
d="M444 -130c-1.33301 -6.66699 -3.33203 -14.667 -5.99902 -24l-30 -95h-49l22 78c-23.333 8 -35 23 -35 45c0 14 4.66699 25.167 14 33.5s21 12.5 35 12.5c24.667 0 40.667 -11.333 48 -34c1.33301 -8.66699 1.66602 -14 0.999023 -16zM626.001 -1l-457 530l7 -192v-337
h-83v702h29l456 -530l-9 201v328h84v-702h-27z" />
    <glyph glyph-name="ncommaaccent" unicode="&#x146;" 
d="M372 -138c-1.33301 -6.66699 -3.33203 -14.667 -5.99902 -24l-30 -95h-49l22 78c-23.333 8 -35 23 -35 45c0 14 4.66699 25.167 14 33.5s21 12.5 35 12.5c24.667 0 40.667 -11.333 48 -34c1.33301 -8.66699 1.66602 -14 0.999023 -16zM528.001 0h-79v286
c0 42.667 -12.5 76.834 -37.5 102.501s-57.5 38.5 -97.5 38.5c-41.333 0 -75.666 -13 -102.999 -39s-41 -59 -41 -99v-289h-78v344c0 34 -3.16699 56 -9.5 66s-21.833 13.667 -46.5 11l-1 62c13.333 2 23.166 3.33301 29.499 4s15.833 1.16699 28.5 1.5s22.167 -1 28.5 -4
s13.5 -7.16699 21.5 -12.5s13.667 -13.333 17 -24s5 -23.334 5 -38.001c36 54.667 92.667 82 170 82c61.333 0 108.833 -19 142.5 -57s50.5 -87.667 50.5 -149v-286z" />
    <glyph glyph-name="Ncaron" unicode="&#x147;" horiz-adv-x="746" 
d="M626 -1l-457 530l7 -192v-337h-83v702h29l456 -530l-9 201v328h84v-702h-27zM188 891h79l98 -92l98 92h81v-9l-139 -132h-79l-138 134v7z" />
    <glyph glyph-name="ncaron" unicode="&#x148;" 
d="M528 0h-79v286c0 42.667 -12.5 76.834 -37.5 102.501s-57.5 38.5 -97.5 38.5c-41.333 0 -75.666 -13 -102.999 -39s-41 -59 -41 -99v-289h-78v344c0 34 -3.16699 56 -9.5 66s-21.833 13.667 -46.5 11l-1 62c13.333 2 23.166 3.33301 29.499 4s15.833 1.16699 28.5 1.5
s22.167 -1 28.5 -4s13.5 -7.16699 21.5 -12.5s13.667 -13.333 17 -24s5 -23.334 5 -38.001c36 54.667 92.667 82 170 82c61.333 0 108.833 -19 142.5 -57s50.5 -87.667 50.5 -149v-286zM120 719h79l98 -92l98 92h81v-9l-139 -132h-79l-138 134v7z" />
    <glyph glyph-name="napostrophe" unicode="&#x149;" 
d="M528 0h-79v286c0 42.667 -12.5 76.834 -37.5 102.501s-57.5 38.5 -97.5 38.5c-41.333 0 -75.666 -13 -102.999 -39s-41 -59 -41 -99v-289h-78v344c0 34 -3.16699 56 -9.5 66s-21.833 13.667 -46.5 11l-1 62c13.333 2 23.166 3.33301 29.499 4s15.833 1.16699 28.5 1.5
s22.167 -1 28.5 -4s13.5 -7.16699 21.5 -12.5s13.667 -13.333 17 -24s5 -23.334 5 -38.001c36 54.667 92.667 82 170 82c61.333 0 108.833 -19 142.5 -57s50.5 -87.667 50.5 -149v-286z" />
    <glyph glyph-name="Eng" unicode="&#x14a;" horiz-adv-x="746" 
d="M458 -187l3 59c49.333 -8.66699 81.833 -2.16699 97.5 19.5s23.5 59.167 23.5 112.5v41l-406 496v-541h-83v702h29l447 -534v533h84v-698c0 -76 -15 -130 -45 -162s-80 -41.333 -150 -28z" />
    <glyph glyph-name="eng" unicode="&#x14b;" horiz-adv-x="594" 
d="M524 286l-0.000976562 -292.999c0 -76 -16 -130.167 -48 -162.5s-83.333 -41.833 -154 -28.5l3 56c49.333 -8.66699 81.833 -1.5 97.5 21.5s23.5 61.167 23.5 114.5v292c0 42.667 -12.5 76.834 -37.5 102.501s-57.5 38.5 -97.5 38.5c-42 0 -76.5 -13.167 -103.5 -39.5
s-40.5 -61.5 -40.5 -105.5v-282h-78v345c0 43.333 -1.66699 68.666 -5 75.999c-5.33301 12.667 -22.333 18 -51 16l-2 47c89.333 14.667 134 -9 134 -71v-20c14 31.333 36.167 55.666 66.5 72.999s63.833 26 100.5 26c60.667 0 107.834 -19.167 141.501 -57.5
s50.5 -87.833 50.5 -148.5z" />
    <glyph glyph-name="Omacron" unicode="&#x14c;" horiz-adv-x="810" 
d="M760 350c0 -106 -33.001 -192.667 -99.001 -260s-151.667 -101 -257 -101c-101.333 0 -185.666 33 -252.999 99s-101 153.333 -101 262c0 109.333 34 197 102 263s152.333 99 253 99s185 -33.167 253 -99.5s102 -153.833 102 -262.5zM133.999 350
c0 -84 25.668 -152.333 77.001 -205s115.666 -79 192.999 -79c78 0 142.833 26.333 194.5 79s77.5 121 77.5 205s-25.667 152.667 -77 206s-116 80 -194 80c-77.333 0 -141.833 -26.5 -193.5 -79.5s-77.5 -121.833 -77.5 -206.5zM253 793v61h297v-61h-297z" />
    <glyph glyph-name="omacron" unicode="&#x14d;" 
d="M553 242c0 -40 -7.33301 -76.333 -22 -109s-33.834 -59 -57.501 -79s-50.667 -35.5 -81 -46.5s-61.5 -16.5 -93.5 -16.5s-63.167 5.5 -93.5 16.5s-57.333 26.5 -81 46.5s-42.834 46.167 -57.501 78.5s-22 68.833 -22 109.5s7.33301 77.334 22 110.001
s33.834 59 57.501 79s50.667 35.5 81 46.5s61.5 16.5 93.5 16.5s63.167 -5.5 93.5 -16.5s57.333 -26.5 81 -46.5s42.834 -46.333 57.501 -79s22 -69.334 22 -110.001zM124 242c0 -39.333 8.66699 -73.333 26 -102s39 -49.5 65 -62.5s54.167 -19.5 84.5 -19.5
s58.5 6.5 84.5 19.5s47.667 33.833 65 62.5s26 62.667 26 102s-8.66699 73.333 -26 102s-39 49.334 -65 62.001s-54.167 19 -84.5 19s-58.5 -6.33301 -84.5 -19s-47.667 -33.334 -65 -62.001s-26 -62.667 -26 -102zM148 598v61h297v-61h-297z" />
    <glyph glyph-name="Obreve" unicode="&#x14e;" horiz-adv-x="810" 
d="M760 350c0 -106 -33.001 -192.667 -99.001 -260s-151.667 -101 -257 -101c-101.333 0 -185.666 33 -252.999 99s-101 153.333 -101 262c0 109.333 34 197 102 263s152.333 99 253 99s185 -33.167 253 -99.5s102 -153.833 102 -262.5zM133.999 350
c0 -84 25.668 -152.333 77.001 -205s115.666 -79 192.999 -79c78 0 142.833 26.333 194.5 79s77.5 121 77.5 205s-25.667 152.667 -77 206s-116 80 -194 80c-77.333 0 -141.833 -26.5 -193.5 -79.5s-77.5 -121.833 -77.5 -206.5zM218 910h70.001
c4.66699 -24 17.667 -42.833 39 -56.5s43.833 -20.5 67.5 -20.5s46 6.83301 67 20.5s33.833 32.5 38.5 56.5h70c-4 -36 -18 -66.167 -42 -90.5s-52.333 -39.333 -85 -45s-65.334 -5.5 -98.001 0.5s-61 21 -85 45s-38 54 -42 90z" />
    <glyph glyph-name="obreve" unicode="&#x14f;" 
d="M553 242c0 -40 -7.33301 -76.333 -22 -109s-33.834 -59 -57.501 -79s-50.667 -35.5 -81 -46.5s-61.5 -16.5 -93.5 -16.5s-63.167 5.5 -93.5 16.5s-57.333 26.5 -81 46.5s-42.834 46.167 -57.501 78.5s-22 68.833 -22 109.5s7.33301 77.334 22 110.001
s33.834 59 57.501 79s50.667 35.5 81 46.5s61.5 16.5 93.5 16.5s63.167 -5.5 93.5 -16.5s57.333 -26.5 81 -46.5s42.834 -46.333 57.501 -79s22 -69.334 22 -110.001zM124 242c0 -39.333 8.66699 -73.333 26 -102s39 -49.5 65 -62.5s54.167 -19.5 84.5 -19.5
s58.5 6.5 84.5 19.5s47.667 33.833 65 62.5s26 62.667 26 102s-8.66699 73.333 -26 102s-39 49.334 -65 62.001s-54.167 19 -84.5 19s-58.5 -6.33301 -84.5 -19s-47.667 -33.334 -65 -62.001s-26 -62.667 -26 -102zM132 708l65.9971 0.00195312
c4 -18.667 12.833 -34 26.5 -46s29.334 -19.5 47.001 -22.5s35.334 -3 53.001 0s33.334 10.667 47.001 23s22.5 27.5 26.5 45.5h66c-3.33301 -28.667 -13.5 -53.334 -30.5 -74.001s-37.167 -35.667 -60.5 -45s-48.333 -13.833 -75 -13.5s-51.667 5.16602 -75 14.499
s-43.5 24.333 -60.5 45s-27.167 45 -30.5 73z" />
    <glyph glyph-name="Ohungarumlaut" unicode="&#x150;" horiz-adv-x="810" 
d="M271 769v7l59 127l72 -18v-7l-67 -109h-64zM455 769v7l59 121l71 -21v-8l-66 -99h-64zM760 350c0 -106 -33.001 -192.667 -99.001 -260s-151.667 -101 -257 -101c-101.333 0 -185.666 33 -252.999 99s-101 153.333 -101 262c0 109.333 34 197 102 263s152.333 99 253 99
s185 -33.167 253 -99.5s102 -153.833 102 -262.5zM133.999 350c0 -84 25.668 -152.333 77.001 -205s115.666 -79 192.999 -79c78 0 142.833 26.333 194.5 79s77.5 121 77.5 205s-25.667 152.667 -77 206s-116 80 -194 80c-77.333 0 -141.833 -26.5 -193.5 -79.5
s-77.5 -121.833 -77.5 -206.5z" />
    <glyph glyph-name="ohungarumlaut" unicode="&#x151;" 
d="M177 578v7l59 127l72 -18v-7l-67 -109h-64zM361 578v7l59 121l71 -21v-8l-66 -99h-64zM553 242c0 -40 -7.33301 -76.333 -22 -109s-33.834 -59 -57.501 -79s-50.667 -35.5 -81 -46.5s-61.5 -16.5 -93.5 -16.5s-63.167 5.5 -93.5 16.5s-57.333 26.5 -81 46.5
s-42.834 46.167 -57.501 78.5s-22 68.833 -22 109.5s7.33301 77.334 22 110.001s33.834 59 57.501 79s50.667 35.5 81 46.5s61.5 16.5 93.5 16.5s63.167 -5.5 93.5 -16.5s57.333 -26.5 81 -46.5s42.834 -46.333 57.501 -79s22 -69.334 22 -110.001zM124 242
c0 -39.333 8.66699 -73.333 26 -102s39 -49.5 65 -62.5s54.167 -19.5 84.5 -19.5s58.5 6.5 84.5 19.5s47.667 33.833 65 62.5s26 62.667 26 102s-8.66699 73.333 -26 102s-39 49.334 -65 62.001s-54.167 19 -84.5 19s-58.5 -6.33301 -84.5 -19s-47.667 -33.334 -65 -62.001
s-26 -62.667 -26 -102z" />
    <glyph glyph-name="OE" unicode="&#x152;" horiz-adv-x="928" 
d="M869 1h-356.999c-38.667 -9.33301 -75 -14 -109 -14c-104.667 0 -189.5 32.667 -254.5 98s-97.5 153.333 -97.5 264c0 112 33.167 200.167 99.5 264.5s152.833 96.5 259.5 96.5c37.333 0 72.666 -3.66699 105.999 -11h348v-70h-292v-230h276v-68h-276v-260h297v-70z
M132.001 349c0 -88.667 25.166 -160.167 75.499 -214.5s117.833 -81.5 202.5 -81.5c31.333 0 61.333 4.33301 90 13v564c-27.333 6 -57 9.66699 -89 11c-85.333 0 -153.166 -26.5 -203.499 -79.5s-75.5 -123.833 -75.5 -212.5z" />
    <glyph glyph-name="oe" unicode="&#x153;" horiz-adv-x="902" 
d="M45 240c0 45.333 8.50293 85.832 25.5029 121.499s38.833 63.167 65.5 82.5s56.667 32.666 90 39.999s65.666 7.5 96.999 0.5s60.666 -21.667 87.999 -44s48 -50.833 62 -85.5c14.667 42.667 38.667 76 72 100s73 36 119 36c50 0 91 -12 123 -36s53.167 -55.5 63.5 -94.5
s11.166 -82.167 2.49902 -129.5h-340c-0.666992 -54.667 12.833 -97.5 40.5 -128.5s67.5 -47.167 119.5 -48.5c46 -2.66699 96.333 8.66602 151 33.999l13 -60c-60 -26 -115 -38.667 -165 -38c-104 3.33301 -170.333 50 -199 140c-12 -35.333 -31.333 -64.666 -58 -87.999
s-55.667 -38.666 -87 -45.999s-63.833 -7.66602 -97.5 -0.999023s-64.167 19.667 -91.5 39s-49.833 47 -67.5 83s-26.5 77 -26.5 123zM121.003 239.999c0 -33.333 5.83301 -62.833 17.5 -88.5s26.834 -45.334 45.501 -59.001s39.167 -23.5 61.5 -29.5s44.833 -6 67.5 0
s43.334 15.833 62.001 29.5s33.834 33.334 45.501 59.001s17.5 55.167 17.5 88.5s-5.83301 62.833 -17.5 88.5s-26.834 45.334 -45.501 59.001s-39.167 23.5 -61.5 29.5s-44.833 6 -67.5 0s-43.334 -15.833 -62.001 -29.5s-33.834 -33.334 -45.501 -59.001
s-17.5 -55.167 -17.5 -88.5zM658.003 427.999c-40.667 0 -73 -12 -97 -36s-39.333 -57.667 -46 -101h273c2.66699 42 -7.83301 75.333 -31.5 100s-56.5 37 -98.5 37z" />
    <glyph glyph-name="Racute" unicode="&#x154;" horiz-adv-x="672" 
d="M444 268l198 -255.999v-12h-88l-194 257h-183v-257h-84v701h279c70.667 0 128.167 -21.333 172.5 -64s66.5 -96.334 66.5 -161.001c0 -52.667 -15.333 -97.5 -46 -134.5s-71 -61.5 -121 -73.5zM176 326.001l196 -0.000976562c45.333 0 83 14 113 42s45 64.333 45 109
s-14.833 80.834 -44.5 108.501s-67.5 41.5 -113.5 41.5h-196v-301zM332 769h-66v7l75 132l72 -29v-7z" />
    <glyph glyph-name="racute" unicode="&#x155;" horiz-adv-x="433" 
d="M163 418c24.667 53.333 73.3359 80 146.003 80c42 0 79.667 -12 113 -36l-19 -66c-33.333 21.333 -67.333 32 -102 32c-36 0 -67.167 -12.167 -93.5 -36.5s-39.5 -54.833 -39.5 -91.5v-300h-77v369c0 13.333 -0.333008 23.333 -1 30s-2.83398 13.5 -6.50098 20.5
s-9.5 11.667 -17.5 14s-19 2.83301 -33 1.5l-1 52c41.333 7.33301 73.166 6.33301 95.499 -3s34.166 -31.333 35.499 -66zM229.002 585h-63v6l71 127l69 -28v-7z" />
    <glyph glyph-name="Rcommaaccent" unicode="&#x156;" horiz-adv-x="672" 
d="M404 -131c-1.33301 -7.33301 -3.33203 -15.333 -5.99902 -24l-30 -95h-49l22 78c-23.333 8 -35 23 -35 45c0 14 4.66699 25.167 14 33.5s21 12.5 35 12.5c24.667 0 40.667 -11.333 48 -34c1.33301 -8.66699 1.66602 -14 0.999023 -16zM444.001 268l198 -255.999v-12h-88
l-194 257h-183v-257h-84v701h279c70.667 0 128.167 -21.333 172.5 -64s66.5 -96.334 66.5 -161.001c0 -52.667 -15.333 -97.5 -46 -134.5s-71 -61.5 -121 -73.5zM176.001 326.001l196 -0.000976562c45.333 0 83 14 113 42s45 64.333 45 109s-14.833 80.834 -44.5 108.501
s-67.5 41.5 -113.5 41.5h-196v-301z" />
    <glyph glyph-name="rcommaaccent" unicode="&#x157;" horiz-adv-x="433" 
d="M185 -142c-0.666992 -6.66699 -2.66602 -14.667 -5.99902 -24l-30 -95h-49l22 78c-23.333 8 -35 23 -35 45c0 14 4.66699 25.167 14 33.5s21 12.5 35 12.5c24.667 0 40.667 -11.333 48 -34c1.33301 -8.66699 1.66602 -14 0.999023 -16zM163.001 418
c24.667 53.333 73.3359 80 146.003 80c42 0 79.667 -12 113 -36l-19 -66c-33.333 21.333 -67.333 32 -102 32c-36 0 -67.167 -12.167 -93.5 -36.5s-39.5 -54.833 -39.5 -91.5v-300h-77v369c0 13.333 -0.333008 23.333 -1 30s-2.83398 13.5 -6.50098 20.5
s-9.5 11.667 -17.5 14s-19 2.83301 -33 1.5l-1 52c41.333 7.33301 73.166 6.33301 95.499 -3s34.166 -31.333 35.499 -66z" />
    <glyph glyph-name="Rcaron" unicode="&#x158;" horiz-adv-x="672" 
d="M444 268l198 -255.999v-12h-88l-194 257h-183v-257h-84v701h279c70.667 0 128.167 -21.333 172.5 -64s66.5 -96.334 66.5 -161.001c0 -52.667 -15.333 -97.5 -46 -134.5s-71 -61.5 -121 -73.5zM176 326.001l196 -0.000976562c45.333 0 83 14 113 42s45 64.333 45 109
s-14.833 80.834 -44.5 108.501s-67.5 41.5 -113.5 41.5h-196v-301zM133 906h79l98 -92l98 92h81v-9l-139 -132h-79l-138 134v7z" />
    <glyph glyph-name="rcaron" unicode="&#x159;" horiz-adv-x="433" 
d="M163 418c24.667 53.333 73.3359 80 146.003 80c42 0 79.667 -12 113 -36l-19 -66c-33.333 21.333 -67.333 32 -102 32c-36 0 -67.167 -12.167 -93.5 -36.5s-39.5 -54.833 -39.5 -91.5v-300h-77v369c0 13.333 -0.333008 23.333 -1 30s-2.83398 13.5 -6.50098 20.5
s-9.5 11.667 -17.5 14s-19 2.83301 -33 1.5l-1 52c41.333 7.33301 73.166 6.33301 95.499 -3s34.166 -31.333 35.499 -66zM54.002 710h74l91 -87l92 87h76v-8l-130 -125h-74l-129 127v6z" />
    <glyph glyph-name="Sacute" unicode="&#x15a;" horiz-adv-x="646" 
d="M47 191l80.9971 0.00488281c1.33301 -29.333 13 -54.333 35 -75s47 -35 75 -43s57.667 -12 89 -12c32 1.33301 61 5.66602 87 12.999s49.5 21.333 70.5 42s31.833 47 32.5 79c0 12 -1 23.167 -3 33.5s-5.83301 19.333 -11.5 27s-11 14.334 -16 20.001
s-12.667 10.667 -23 15s-18.333 7.83301 -24 10.5s-15.5 5.33398 -29.5 8.00098s-24 4.5 -30 5.5s-17 2.5 -33 4.5s-26.333 3.33301 -31 4c-36 4 -67.5 9.16699 -94.5 15.5s-53.5 16.166 -79.5 29.499s-46 31.833 -60 55.5s-21 52.167 -21 85.5
c0 44 12.833 81.833 38.5 113.5s57.334 54.5 95.001 68.5s77.834 21 120.501 21c31.333 0.666992 61.833 -2.66602 91.5 -9.99902s57.167 -18.5 82.5 -33.5s46 -35.333 62 -61s24.667 -54.834 26 -87.501h-78c-2.66699 28 -13.834 51.167 -33.501 69.5s-42 30.833 -67 37.5
s-52.167 10 -81.5 10c-46 -2 -86.333 -13.167 -121 -33.5s-52 -51.5 -52 -93.5c0 -10 1.16699 -19.333 3.5 -28s4.83301 -16.334 7.5 -23.001s7.33398 -12.834 14.001 -18.501s11.834 -10.334 15.501 -14.001s10.667 -7.33398 21 -11.001s17.666 -6.33398 21.999 -8.00098
s12.833 -3.5 25.5 -5.5s20.834 -3.33301 24.501 -4s12.667 -2 27 -4s22.833 -3 25.5 -3c33.333 -4 60.833 -8 82.5 -12s45.5 -10.5 71.5 -19.5s46.5 -20 61.5 -33s27.667 -30.667 38 -53s15.5 -48.5 15.5 -78.5c0 -47.333 -14.167 -87 -42.5 -119s-62 -54.333 -101 -67
s-81.5 -19.667 -127.5 -21c-33.333 -0.666992 -66 2.83301 -98 10.5s-61.667 19.5 -89 35.5s-49.5 37.5 -66.5 64.5s-26.167 57.833 -27.5 92.5zM340.997 774.005h-66v7l75 132l72 -29v-7z" />
    <glyph glyph-name="sacute" unicode="&#x15b;" horiz-adv-x="509" 
d="M40 136l75.999 -0.000976562c2 -28.667 16.5 -50 43.5 -64s58.5 -21 94.5 -21s67.333 7.5 94 22.5s40.667 36.5 42 64.5c0 25.333 -10 43.166 -30 53.499s-55 19.166 -105 26.499c-22.667 2.66699 -42 5.5 -58 8.5s-33.667 7.66699 -53 14s-35 13.833 -47 22.5
s-22.167 20.334 -30.5 35.001s-12.833 31.667 -13.5 51c-1.33301 46.667 17.834 82.167 57.501 106.5s87.167 36.5 142.5 36.5c54.667 0 102 -12 142 -36s59.333 -58 58 -102h-75c0 24.667 -12.167 43.5 -36.5 56.5s-53.833 19.5 -88.5 19.5s-64.667 -6.66699 -90 -20
s-37.333 -33 -36 -59c0.666992 -22 11 -37.667 31 -47s54.667 -17.666 104 -24.999c22.667 -2.66699 39.834 -5 51.501 -7s27 -5.16699 46 -9.5s33.667 -9.66602 44 -15.999s21.166 -14.333 32.499 -24s19.333 -21.5 24 -35.5s6.66699 -30.333 6 -49
c0 -46.667 -20.333 -83 -61 -109s-91 -39.667 -151 -41c-58.667 0 -108 11.833 -148 35.5s-62 61.167 -66 112.5zM276.999 581.999h-63v6l71 126l69 -28v-6z" />
    <glyph glyph-name="Scircumflex" unicode="&#x15c;" horiz-adv-x="646" 
d="M47 191l80.9971 0.00488281c1.33301 -29.333 13 -54.333 35 -75s47 -35 75 -43s57.667 -12 89 -12c32 1.33301 61 5.66602 87 12.999s49.5 21.333 70.5 42s31.833 47 32.5 79c0 12 -1 23.167 -3 33.5s-5.83301 19.333 -11.5 27s-11 14.334 -16 20.001
s-12.667 10.667 -23 15s-18.333 7.83301 -24 10.5s-15.5 5.33398 -29.5 8.00098s-24 4.5 -30 5.5s-17 2.5 -33 4.5s-26.333 3.33301 -31 4c-36 4 -67.5 9.16699 -94.5 15.5s-53.5 16.166 -79.5 29.499s-46 31.833 -60 55.5s-21 52.167 -21 85.5
c0 44 12.833 81.833 38.5 113.5s57.334 54.5 95.001 68.5s77.834 21 120.501 21c31.333 0.666992 61.833 -2.66602 91.5 -9.99902s57.167 -18.5 82.5 -33.5s46 -35.333 62 -61s24.667 -54.834 26 -87.501h-78c-2.66699 28 -13.834 51.167 -33.501 69.5s-42 30.833 -67 37.5
s-52.167 10 -81.5 10c-46 -2 -86.333 -13.167 -121 -33.5s-52 -51.5 -52 -93.5c0 -10 1.16699 -19.333 3.5 -28s4.83301 -16.334 7.5 -23.001s7.33398 -12.834 14.001 -18.501s11.834 -10.334 15.501 -14.001s10.667 -7.33398 21 -11.001s17.666 -6.33398 21.999 -8.00098
s12.833 -3.5 25.5 -5.5s20.834 -3.33301 24.501 -4s12.667 -2 27 -4s22.833 -3 25.5 -3c33.333 -4 60.833 -8 82.5 -12s45.5 -10.5 71.5 -19.5s46.5 -20 61.5 -33s27.667 -30.667 38 -53s15.5 -48.5 15.5 -78.5c0 -47.333 -14.167 -87 -42.5 -119s-62 -54.333 -101 -67
s-81.5 -19.667 -127.5 -21c-33.333 -0.666992 -66 2.83301 -98 10.5s-61.667 19.5 -89 35.5s-49.5 37.5 -66.5 64.5s-26.167 57.833 -27.5 92.5zM497.997 768.005h-79l-98 91l-98 -91h-81v8l139 132h79l138 -133v-7z" />
    <glyph glyph-name="scircumflex" unicode="&#x15d;" horiz-adv-x="509" 
d="M40 136l75.999 -0.000976562c2 -28.667 16.5 -50 43.5 -64s58.5 -21 94.5 -21s67.333 7.5 94 22.5s40.667 36.5 42 64.5c0 25.333 -10 43.166 -30 53.499s-55 19.166 -105 26.499c-22.667 2.66699 -42 5.5 -58 8.5s-33.667 7.66699 -53 14s-35 13.833 -47 22.5
s-22.167 20.334 -30.5 35.001s-12.833 31.667 -13.5 51c-1.33301 46.667 17.834 82.167 57.501 106.5s87.167 36.5 142.5 36.5c54.667 0 102 -12 142 -36s59.333 -58 58 -102h-75c0 24.667 -12.167 43.5 -36.5 56.5s-53.833 19.5 -88.5 19.5s-64.667 -6.66699 -90 -20
s-37.333 -33 -36 -59c0.666992 -22 11 -37.667 31 -47s54.667 -17.666 104 -24.999c22.667 -2.66699 39.834 -5 51.501 -7s27 -5.16699 46 -9.5s33.667 -9.66602 44 -15.999s21.166 -14.333 32.499 -24s19.333 -21.5 24 -35.5s6.66699 -30.333 6 -49
c0 -46.667 -20.333 -83 -61 -109s-91 -39.667 -151 -41c-58.667 0 -108 11.833 -148 35.5s-62 61.167 -66 112.5zM413.999 579.999h-70l-88 85l-88 -85h-73v7l125 124h71l123 -124v-7z" />
    <glyph glyph-name="Scedilla" unicode="&#x15e;" horiz-adv-x="646" 
d="M47 191l80.9961 -0.00195312c1.33301 -29.333 13 -54.333 35 -75s47 -35 75 -43s57.667 -12 89 -12c48.667 2 92.167 14.333 130.5 37s58.166 55 59.499 97c0 19.333 -4.16699 36.333 -12.5 51s-16.833 25.834 -25.5 33.501s-24 14.667 -46 21s-37.667 10.333 -47 12
s-28.333 4.5 -57 8.5c-1.33301 0 -2.33301 0.166992 -3 0.5s-1.66699 0.5 -3 0.5s-2.5 0.166992 -3.5 0.5s-2.16699 0.5 -3.5 0.5c-36 4 -67.5 9.16699 -94.5 15.5s-53.5 16.166 -79.5 29.499s-46 31.833 -60 55.5s-21 52.167 -21 85.5c0 44 12.833 81.833 38.5 113.5
s57.334 54.5 95.001 68.5s77.834 21 120.501 21c42 1.33301 82.167 -4.5 120.5 -17.5s71.333 -35 99 -66s42.167 -68.167 43.5 -111.5h-78c-4 40.667 -24 70.834 -60 90.501s-77 29.5 -123 29.5c-46 -2 -86.333 -13.167 -121 -33.5s-52 -51.5 -52 -93.5
c0 -18.667 4.16699 -34.834 12.5 -48.501s17.5 -24.167 27.5 -31.5s25 -14 45 -20s35.833 -9.83301 47.5 -11.5l53.5 -7.5c33.333 -4 60.833 -8 82.5 -12s45.5 -10.5 71.5 -19.5s46.5 -20 61.5 -33s27.667 -30.667 38 -53s15.5 -48.5 15.5 -78.5
c0 -58.667 -23.167 -105.667 -69.5 -141s-100.833 -56 -163.5 -62l-16 -66c32.667 -1.33301 56.834 -11.666 72.501 -30.999s18.834 -43.666 9.50098 -72.999c-7.33301 -26 -24 -44.5 -50 -55.5s-53.5 -14.167 -82.5 -9.5s-53.833 14.667 -74.5 30l4 47
c18 -16 44.333 -24 79 -24s54 11.333 58 34c7.33301 22 1.83301 38.333 -16.5 49s-39.5 15 -63.5 13l21 83c-43.333 2 -83.666 9.83301 -120.999 23.5s-69.5 36 -96.5 67s-41.167 68.167 -42.5 111.5z" />
    <glyph glyph-name="scedilla" unicode="&#x15f;" horiz-adv-x="511" 
d="M42 136h76.001c2 -28.667 16.5 -50 43.5 -64s58.5 -21 94.5 -21s67.333 7.5 94 22.5s40.667 36.5 42 64.5c0 25.333 -10 43.166 -30 53.499s-55 19.166 -105 26.499c-22.667 2.66699 -42 5.5 -58 8.5s-33.667 7.66699 -53 14s-35 13.833 -47 22.5
s-22.167 20.334 -30.5 35.001s-12.833 31.667 -13.5 51c-1.33301 46.667 17.834 82.167 57.501 106.5s87.167 36.5 142.5 36.5c54.667 0 102 -12 142 -36s59.333 -58 58 -102h-75c0 24.667 -12.167 43.5 -36.5 56.5s-53.833 19.5 -88.5 19.5s-64.667 -6.66699 -90 -20
s-37.333 -33 -36 -59c0.666992 -22 11 -37.667 31 -47s54.667 -17.666 104 -24.999c22.667 -2.66699 39.834 -5 51.501 -7s27 -5.16699 46 -9.5s33.667 -9.66602 44 -15.999s21.166 -14.333 32.499 -24s19.333 -21.5 24 -35.5s6.66699 -30.333 6 -49
c0 -41.333 -16.833 -74.833 -50.5 -100.5s-75.834 -41.5 -126.501 -47.5l-10 -45c29.333 -1.33301 51.166 -10.833 65.499 -28.5s17.5 -39.834 9.5 -66.501c-7.33301 -23.333 -22.833 -40.166 -46.5 -50.499s-48.667 -13.5 -75 -9.5s-49.166 13.333 -68.499 28l4 43
c17.333 -15.333 41.5 -23.333 72.5 -24s49.833 8.66602 56.5 27.999c7.33301 20.667 1.66602 36.667 -17.001 48s-38.667 16 -60 14l13 62c-54 2.66699 -98.667 15.667 -134 39s-55 59.333 -59 108z" />
    <glyph glyph-name="Scaron" unicode="&#x160;" horiz-adv-x="646" 
d="M47 191l80.9971 0.00488281c1.33301 -29.333 13 -54.333 35 -75s47 -35 75 -43s57.667 -12 89 -12c32 1.33301 61 5.66602 87 12.999s49.5 21.333 70.5 42s31.833 47 32.5 79c0 12 -1 23.167 -3 33.5s-5.83301 19.333 -11.5 27s-11 14.334 -16 20.001
s-12.667 10.667 -23 15s-18.333 7.83301 -24 10.5s-15.5 5.33398 -29.5 8.00098s-24 4.5 -30 5.5s-17 2.5 -33 4.5s-26.333 3.33301 -31 4c-36 4 -67.5 9.16699 -94.5 15.5s-53.5 16.166 -79.5 29.499s-46 31.833 -60 55.5s-21 52.167 -21 85.5
c0 44 12.833 81.833 38.5 113.5s57.334 54.5 95.001 68.5s77.834 21 120.501 21c31.333 0.666992 61.833 -2.66602 91.5 -9.99902s57.167 -18.5 82.5 -33.5s46 -35.333 62 -61s24.667 -54.834 26 -87.501h-78c-2.66699 28 -13.834 51.167 -33.501 69.5s-42 30.833 -67 37.5
s-52.167 10 -81.5 10c-46 -2 -86.333 -13.167 -121 -33.5s-52 -51.5 -52 -93.5c0 -10 1.16699 -19.333 3.5 -28s4.83301 -16.334 7.5 -23.001s7.33398 -12.834 14.001 -18.501s11.834 -10.334 15.501 -14.001s10.667 -7.33398 21 -11.001s17.666 -6.33398 21.999 -8.00098
s12.833 -3.5 25.5 -5.5s20.834 -3.33301 24.501 -4s12.667 -2 27 -4s22.833 -3 25.5 -3c33.333 -4 60.833 -8 82.5 -12s45.5 -10.5 71.5 -19.5s46.5 -20 61.5 -33s27.667 -30.667 38 -53s15.5 -48.5 15.5 -78.5c0 -47.333 -14.167 -87 -42.5 -119s-62 -54.333 -101 -67
s-81.5 -19.667 -127.5 -21c-33.333 -0.666992 -66 2.83301 -98 10.5s-61.667 19.5 -89 35.5s-49.5 37.5 -66.5 64.5s-26.167 57.833 -27.5 92.5zM147.997 928.005h79l98 -92l98 92h81v-9l-139 -132h-79l-138 134v7z" />
    <glyph glyph-name="scaron" unicode="&#x161;" horiz-adv-x="509" 
d="M40 136l75.999 -0.000976562c2 -28.667 16.5 -50 43.5 -64s58.5 -21 94.5 -21s67.333 7.5 94 22.5s40.667 36.5 42 64.5c0 25.333 -10 43.166 -30 53.499s-55 19.166 -105 26.499c-22.667 2.66699 -42 5.5 -58 8.5s-33.667 7.66699 -53 14s-35 13.833 -47 22.5
s-22.167 20.334 -30.5 35.001s-12.833 31.667 -13.5 51c-1.33301 46.667 17.834 82.167 57.501 106.5s87.167 36.5 142.5 36.5c54.667 0 102 -12 142 -36s59.333 -58 58 -102h-75c0 24.667 -12.167 43.5 -36.5 56.5s-53.833 19.5 -88.5 19.5s-64.667 -6.66699 -90 -20
s-37.333 -33 -36 -59c0.666992 -22 11 -37.667 31 -47s54.667 -17.666 104 -24.999c22.667 -2.66699 39.834 -5 51.501 -7s27 -5.16699 46 -9.5s33.667 -9.66602 44 -15.999s21.166 -14.333 32.499 -24s19.333 -21.5 24 -35.5s6.66699 -30.333 6 -49
c0 -46.667 -20.333 -83 -61 -109s-91 -39.667 -151 -41c-58.667 0 -108 11.833 -148 35.5s-62 61.167 -66 112.5zM94.999 689.999h72l88 -83l89 83h74v-8l-126 -119h-72l-125 120v7z" />
    <glyph glyph-name="Tcommaaccent" unicode="&#x162;" horiz-adv-x="529" 
d="M224 625l-206 -0.00195312v75h493v-75h-206v-625h-11l-15 -62c32.667 -1.33301 56.667 -11.666 72 -30.999s18.333 -43.666 9 -72.999c-8 -26 -25 -44.5 -51 -55.5s-53.333 -14.167 -82 -9.5s-53.667 14.667 -75 30l4 47c17.333 -17.333 42.833 -26 76.5 -26
s54.167 12 61.5 36c7.33301 22 1.5 38.333 -17.5 49s-40.167 15 -63.5 13l21 82h-10v625z" />
    <glyph glyph-name="tcommaaccent" unicode="&#x163;" horiz-adv-x="421" 
d="M205 630v-150h177v-57h-177v-231c0 -62.667 17.5 -104.334 52.5 -125.001s81.5 -19.667 139.5 3l9 -62c-38 -13.333 -76 -19.333 -114 -18l-13 -52c32.667 -1.33301 56.667 -11.666 72 -30.999s18.333 -43.666 9 -72.999c-8 -26 -25 -44.5 -51 -55.5
s-53.333 -14.167 -82 -9.5s-53.667 14.667 -75 30l4 47c17.333 -17.333 42.833 -26 76.5 -26s54.167 12 61.5 36c7.33301 22 1.5 38.333 -17.5 49s-40.167 15 -63.5 13l21 79c-71.333 19.333 -107 83.666 -107 192.999v233l-103 5v52h103l8 150h70z" />
    <glyph glyph-name="Tcaron" unicode="&#x164;" horiz-adv-x="549" 
d="M234 625h-216v75h513v-75h-216v-625h-81v625zM94 908h79l98 -92l98 92h81v-9l-139 -132h-79l-138 134v7z" />
    <glyph glyph-name="tcaron" unicode="&#x165;" horiz-adv-x="409" 
d="M204 630v-149.999h127v-57h-127v-236c0 -60 17.5 -99.833 52.5 -119.5s81.5 -18.167 139.5 4.5l9 -63c-56 -16.667 -104.667 -22.834 -146 -18.501s-73.833 23 -97.5 56s-35.5 79.167 -35.5 138.5v238l-103 5v52h108l8 150h65zM420 588.001c0 -6 -1.66699 -13.333 -5 -22
l-26 -79h-47l19 63c-22 6 -33 20 -33 42c0 13.333 4.16699 23.833 12.5 31.5s19.5 11.5 33.5 11.5c24.667 0 39.667 -10.333 45 -31c0.666992 -4.66699 1 -10 1 -16z" />
    <glyph glyph-name="Tbar" unicode="&#x166;" horiz-adv-x="549" 
d="M117 282v64h117v279h-206v75h493v-75h-206v-279h114v-64h-114v-282h-81v282h-117z" />
    <glyph glyph-name="tbar" unicode="&#x167;" horiz-adv-x="425" 
d="M208 630v-150h177v-57h-177v-151h112v-57h-112v-31c0 -61.333 17.5 -101.333 52.5 -120s81.5 -16.667 139.5 6l9 -62c-56 -16.667 -104.667 -23 -146 -19s-73.833 22.333 -97.5 55s-35.5 78.667 -35.5 138v33h-87v57h87v151c-24 2 -58.333 3.66699 -103 5v52h103l8 150
h70z" />
    <glyph glyph-name="Utilde" unicode="&#x168;" horiz-adv-x="707" 
d="M355 -9c-78 0 -142.333 22 -193 66s-76 104.333 -76 181v462h84v-461c0 -54 17.167 -96.333 51.5 -127s78.833 -46 133.5 -46s99 15.333 133 46s51 73 51 127v461h82v-462c0 -76.667 -24.833 -137 -74.5 -181s-113.5 -66 -191.5 -66zM246 770l-43.001 22.001
c18 37.333 41.333 61.166 70 71.499s62.334 4.83301 101.001 -16.5c44 -30 77.667 -23.667 101 19l20.5 -10.5l22.5 -11.5c-14.667 -36.667 -36.667 -60.5 -66 -71.5s-62 -6.16699 -98 14.5c-48 30 -84 24.333 -108 -17z" />
    <glyph glyph-name="utilde" unicode="&#x169;" horiz-adv-x="587" 
d="M417 482l78.001 -0.00195312v-353c0 -35.333 3.33301 -57.5 10 -66.5s22.334 -12.167 47.001 -9.5l1 -54c-43.333 -7.33301 -76.333 -6.16602 -99 3.50098s-33 33.834 -31 72.501c-30.667 -55.333 -88 -83 -172 -83c-61.333 0 -106.833 19 -136.5 57
s-44.5 88.667 -44.5 152v281h79v-281c-0.666992 -44.667 10.166 -80 32.499 -106s53.166 -39 92.499 -39c42.667 0 77.167 13.167 103.5 39.5s39.5 61.833 39.5 106.5v280zM164.001 612.998l-42.002 21c16.667 36.667 39.334 59.834 68.001 69.501
s61.334 4.16699 98.001 -16.5c44 -28 76.667 -21.667 98 19c4.66699 -2 11.5 -5.5 20.5 -10.5s16.167 -8.83301 21.5 -11.5c-14.667 -34.667 -36.167 -57.334 -64.5 -68.001s-59.833 -6.33398 -94.5 12.999c-46.667 30.667 -81.667 25.334 -105 -15.999z" />
    <glyph glyph-name="Umacron" unicode="&#x16a;" horiz-adv-x="707" 
d="M355 -9c-78 0 -142.333 22 -193 66s-76 104.333 -76 181v462h84v-461c0 -54 17.167 -96.333 51.5 -127s78.833 -46 133.5 -46s99 15.333 133 46s51 73 51 127v461h82v-462c0 -76.667 -24.833 -137 -74.5 -181s-113.5 -66 -191.5 -66zM205 784v61h297v-61h-297z" />
    <glyph glyph-name="umacron" unicode="&#x16b;" horiz-adv-x="587" 
d="M417 482l78.001 -0.00195312v-353c0 -35.333 3.33301 -57.5 10 -66.5s22.334 -12.167 47.001 -9.5l1 -54c-43.333 -7.33301 -76.333 -6.16602 -99 3.50098s-33 33.834 -31 72.501c-30.667 -55.333 -88 -83 -172 -83c-61.333 0 -106.833 19 -136.5 57
s-44.5 88.667 -44.5 152v281h79v-281c-0.666992 -44.667 10.166 -80 32.499 -106s53.166 -39 92.499 -39c42.667 0 77.167 13.167 103.5 39.5s39.5 61.833 39.5 106.5v280zM144.001 605.998v61h297v-61h-297z" />
    <glyph glyph-name="Ubreve" unicode="&#x16c;" horiz-adv-x="707" 
d="M355 -9c-78 0 -142.333 22 -193 66s-76 104.333 -76 181v462h84v-461c0 -54 17.167 -96.333 51.5 -127s78.833 -46 133.5 -46s99 15.333 133 46s51 73 51 127v461h82v-462c0 -76.667 -24.833 -137 -74.5 -181s-113.5 -66 -191.5 -66zM178 888h70.001
c4.66699 -24 17.667 -42.833 39 -56.5s43.833 -20.5 67.5 -20.5s46 6.83301 67 20.5s33.833 32.5 38.5 56.5h70c-4 -36 -18 -66.167 -42 -90.5s-52.333 -39.333 -85 -45s-65.334 -5.5 -98.001 0.5s-61 21 -85 45s-38 54 -42 90z" />
    <glyph glyph-name="ubreve" unicode="&#x16d;" horiz-adv-x="587" 
d="M417 482l78.001 -0.00195312v-353c0 -35.333 3.33301 -57.5 10 -66.5s22.334 -12.167 47.001 -9.5l1 -54c-43.333 -7.33301 -76.333 -6.16602 -99 3.50098s-33 33.834 -31 72.501c-30.667 -55.333 -88 -83 -172 -83c-61.333 0 -106.833 19 -136.5 57
s-44.5 88.667 -44.5 152v281h79v-281c-0.666992 -44.667 10.166 -80 32.499 -106s53.166 -39 92.499 -39c42.667 0 77.167 13.167 103.5 39.5s39.5 61.833 39.5 106.5v280zM114.001 703.998l64.9941 -0.00195312c6.66699 -30 24.834 -51 54.501 -63s59.334 -12 89.001 0
s47.834 33 54.501 63h65c-4 -34 -17.167 -62.333 -39.5 -85s-48.666 -36.667 -78.999 -42s-60.666 -5.16602 -90.999 0.500977s-56.666 19.834 -78.999 42.501s-35.5 50.667 -39.5 84z" />
    <glyph glyph-name="Uring" unicode="&#x16e;" horiz-adv-x="707" 
d="M355 -9c-78 0 -142.333 22 -193 66s-76 104.333 -76 181v462h84v-461c0 -54 17.167 -96.333 51.5 -127s78.833 -46 133.5 -46s99 15.333 133 46s51 73 51 127v461h82v-462c0 -76.667 -24.833 -137 -74.5 -181s-113.5 -66 -191.5 -66zM466 828
c0 -32.667 -11.667 -58.334 -35 -77.001s-49.166 -28 -77.499 -28s-54.166 9.33301 -77.499 28s-35 44.334 -35 77.001s11.667 58.334 35 77.001s49.166 28 77.499 28s54.166 -9.33301 77.499 -28s35 -44.334 35 -77.001zM288 828c0 -18.667 6.83301 -33.5 20.5 -44.5
s28.667 -16.5 45 -16.5s31.333 5.5 45 16.5s20.5 25.833 20.5 44.5s-6.83301 33.5 -20.5 44.5s-28.667 16.5 -45 16.5s-31.333 -5.5 -45 -16.5s-20.5 -25.833 -20.5 -44.5z" />
    <glyph glyph-name="uring" unicode="&#x16f;" horiz-adv-x="587" 
d="M417 482l78.001 -0.00195312v-353c0 -35.333 3.33301 -57.5 10 -66.5s22.334 -12.167 47.001 -9.5l1 -54c-43.333 -7.33301 -76.333 -6.16602 -99 3.50098s-33 33.834 -31 72.501c-30.667 -55.333 -88 -83 -172 -83c-61.333 0 -106.833 19 -136.5 57
s-44.5 88.667 -44.5 152v281h79v-281c-0.666992 -44.667 10.166 -80 32.499 -106s53.166 -39 92.499 -39c42.667 0 77.167 13.167 103.5 39.5s39.5 61.833 39.5 106.5v280zM385.001 636.998c0 -30 -11.333 -53.667 -34 -71s-47.834 -26 -75.501 -26
s-52.834 8.66699 -75.501 26s-34 41 -34 71c0 30.667 11.333 54.667 34 72s47.834 26 75.501 26s52.834 -8.66699 75.501 -26s34 -41.333 34 -72zM212.001 636.998c0 -17.333 6.66699 -31 20 -41s27.833 -15 43.5 -15s30.167 5 43.5 15s20 23.667 20 41
c0 23.333 -10.5 40 -31.5 50s-42.167 10 -63.5 0s-32 -26.667 -32 -50z" />
    <glyph glyph-name="Uhungarumlaut" unicode="&#x170;" horiz-adv-x="707" 
d="M355 -9c-78 0 -142.333 22 -193 66s-76 104.333 -76 181v462h84v-461c0 -54 17.167 -96.333 51.5 -127s78.833 -46 133.5 -46s99 15.333 133 46s51 73 51 127v461h82v-462c0 -76.667 -24.833 -137 -74.5 -181s-113.5 -66 -191.5 -66zM222 794v7l59 127l72 -18v-7
l-67 -109h-64zM406 794v7l59 121l71 -21v-8l-66 -99h-64z" />
    <glyph glyph-name="uhungarumlaut" unicode="&#x171;" horiz-adv-x="587" 
d="M417 482l78.001 -0.00195312v-353c0 -35.333 3.33301 -57.5 10 -66.5s22.334 -12.167 47.001 -9.5l1 -54c-43.333 -7.33301 -76.333 -6.16602 -99 3.50098s-33 33.834 -31 72.501c-30.667 -55.333 -88 -83 -172 -83c-61.333 0 -106.833 19 -136.5 57
s-44.5 88.667 -44.5 152v281h79v-281c-0.666992 -44.667 10.166 -80 32.499 -106s53.166 -39 92.499 -39c42.667 0 77.167 13.167 103.5 39.5s39.5 61.833 39.5 106.5v280zM165.001 588.998v7l56 120l68 -17v-7l-63 -103h-61zM339.001 588.998v7l56 114l67 -19v-8l-63 -94
h-60z" />
    <glyph glyph-name="Uogonek" unicode="&#x172;" horiz-adv-x="708" 
d="M355 -9c-78 0 -142.333 21.9961 -193 65.9961s-76 104.333 -76 181v462h84v-461c0 -53.333 17 -95.5 51 -126.5s78.667 -46.5 134 -46.5c54.667 0 99 15.333 133 46s51 73 51 127v461h82v-462c0 -54.667 -12.667 -101 -38 -139s-60.333 -66.333 -105 -85
c-18 -13.333 -31.167 -29.666 -39.5 -48.999s-8.16602 -38.666 0.500977 -57.999c8.66699 -16 21.5 -25.667 38.5 -29s33.333 -2.83301 49 1.5s31.167 10.5 46.5 18.5l10 -53c-16.667 -9.33301 -34.834 -16.5 -54.501 -21.5s-39.5 -7.16699 -59.5 -6.5
s-38.333 6.33398 -55 17.001s-28.667 26.334 -36 47.001c-18 38.667 -9.66699 77 25 115c-18.667 -3.33301 -34.667 -5 -48 -5z" />
    <glyph glyph-name="uogonek" unicode="&#x173;" horiz-adv-x="585" 
d="M417 482l78.001 0.00292969v-316c0 -7.33301 -0.166992 -17.5 -0.5 -30.5s-0.5 -22.5 -0.5 -28.5s0.5 -13.667 1.5 -23s2.66699 -16 5 -20s5.5 -8.16699 9.5 -12.5s9.5 -7 16.5 -8s15.5 -0.833008 25.5 0.5l1 -47c-28.667 -4.66699 -50.667 -6 -66 -4
c-16.667 -12 -29.167 -27.833 -37.5 -47.5s-8.16602 -37.834 0.500977 -54.501c8.66699 -14 20.667 -22.833 36 -26.5s30.166 -3.5 44.499 0.5s28.833 10.333 43.5 19l9 -50c-22 -12 -45.167 -20 -69.5 -24s-48 -1.16699 -71 8.5s-39.167 27.5 -48.5 53.5
c-10 23.333 -9.33301 46.666 2 69.999s28 43.333 50 60c-18 12 -27 35.333 -27 70v25c-14 -34.667 -35.833 -60.834 -65.5 -78.501s-63.834 -26.5 -102.501 -26.5c-67.333 0 -114.333 21 -141 63s-40 100 -40 174v253h79v-253c0 -54.667 9.16699 -97.167 27.5 -127.5
s50.833 -45.5 97.5 -45.5c42.667 0 77.167 13.167 103.5 39.5s39.5 61.833 39.5 106.5v280z" />
    <glyph glyph-name="Wcircumflex" unicode="&#x174;" horiz-adv-x="965" 
d="M462 687h41l183 -544h2l76 299l80 258h87v-11l-215 -693h-58l-175 514h-1l-173 -514h-58l-218 691v13h89l80 -259l80 -298h1zM655 765h-79l-98 91l-98 -91h-81v8l139 132h79l138 -133v-7z" />
    <glyph glyph-name="wcircumflex" unicode="&#x175;" horiz-adv-x="758" 
d="M249 -4h-35l-188 477v9h84l71 -190l51 -156h2l129 334h31l131 -334h1l52 156l35.5 95c15.667 42 27.167 73.667 34.5 95h85v-9l-190 -477h-36l-127 324zM543 580h-75l-93 86l-93 -86h-77v7l132 125h75l131 -126v-6z" />
    <glyph glyph-name="Ycircumflex" unicode="&#x176;" horiz-adv-x="628" 
d="M313 366h3l101 170l102 164h89v-12l-252 -401v-287h-84v287l-253 402v11h91l102 -163zM488 765h-79l-98 91l-98 -91h-81v8l139 132h79l138 -133v-7z" />
    <glyph glyph-name="ycircumflex" unicode="&#x177;" horiz-adv-x="547" 
d="M518 473l-212.002 -507l-24 -55.5c-5.33301 -12.333 -13.5 -29.166 -24.5 -50.499s-20.833 -37 -29.5 -47s-20 -21 -34 -33s-28.167 -19.5 -42.5 -22.5s-31.166 -3.5 -50.499 -1.5s-40 7.66699 -62 17l11 58c42 -19.333 74.833 -19.833 98.5 -1.5
s44.834 51.166 63.501 98.499l28 68l-221 477v8h83l96 -214l79 -191h1l73 189l88 216h79v-8zM447.998 577h-79l-98 91l-98 -91h-81v8l139 132h79l138 -133v-7z" />
    <glyph glyph-name="Ydieresis" unicode="&#x178;" horiz-adv-x="628" 
d="M313 366h3l101 170l102 164h89v-12l-252 -401v-287h-84v287l-253 402v11h91l102 -163zM430 752c-14 0 -25.667 4.16699 -35 12.5s-14 19.166 -14 32.499c0 14 4.66699 25.167 14 33.5s21 12.5 35 12.5s25.667 -4.16699 35 -12.5s14 -19.5 14 -33.5
c0 -13.333 -4.66699 -24.166 -14 -32.499s-21 -12.5 -35 -12.5zM195 752c-14 0 -25.667 4.16699 -35 12.5s-14 19.166 -14 32.499c0 14 4.66699 25.167 14 33.5s21 12.5 35 12.5s25.833 -4.16699 35.5 -12.5s14.5 -19.5 14.5 -33.5
c0 -13.333 -4.83301 -24.166 -14.5 -32.499s-21.5 -12.5 -35.5 -12.5z" />
    <glyph glyph-name="Zacute" unicode="&#x179;" horiz-adv-x="584" 
d="M548 700v-13l-396 -611h397v-76h-528v11l396 615h-369v74h500zM313 776h-66v7l75 132l72 -29v-7z" />
    <glyph glyph-name="zacute" unicode="&#x17a;" horiz-adv-x="461" 
d="M424 482v-11l-269 -402h267v-69h-392v10l273 404h-258v68h379zM251 576h-62v6l71 124l68 -27v-6z" />
    <glyph glyph-name="Zdotaccent" unicode="&#x17b;" horiz-adv-x="584" 
d="M548 700v-13l-396 -611h397v-76h-528v11l396 615h-369v74h500zM298 775c-14 0 -25.667 4.16699 -35 12.5s-14 19.166 -14 32.499c0 14 4.66699 25.333 14 34s21 13 35 13s25.833 -4.33301 35.5 -13s14.5 -20 14.5 -34c0 -13.333 -4.83301 -24.166 -14.5 -32.499
s-21.5 -12.5 -35.5 -12.5z" />
    <glyph glyph-name="zdotaccent" unicode="&#x17c;" horiz-adv-x="461" 
d="M424 482v-11l-269 -402h267v-69h-392v10l273 404h-258v68h379zM237 584c-12.667 0 -23.498 4.16699 -32.498 12.5s-13.5 18.5 -13.5 30.5c0 13.333 4.5 24.166 13.5 32.499s19.833 12.5 32.5 12.5c13.333 0 24.666 -4.16699 33.999 -12.5s14 -19.166 14 -32.499
c0 -12 -4.83301 -22.167 -14.5 -30.5s-20.834 -12.5 -33.501 -12.5z" />
    <glyph glyph-name="Zcaron" unicode="&#x17d;" horiz-adv-x="584" 
d="M548 700v-13l-396 -611h397v-76h-528v11l396 615h-369v74h500zM117 923h79l98 -92l98 92h81v-9l-139 -132h-79l-138 134v7z" />
    <glyph glyph-name="zcaron" unicode="&#x17e;" horiz-adv-x="461" 
d="M424 482v-11l-269 -402h267v-69h-392v10l273 404h-258v68h379zM83 697h67l84 -79l83 79h69v-8l-118 -113h-68l-117 115v6z" />
    <glyph glyph-name="longs" unicode="&#x17f;" horiz-adv-x="312" 
d="M127 0l-0.00195312 424.001h-103v58h104v70c0 43.333 7.33301 79.5 22 108.5s34.834 49.167 60.501 60.5s54.667 16.166 87 14.499s66.833 -9.5 103.5 -23.5l-11 -59c-33.333 12 -63.666 18.333 -90.999 19s-49.833 -9.5 -67.5 -30.5s-26.5 -51.5 -26.5 -91.5v-550h-78z
" />
    <glyph glyph-name="florin" unicode="&#x192;" horiz-adv-x="547" 
d="M309 310v-347.999c0 -42.667 -7.5 -78.167 -22.5 -106.5s-35.333 -48 -61 -59s-54.5 -15.5 -86.5 -13.5s-65.667 10 -101 24l9 60c32 -13.333 61.667 -20.666 89 -21.999s50 8.16699 68 28.5s27 50.5 27 90.5v346h-161v58h161v165c0 55.333 13.5 98.833 40.5 130.5
s61.333 48.5 103 50.5s87.5 -6.33301 137.5 -25l-10 -60c-34 15.333 -65.167 23.166 -93.5 23.499s-52 -9.33398 -71 -29.001s-28.5 -49.5 -28.5 -89.5v-166h170v-58h-170z" />
    <glyph glyph-name="Aringacute" unicode="&#x1fa;" horiz-adv-x="706" 
d="M288 735c0 -22 11 -37.5 33 -46.5s44 -9 66 0s33 24.5 33 46.5s-11 37.333 -33 46s-44 8.66699 -66 0s-33 -24 -33 -46zM357 557h-8l-143 -312h294zM528 173h-350l-82 -173h-87v11l301 640c-46 14 -69 42 -69 84c0 28.667 11.833 51.167 35.5 67.5s49.5 24.5 77.5 24.5
s53.833 -8.16699 77.5 -24.5s35.5 -38.833 35.5 -67.5c0 -42.667 -23.333 -70.667 -70 -84l299 -640v-11h-86zM382 858h-64v6l74 95l69 -22v-6z" />
    <glyph glyph-name="aringacute" unicode="&#x1fb;" horiz-adv-x="544" 
d="M400 87c-16.667 -31.333 -42.5 -54.998 -77.5 -70.998s-72.5 -24 -112.5 -24c-47.333 0 -87.666 13.167 -120.999 39.5s-50.666 62.833 -51.999 109.5c-1.33301 52.667 16.167 93.667 52.5 123s81.166 44 134.499 44c60.667 0 114.667 -13.333 162 -40v59
c0 36.667 -14.5 63 -43.5 79s-63.833 24 -104.5 24c-60 0 -110 -11.667 -150 -35l-13 60c49.333 25.333 107.666 38 174.999 38c61.333 0 112 -13.333 152 -40s60 -69.334 60 -128.001l-1 -201v-7v-16c0 -3.33301 0.166992 -7.83301 0.5 -13.5s0.833008 -9.5 1.5 -11.5
s1.66699 -5.33301 3 -10s2.83301 -7.5 4.5 -8.5s4 -3 7 -6s6.33301 -4.16699 10 -3.5s8 0.166992 13 -1.5s10.5 -1.16699 16.5 1.5l1 -51c-42 -6.66699 -72.167 -3.83398 -90.5 8.49902s-27.5 39.5 -27.5 81.5zM385 163.002l0.00195312 46c-46 26 -95.333 39 -148 39
c-34.667 0 -64.167 -9.16699 -88.5 -27.5s-35.833 -43.833 -34.5 -76.5c1.33301 -28.667 12.5 -50 33.5 -64s46.5 -21 76.5 -21c37.333 0 71.666 9 102.999 27s50.666 43.667 57.999 77zM378.002 634.002c0 -29.333 -11.833 -52.5 -35.5 -69.5s-49.834 -25.5 -78.501 -25.5
s-54.834 8.5 -78.501 25.5s-35.5 40.167 -35.5 69.5s11.833 52.333 35.5 69s49.834 25 78.501 25s54.834 -8.33301 78.501 -25s35.5 -39.667 35.5 -69zM198.002 634.002c0 -22.667 11 -38.667 33 -48s44.167 -9.33301 66.5 0s33.5 25.333 33.5 48s-11.167 38.667 -33.5 48
s-44.5 9.33301 -66.5 0s-33 -25.333 -33 -48zM297.002 775.002h-71v6l81 102l78 -23v-5z" />
    <glyph glyph-name="AEacute" unicode="&#x1fc;" horiz-adv-x="825" 
d="M191 200l-102 -200h-81v12l356 686h397v-74h-285v-226h269v-71h-269v-254h290v-73h-363v200h-212zM405 623l-186 -353h184l3 353h-1zM511 768h-66v7l75 132l72 -29v-7z" />
    <glyph glyph-name="aeacute" unicode="&#x1fd;" horiz-adv-x="836" 
d="M204 -9c-45.333 0 -84.334 13.1689 -117.001 39.502s-49 61.833 -49 106.5c-1.33301 48.667 13 87.334 43 116.001s68.667 45 116 49c24 1.33301 44.333 0.666016 61 -2.00098c45.333 -6 84 -17.667 116 -35v57c0 37.333 -14.667 64.666 -44 81.999s-64 26 -104 26
c-53.333 0 -99.666 -11.333 -138.999 -34l-13 55c48.667 26.667 103 40 163 40c46.667 0 87.167 -9.33301 121.5 -28s54.5 -47.667 60.5 -87c14.667 36.667 37.5 65 68.5 85s67.167 30 108.5 30c75.333 0 129.5 -24.667 162.5 -74s42.5 -111 28.5 -185h-346
c0 -56 14.333 -99.833 43 -131.5s69 -47.834 121 -48.501c49.333 -2.66699 100.666 8.33301 153.999 33l13 -58c-60.667 -25.333 -116.334 -38 -167.001 -38c-91.333 1.33301 -154.666 35.333 -189.999 102c-47.333 -66.667 -117.666 -100 -210.999 -100zM374.999 202.002
c-42.667 26.667 -90.668 39.999 -144.001 39.999c-34.667 0 -63.167 -8.66699 -85.5 -26s-32.833 -42.333 -31.5 -75c0.666992 -28.667 10.834 -50.167 30.501 -64.5s44.5 -21.833 74.5 -22.5c35.333 0 68.833 8.83301 100.5 26.5s53.167 41.834 64.5 72.501
c-5.33301 18 -8.33301 34.333 -9 49zM590.998 429.001c-41.333 0.666992 -74.5 -11.168 -99.5 -35.501s-40.833 -58.166 -47.5 -101.499h281c2 42 -9.16699 75.333 -33.5 100s-57.833 37 -100.5 37zM450.998 578.999h-63v6l71 126l69 -28v-6z" />
    <glyph glyph-name="Oslashacute" unicode="&#x1fe;" horiz-adv-x="808" 
d="M621 638c91.333 -66.667 137 -163 137 -289c0 -108 -34 -195 -102 -261s-152 -99 -252 -99c-52 0 -101.333 10.667 -148 32l-44 -73h-81v8l61 101c-94 66 -141 163.333 -141 292c0 108.667 33.667 196 101 262s151.333 99 252 99c56.667 0 108.667 -11.667 156 -35l42 74
h81v-8zM295 94c34 -16.667 70.667 -25 110 -25c77.333 0 141.5 25.833 192.5 77.5s76.5 119.167 76.5 202.5c0 96 -33.333 168 -100 216zM520 603c-36.667 17.333 -75.334 26.001 -116.001 26.001c-77.333 0 -141.666 -25.833 -192.999 -77.5s-77 -119.167 -77 -202.5
c0 -98.667 35 -172.334 105 -221.001zM436 792.001h-66v7l75 132l72 -29v-7z" />
    <glyph glyph-name="oslashacute" unicode="&#x1ff;" horiz-adv-x="597" 
d="M553 243c0 -39.333 -7.00098 -75.1699 -21.001 -107.503s-32.5 -58.166 -55.5 -77.499s-49.167 -35.166 -78.5 -47.499s-59.666 -18.166 -90.999 -17.499s-62 5 -92 13l-31 -62h-64l43 85c-78.667 45.333 -118 116.666 -118 213.999c0 40 7.16699 76.333 21.5 109
s33.333 58.667 57 78s50.667 34.833 81 46.5s61.333 16.834 93 15.501s62.5 -6.33301 92.5 -15l34 67h64l-46 -91c74 -46 111 -116 111 -210zM119.999 242.996c0 -67.333 26.667 -116.333 80 -147l161 318c-54.667 20 -108.5 14 -161.5 -18s-79.5 -83 -79.5 -153z
M476.999 242.996c0 64 -24.332 111.333 -72.999 142l-160 -316c25.333 -8.66699 51.666 -10.5 78.999 -5.5s52.5 13.833 75.5 26.5s41.833 32.5 56.5 59.5s22 58.167 22 93.5zM325 584.996h-62v6l71 125l68 -27v-7z" />
    <glyph glyph-name="Scommaaccent" unicode="&#x218;" horiz-adv-x="646" 
d="M379 -142c-0.666992 -6.66699 -2.66602 -14.667 -5.99902 -24l-30 -95h-49l22 78c-23.333 8 -35 23 -35 45c0 14 4.66699 25.167 14 33.5s21 12.5 35 12.5c24.667 0 40.667 -11.333 48 -34c1.33301 -8.66699 1.66602 -14 0.999023 -16zM47.001 191l80.9971 0.00488281
c1.33301 -29.333 13 -54.333 35 -75s47 -35 75 -43s57.667 -12 89 -12c32 1.33301 61 5.66602 87 12.999s49.5 21.333 70.5 42s31.833 47 32.5 79c0 12 -1 23.167 -3 33.5s-5.83301 19.333 -11.5 27s-11 14.334 -16 20.001s-12.667 10.667 -23 15s-18.333 7.83301 -24 10.5
s-15.5 5.33398 -29.5 8.00098s-24 4.5 -30 5.5s-17 2.5 -33 4.5s-26.333 3.33301 -31 4c-36 4 -67.5 9.16699 -94.5 15.5s-53.5 16.166 -79.5 29.499s-46 31.833 -60 55.5s-21 52.167 -21 85.5c0 44 12.833 81.833 38.5 113.5s57.334 54.5 95.001 68.5s77.834 21 120.501 21
c31.333 0.666992 61.833 -2.66602 91.5 -9.99902s57.167 -18.5 82.5 -33.5s46 -35.333 62 -61s24.667 -54.834 26 -87.501h-78c-2.66699 28 -13.834 51.167 -33.501 69.5s-42 30.833 -67 37.5s-52.167 10 -81.5 10c-46 -2 -86.333 -13.167 -121 -33.5s-52 -51.5 -52 -93.5
c0 -10 1.16699 -19.333 3.5 -28s4.83301 -16.334 7.5 -23.001s7.33398 -12.834 14.001 -18.501s11.834 -10.334 15.501 -14.001s10.667 -7.33398 21 -11.001s17.666 -6.33398 21.999 -8.00098s12.833 -3.5 25.5 -5.5s20.834 -3.33301 24.501 -4s12.667 -2 27 -4
s22.833 -3 25.5 -3c33.333 -4 60.833 -8 82.5 -12s45.5 -10.5 71.5 -19.5s46.5 -20 61.5 -33s27.667 -30.667 38 -53s15.5 -48.5 15.5 -78.5c0 -47.333 -14.167 -87 -42.5 -119s-62 -54.333 -101 -67s-81.5 -19.667 -127.5 -21c-33.333 -0.666992 -66 2.83301 -98 10.5
s-61.667 19.5 -89 35.5s-49.5 37.5 -66.5 64.5s-26.167 57.833 -27.5 92.5z" />
    <glyph glyph-name="scommaaccent" unicode="&#x219;" horiz-adv-x="509" 
d="M311 -142c-0.666992 -6.66699 -2.66602 -14.667 -5.99902 -24l-30 -95h-49l22 78c-23.333 8 -35 23 -35 45c0 14 4.66699 25.167 14 33.5s21 12.5 35 12.5c24.667 0 40.667 -11.333 48 -34c1.33301 -8.66699 1.66602 -14 0.999023 -16zM40.001 136l75.999 -0.000976562
c2 -28.667 16.5 -50 43.5 -64s58.5 -21 94.5 -21s67.333 7.5 94 22.5s40.667 36.5 42 64.5c0 25.333 -10 43.166 -30 53.499s-55 19.166 -105 26.499c-22.667 2.66699 -42 5.5 -58 8.5s-33.667 7.66699 -53 14s-35 13.833 -47 22.5s-22.167 20.334 -30.5 35.001
s-12.833 31.667 -13.5 51c-1.33301 46.667 17.834 82.167 57.501 106.5s87.167 36.5 142.5 36.5c54.667 0 102 -12 142 -36s59.333 -58 58 -102h-75c0 24.667 -12.167 43.5 -36.5 56.5s-53.833 19.5 -88.5 19.5s-64.667 -6.66699 -90 -20s-37.333 -33 -36 -59
c0.666992 -22 11 -37.667 31 -47s54.667 -17.666 104 -24.999c22.667 -2.66699 39.834 -5 51.501 -7s27 -5.16699 46 -9.5s33.667 -9.66602 44 -15.999s21.166 -14.333 32.499 -24s19.333 -21.5 24 -35.5s6.66699 -30.333 6 -49c0 -46.667 -20.333 -83 -61 -109
s-91 -39.667 -151 -41c-58.667 0 -108 11.833 -148 35.5s-62 61.167 -66 112.5z" />
    <glyph glyph-name="uni021A" unicode="&#x21a;" horiz-adv-x="549" 
d="M329 -142c-0.666992 -6.66699 -2.66602 -14.667 -5.99902 -24l-30 -95h-49l22 78c-23.333 8 -35 23 -35 45c0 14 4.66699 25.167 14 33.5s21 12.5 35 12.5c24.667 0 40.667 -11.333 48 -34c1.33301 -8.66699 1.66602 -14 0.999023 -16zM234.001 625h-216v75h513v-75h-216
v-625h-81v625z" />
    <glyph glyph-name="uni021B" unicode="&#x21b;" horiz-adv-x="421" 
d="M314 -142c-1.33301 -6.66699 -3.33203 -14.667 -5.99902 -24l-30 -95h-49l22 78c-23.333 8 -35 23 -35 45c0 14 4.66699 25.167 14 33.5s21 12.5 35 12.5c24.667 0 40.667 -11.333 48 -34c1.33301 -8.66699 1.66602 -14 0.999023 -16zM204.001 630v-149.999h177v-57h-177
v-236c0 -60 17.5 -99.833 52.5 -119.5s81.5 -18.167 139.5 4.5l9 -63c-56 -16.667 -104.667 -22.834 -146 -18.501s-73.833 23 -97.5 56s-35.5 79.167 -35.5 138.5v238l-103 5v52h108l8 150h65z" />
    <glyph glyph-name="circumflex" unicode="&#x2c6;" horiz-adv-x="494" 
d="M426 563h-79l-98 91l-98 -91h-81v8l139 132h79l138 -133v-7z" />
    <glyph glyph-name="caron" unicode="&#x2c7;" horiz-adv-x="531" 
d="M86 702h79l98 -92l98 92h81v-9l-139 -132h-79l-138 134v7z" />
    <glyph glyph-name="breve" unicode="&#x2d8;" horiz-adv-x="529" 
d="M86 703h70.001c4.66699 -24 17.667 -42.833 39 -56.5s43.833 -20.5 67.5 -20.5s46 6.83301 67 20.5s33.833 32.5 38.5 56.5h70c-4 -36 -18 -66.167 -42 -90.5s-52.333 -39.333 -85 -45s-65.334 -5.5 -98.001 0.5s-61 21 -85 45s-38 54 -42 90z" />
    <glyph glyph-name="dotaccent" unicode="&#x2d9;" horiz-adv-x="321" 
d="M146 614c-14 0 -25.667 4.16699 -35 12.5s-14 19.166 -14 32.499c0 14 4.66699 25.333 14 34s21 13 35 13s25.833 -4.33301 35.5 -13s14.5 -20 14.5 -34c0 -13.333 -4.83301 -24.166 -14.5 -32.499s-21.5 -12.5 -35.5 -12.5z" />
    <glyph glyph-name="ring" unicode="&#x2da;" horiz-adv-x="379" 
d="M300 614c0 -32.667 -11.667 -58.334 -35 -77.001s-49.166 -28 -77.499 -28s-54.166 9.33301 -77.499 28s-35 44.334 -35 77.001s11.667 58.334 35 77.001s49.166 28 77.499 28s54.166 -9.33301 77.499 -28s35 -44.334 35 -77.001zM122 614
c0 -18.667 6.83301 -33.5 20.5 -44.5s28.667 -16.5 45 -16.5s31.333 5.5 45 16.5s20.5 25.833 20.5 44.5s-6.83301 33.5 -20.5 44.5s-28.667 16.5 -45 16.5s-31.333 -5.5 -45 -16.5s-20.5 -25.833 -20.5 -44.5z" />
    <glyph glyph-name="ogonek" unicode="&#x2db;" horiz-adv-x="364" 
d="M145 7h60.002c-22 -11.333 -39.167 -29 -51.5 -53s-13.166 -45.667 -2.49902 -65c8 -16 20.833 -25.667 38.5 -29s34.167 -2.66602 49.5 2.00098s30.666 11 45.999 19l10 -53c-16.667 -9.33301 -34.834 -16.333 -54.501 -21s-39.334 -6.5 -59.001 -5.5
s-37.834 7.16699 -54.501 18.5s-28.667 27.333 -36 48c-10 25.333 -9.66699 50.666 1 75.999s28.334 46.333 53.001 63z" />
    <glyph glyph-name="tilde" unicode="&#x2dc;" horiz-adv-x="420" 
d="M104 612l-43.001 22.001c18 37.333 41.333 61.166 70 71.499s62.334 4.83301 101.001 -16.5c44 -30 77.667 -23.667 101 19l20.5 -10.5l22.5 -11.5c-14.667 -36.667 -36.667 -60.5 -66 -71.5s-62 -6.16699 -98 14.5c-48 30 -84 24.333 -108 -17z" />
    <glyph glyph-name="hungarumlaut" unicode="&#x2dd;" horiz-adv-x="518" 
d="M104 568v7l59 127l72 -18v-7l-67 -109h-64zM288 568v7l59 121l71 -21v-8l-66 -99h-64z" />
    <glyph glyph-name="afii10023" unicode="&#x401;" horiz-adv-x="569" 
d="M500 700v-73h-323v-229h312v-73h-312v-248h334v-77h-418v700h407zM416 766c-14 0 -25.667 4.16699 -35 12.5s-14 19.166 -14 32.499c0 14 4.66699 25.167 14 33.5s21 12.5 35 12.5s25.667 -4.16699 35 -12.5s14 -19.5 14 -33.5c0 -13.333 -4.66699 -24.166 -14 -32.499
s-21 -12.5 -35 -12.5zM181 766c-14 0 -25.667 4.16699 -35 12.5s-14 19.166 -14 32.499c0 14 4.66699 25.167 14 33.5s21 12.5 35 12.5s25.833 -4.16699 35.5 -12.5s14.5 -19.5 14.5 -33.5c0 -13.333 -4.83301 -24.166 -14.5 -32.499s-21.5 -12.5 -35.5 -12.5z" />
    <glyph glyph-name="afii10051" unicode="&#x402;" horiz-adv-x="742" 
d="M695 115c0 -78 -15.668 -132.167 -47.001 -162.5s-83 -39.166 -155 -26.499l3 60c50 -8.66699 82.667 -2.83398 98 17.499s23 57.833 23 112.5v153c0 44.667 -14 79.5 -42 104.5s-64.667 37.833 -110 38.5c-44.667 0 -83.167 -14 -115.5 -42
s-49.166 -62.667 -50.499 -104v-266h-81v627h-200v73h516v-73h-235v-237c15.333 30 40 52.5 74 67.5s72 22.5 114 22.5c64.667 0 115.5 -19.333 152.5 -58s55.5 -89.667 55.5 -153v-154z" />
    <glyph glyph-name="afii10052" unicode="&#x403;" horiz-adv-x="516" 
d="M501 626h-325v-626h-83v700h408v-74zM321 769h-65v7l94 147l71 -27v-7z" />
    <glyph glyph-name="afii10053" unicode="&#x404;" horiz-adv-x="760" 
d="M402 633c-74.667 0.666992 -137.165 -21.999 -187.498 -67.999s-77.833 -105.667 -82.5 -179h311v-75h-310c5.33301 -72.667 33.166 -131.5 83.499 -176.5s112.833 -67.5 187.5 -67.5c54 0 102.333 13.5 145 40.5s72.667 65.167 90 114.5h82
c-19.333 -74.667 -58.5 -131.834 -117.5 -171.501s-125.5 -59.5 -199.5 -59.5c-100.667 0 -184.834 33 -252.501 99s-101.5 152.667 -101.5 260s33.5 194.333 100.5 261s150.833 99.667 251.5 99c71.333 -1.33301 136 -21 194 -59s97.333 -92 118 -162h-81
c-42 96 -119 144 -231 144z" />
    <glyph glyph-name="afii10054" unicode="&#x405;" horiz-adv-x="646" 
d="M47 191l80.9971 0.00488281c1.33301 -29.333 13 -54.333 35 -75s47 -35 75 -43s57.667 -12 89 -12c32 1.33301 61 5.66602 87 12.999s49.5 21.333 70.5 42s31.833 47 32.5 79c0 12 -1 23.167 -3 33.5s-5.83301 19.333 -11.5 27s-11 14.334 -16 20.001
s-12.667 10.667 -23 15s-18.333 7.83301 -24 10.5s-15.5 5.33398 -29.5 8.00098s-24 4.5 -30 5.5s-17 2.5 -33 4.5s-26.333 3.33301 -31 4c-36 4 -67.5 9.16699 -94.5 15.5s-53.5 16.166 -79.5 29.499s-46 31.833 -60 55.5s-21 52.167 -21 85.5
c0 44 12.833 81.833 38.5 113.5s57.334 54.5 95.001 68.5s77.834 21 120.501 21c31.333 0.666992 61.833 -2.66602 91.5 -9.99902s57.167 -18.5 82.5 -33.5s46 -35.333 62 -61s24.667 -54.834 26 -87.501h-78c-2.66699 28 -13.834 51.167 -33.501 69.5s-42 30.833 -67 37.5
s-52.167 10 -81.5 10c-46 -2 -86.333 -13.167 -121 -33.5s-52 -51.5 -52 -93.5c0 -10 1.16699 -19.333 3.5 -28s4.83301 -16.334 7.5 -23.001s7.33398 -12.834 14.001 -18.501s11.834 -10.334 15.501 -14.001s10.667 -7.33398 21 -11.001s17.666 -6.33398 21.999 -8.00098
s12.833 -3.5 25.5 -5.5s20.834 -3.33301 24.501 -4s12.667 -2 27 -4s22.833 -3 25.5 -3c33.333 -4 60.833 -8 82.5 -12s45.5 -10.5 71.5 -19.5s46.5 -20 61.5 -33s27.667 -30.667 38 -53s15.5 -48.5 15.5 -78.5c0 -47.333 -14.167 -87 -42.5 -119s-62 -54.333 -101 -67
s-81.5 -19.667 -127.5 -21c-33.333 -0.666992 -66 2.83301 -98 10.5s-61.667 19.5 -89 35.5s-49.5 37.5 -66.5 64.5s-26.167 57.833 -27.5 92.5z" />
    <glyph glyph-name="afii10055" unicode="&#x406;" horiz-adv-x="400" 
d="M242 67h121v-67h-326v67h121v567h-113v66h310v-66h-113v-567z" />
    <glyph glyph-name="afii10056" unicode="&#x407;" horiz-adv-x="400" 
d="M242 67h121v-67h-326v67h121v567h-113v66h310v-66h-113v-567zM322 758c-14 0 -25.667 4.16699 -35 12.5s-14 19.166 -14 32.499c0 14 4.66699 25.167 14 33.5s21 12.5 35 12.5s25.667 -4.16699 35 -12.5s14 -19.5 14 -33.5c0 -13.333 -4.66699 -24.166 -14 -32.499
s-21 -12.5 -35 -12.5zM87 758c-14 0 -25.667 4.16699 -35 12.5s-14 19.166 -14 32.499c0 14 4.66699 25.167 14 33.5s21 12.5 35 12.5s25.833 -4.16699 35.5 -12.5s14.5 -19.5 14.5 -33.5c0 -13.333 -4.83301 -24.166 -14.5 -32.499s-21.5 -12.5 -35.5 -12.5z" />
    <glyph glyph-name="afii10057" unicode="&#x408;" horiz-adv-x="639" 
d="M553 700v-465c0 -75.333 -24.833 -135 -74.5 -179s-112.5 -66 -188.5 -66c-75.333 0 -136.833 22.167 -184.5 66.5s-71.5 103.833 -71.5 178.5v73h79v-72c0 -54 16 -95.833 48 -125.5s75 -44.5 129 -44.5s97.333 15 130 45s49 71.667 49 125v390h-171v74h255z" />
    <glyph glyph-name="afii10058" unicode="&#x409;" horiz-adv-x="989" 
d="M564 386v-312h139c53.333 0 95.833 14 127.5 42s47.5 66 47.5 114c0 52 -15.833 91 -47.5 117s-74.167 39 -127.5 39h-139zM564 460l152 0.00390625c73.333 0 132 -21.833 176 -65.5s66 -98.5 66 -164.5c0 -67.333 -23 -122.5 -69 -165.5s-104 -64.5 -174 -64.5h-230v625
h-207l-20.5 -200.5l-20.5 -199.5c-2.66699 -23.333 -5.33398 -43.166 -8.00098 -59.499s-6 -33 -10 -50s-8.66699 -31.167 -14 -42.5s-11.833 -22.333 -19.5 -33s-16.5 -18.834 -26.5 -24.501s-21.833 -10.334 -35.5 -14.001s-29.167 -5.33398 -46.5 -5.00098
s-36.666 2.16602 -57.999 5.49902l1 62c27.333 -4.66699 49.333 -4.83398 66 -0.500977s29.5 15.5 38.5 33.5s14.833 33.667 17.5 47s6 37 10 71c0.666992 2 1 3.66699 1 5s0.166992 3 0.5 5s0.5 3.66699 0.5 5l52 470h358v-240z" />
    <glyph glyph-name="afii10059" unicode="&#x40a;" horiz-adv-x="992" 
d="M565 700v-264h152c74 0 133.167 -18.833 177.5 -56.5s66.5 -88.5 66.5 -152.5c0 -69.333 -22.333 -124.5 -67 -165.5s-104 -61.5 -178 -61.5h-233v354h-307v-354h-83v700h83v-269h307v269h82zM716 361l-151.001 -0.000976562v-287h151
c50 0.666992 90.167 14.834 120.5 42.501s44.5 64.5 42.5 110.5c-0.666992 42.667 -16.167 75.667 -46.5 99s-69.166 35 -116.499 35z" />
    <glyph glyph-name="afii10060" unicode="&#x40b;" horiz-adv-x="746" 
d="M695 0l-78 0.000976562v269c0 44.667 -14 79.667 -42 105s-64.667 38.333 -110 39c-44 0 -82.333 -14.667 -115 -44s-49.667 -65 -51 -107v-262h-81v628h-200v72h516v-72h-235v-239c33.333 61.333 96 92 188 92c64.667 -0.666992 115.5 -20.334 152.5 -59.001
s55.5 -89.667 55.5 -153v-269z" />
    <glyph glyph-name="afii10061" unicode="&#x40c;" horiz-adv-x="666" 
d="M354 769h-66v7l95 147l71 -27v-7zM176 700l-0.000976562 -319.999c84 0 137 6.66699 159 20c33.333 20 62.666 76.333 87.999 169c15.333 52 38 89.5 68 112.5s75.667 28.833 137 17.5v-56c-38 4 -66.5 -1.66699 -85.5 -17s-34.167 -42.333 -45.5 -81
c-27.333 -94.667 -58.666 -157.334 -93.999 -188.001l244 -345v-12h-95l-222 323c-29.333 -8.66699 -80.666 -13 -153.999 -13v-310h-83v700h83z" />
    <glyph glyph-name="afii10062" unicode="&#x40e;" horiz-adv-x="611" 
d="M159 887l55.001 5.99902c4 -23.333 14 -41.666 30 -54.999s36.667 -20.333 62 -21c24.667 0 45.834 6.66699 63.501 20s28.834 32 33.501 56c5.33301 0 22.666 -2 51.999 -6c-4.66699 -42 -19.334 -75.167 -44.001 -99.5s-59.334 -36.5 -104.001 -36.5
c-42 0 -76 12.167 -102 36.5s-41.333 57.5 -46 99.5zM222.001 138.999l44.002 86.999l-261 464v10h93l211 -389h3l190 389h90v-8l-287 -568c-14.667 -30.667 -27.834 -54.5 -39.501 -71.5s-26.834 -31.833 -45.501 -44.5s-41 -18.667 -67 -18s-57.333 7.33398 -94 20.001
l12 66c66 -32.667 116.333 -11.667 151 63z" />
    <glyph glyph-name="afii10145" unicode="&#x40f;" horiz-adv-x="723" 
d="M325 -142v142h-232v700h84v-623h370v623h83v-700h-225v-142h-80z" />
    <glyph glyph-name="afii10017" unicode="&#x410;" horiz-adv-x="706" 
d="M528 173h-350l-82 -173h-87v11l326 692h38l323 -692v-11h-86zM353 572l-147 -327h294z" />
    <glyph glyph-name="afii10018" unicode="&#x411;" horiz-adv-x="656" 
d="M372 351l-197.001 -0.000976562v-277h197c52.667 0 92.834 12.333 120.501 37s41.5 58.667 41.5 102c0 40.667 -14 73.834 -42 99.501s-68 38.5 -120 38.5zM174.999 625.999v-203.001h198c79.333 0 139.833 -19 181.5 -57s62.5 -88.667 62.5 -152
s-21.167 -114.666 -63.5 -153.999s-102.5 -59.333 -180.5 -60h-280v700h464v-74h-382z" />
    <glyph glyph-name="afii10019" unicode="&#x412;" horiz-adv-x="669" 
d="M586 513c0 -33.333 -7.99902 -63.002 -23.999 -89.002s-39.333 -45 -70 -57c40 -11.333 71 -31.666 93 -60.999s33 -64.666 33 -105.999c0 -62 -20.333 -110.333 -61 -145s-94.334 -52 -161.001 -52h-303v700h273c66.667 0 120 -15.667 160 -47s60 -79 60 -143z
M361.001 628.998h-184v-233h172c102.667 0 154 38 154 114c0.666992 40 -12 69.833 -38 89.5s-60.667 29.5 -104 29.5zM534.001 199.998c3.33301 82.667 -58.333 123.999 -185 123.999h-172v-247h202c46.667 0 84 10.333 112 31s42.333 51.334 43 92.001z" />
    <glyph glyph-name="afii10020" unicode="&#x413;" horiz-adv-x="516" 
d="M501 626h-325v-626h-83v700h408v-74z" />
    <glyph glyph-name="afii10021" unicode="&#x414;" horiz-adv-x="725" 
d="M272 627l-49 -445c-6 -57.333 -21.667 -94.333 -47 -111h353v556h-257zM24 72l22 -0.000976562c33.333 0.666992 56 9.83398 68 27.501s20.667 46.5 26 86.5l59 514h411v-628h76v-186h-72v114h-517v-114h-73v186z" />
    <glyph glyph-name="afii10022" unicode="&#x415;" horiz-adv-x="569" 
d="M500 700v-73h-323v-229h312v-73h-312v-248h334v-77h-418v700h407z" />
    <glyph glyph-name="afii10024" unicode="&#x416;" horiz-adv-x="974" 
d="M956 0l-95.0059 0.000976562l-98 143l-123 180c-29.333 -12.667 -66.333 -19 -111 -19v-304h-84v304c-44 0 -80.667 6.33301 -110 19l-222 -323h-95v12l129 180l118 165c-36 31.333 -67.333 94.333 -94 189c-11.333 37.333 -27.166 63.166 -47.499 77.499
s-49.166 19.166 -86.499 14.499v61c57.333 9.33301 102.833 3.83301 136.5 -16.5s57.834 -58.166 72.501 -113.499c7.33301 -28 13.166 -49 17.499 -63s13 -32.5 26 -55.5s27.167 -38.833 42.5 -47.5c27.333 -16 65 -24 113 -24v321h84v-321c48.667 0 86.667 8 114 24
c4.66699 2.66699 9.33398 6.16699 14.001 10.5s8.83398 8.5 12.501 12.5s7.5 9.33301 11.5 16s7.16699 12.167 9.5 16.5s5.16602 10.666 8.49902 18.999l7.5 18.5c1.66699 4 4 10.667 7 20s4.83301 15.333 5.5 18s2.5 9 5.5 19s4.5 15.333 4.5 16
c14 55.333 37.833 93.166 71.5 113.499s79.167 25.833 136.5 16.5v-61c-37.333 4.66699 -66.166 -0.166016 -86.499 -14.499s-36.166 -40.166 -47.499 -77.499c-9.33301 -32 -17 -56.667 -23 -74s-15.167 -37.5 -27.5 -60.5s-26.166 -41.167 -41.499 -54.5l245 -345v-12z
" />
    <glyph glyph-name="afii10025" unicode="&#x417;" horiz-adv-x="588" 
d="M137 539l-75 -0.000976562c-1.33301 58.667 19.5 103 62.5 133s95.833 45 158.5 45c64 0 116.5 -17.667 157.5 -53s61.5 -81 61.5 -137c0 -33.333 -9.16699 -63 -27.5 -89s-42.833 -45.333 -73.5 -58c44 -14.667 78 -37.667 102 -69s36 -70.333 36 -117
c0 -66.667 -23.5 -118.5 -70.5 -155.5s-108.833 -55.5 -185.5 -55.5c-72 0 -130.667 19.5 -176 58.5s-68 93.833 -68 164.5h74c0 -47.333 16.333 -84.333 49 -111s73 -40 121 -40c50 0 91.333 12.333 124 37s49 60.334 49 107.001c0 43.333 -16.833 78 -50.5 104
s-74.5 39 -122.5 39h-48v69h47c38.667 0 72.167 10.333 100.5 31s42.5 48.667 42.5 84c0 38.667 -13.833 68.667 -41.5 90s-61.167 32 -100.5 32c-40.667 0 -75.167 -9 -103.5 -27s-42.5 -45.333 -42.5 -82z" />
    <glyph glyph-name="afii10026" unicode="&#x418;" horiz-adv-x="746" 
d="M577 529l-457 -530h-27v702h84v-328l-9 -201l456 530h29v-702h-83v337z" />
    <glyph glyph-name="afii10027" unicode="&#x419;" horiz-adv-x="746" 
d="M240 884l58.001 7c4 -24 14.5 -42.5 31.5 -55.5s38.833 -20.167 65.5 -21.5c24.667 0 46 6.66699 64 20s29.333 32.333 34 57l55 -7c-4.66699 -42.667 -20.834 -76.334 -48.501 -101.001s-62.5 -37 -104.5 -37c-40 0 -74.667 12.333 -104 37s-46.333 58.334 -51 101.001z
M120.001 -1l457 530l-7 -192v-337h83v702h-29l-456 -530l9 201v328h-84v-702h27z" />
    <glyph glyph-name="afii10028" unicode="&#x41a;" horiz-adv-x="666" 
d="M176 700l-0.000976562 -319.999c84 0 137 6.66699 159 20c33.333 20 62.666 76.333 87.999 169c15.333 52 38 89.5 68 112.5s75.667 28.833 137 17.5v-56c-38 4 -66.5 -1.66699 -85.5 -17s-34.167 -42.333 -45.5 -81c-27.333 -94.667 -58.666 -157.334 -93.999 -188.001
l244 -345v-12h-95l-222 323c-29.333 -8.66699 -80.666 -13 -153.999 -13v-310h-83v700h83z" />
    <glyph glyph-name="afii10029" unicode="&#x41b;" horiz-adv-x="723" 
d="M278 625l-48 -454.999c-7.33301 -72 -26.333 -120.833 -57 -146.5s-82.334 -32.834 -155.001 -21.501l1 62c44.667 -7.33301 75.834 -2 93.501 16s29.167 49.667 34.5 95l58 525h425v-700h-83v625h-269z" />
    <glyph glyph-name="afii10030" unicode="&#x41c;" horiz-adv-x="827" 
d="M414 310l288 391h32v-701h-84v505l-230 -316h-13l-230 316v-505h-84v701h33z" />
    <glyph glyph-name="afii10031" unicode="&#x41d;" horiz-adv-x="723" 
d="M630 0h-84v328h-370v-328h-83v700h83v-295h370v295h84v-700z" />
    <glyph glyph-name="afii10032" unicode="&#x41e;" horiz-adv-x="810" 
d="M760 350c0 -106 -33.001 -192.667 -99.001 -260s-151.667 -101 -257 -101c-101.333 0 -185.666 33 -252.999 99s-101 153.333 -101 262c0 109.333 34 197 102 263s152.333 99 253 99s185 -33.167 253 -99.5s102 -153.833 102 -262.5zM133.999 350
c0 -84 25.668 -152.333 77.001 -205s115.666 -79 192.999 -79c78 0 142.833 26.333 194.5 79s77.5 121 77.5 205s-25.667 152.667 -77 206s-116 80 -194 80c-77.333 0 -141.833 -26.5 -193.5 -79.5s-77.5 -121.833 -77.5 -206.5z" />
    <glyph glyph-name="afii10033" unicode="&#x41f;" horiz-adv-x="723" 
d="M93 700h537v-700h-84v623h-369v-623h-84v700z" />
    <glyph glyph-name="afii10034" unicode="&#x420;" horiz-adv-x="650" 
d="M176 1l-83 0.000976562v700h88h104h88c73.333 0 132.5 -22.833 177.5 -68.5s67.5 -102.834 67.5 -171.501c0 -68 -22.667 -124.667 -68 -170s-104.333 -68 -177 -68h-197v-222zM175 298.001h198c46.667 0 85.667 15.5 117 46.5s47 70.5 47 118.5
c0 47.333 -15.333 86.5 -46 117.5s-70 46.5 -118 46.5h-198v-329z" />
    <glyph glyph-name="afii10035" unicode="&#x421;" horiz-adv-x="762" 
d="M50 350c0 107.333 33.8311 194.167 101.498 260.5s151.834 98.833 252.501 97.5c71.333 0 136 -19 194 -57s97 -92 117 -162h-81c-21.333 46.667 -52 82 -92 106s-86 36 -138 36c-79.333 1.33301 -144 -24.5 -194 -77.5s-75 -120.833 -75 -203.5
c0 -80 24.833 -146.833 74.5 -200.5s114.167 -80.5 193.5 -80.5c54.667 0 103 13.5 145 40.5s72 65.167 90 114.5h81c-19.333 -75.333 -58.166 -132.833 -116.499 -172.5s-124.5 -59.5 -198.5 -59.5c-100 0 -184 32.833 -252 98.5s-102 152.167 -102 259.5z" />
    <glyph glyph-name="afii10036" unicode="&#x422;" horiz-adv-x="549" 
d="M234 625h-216v75h513v-75h-216v-625h-81v625z" />
    <glyph glyph-name="afii10037" unicode="&#x423;" horiz-adv-x="614" 
d="M224 139l44.001 87.001l-261 464v10h93l211 -389h3l190 389h90v-8l-287 -568c-14 -29.333 -27.833 -53.333 -41.5 -72s-30.167 -34.334 -49.5 -47.001s-41.833 -18.667 -67.5 -18s-54.834 7.66699 -87.501 21l12 68c66 -32.667 116.333 -11.667 151 63z" />
    <glyph glyph-name="afii10038" unicode="&#x424;" horiz-adv-x="885" 
d="M741 351c0 37.333 -7.16699 69.667 -21.5 97s-34.333 48.166 -60 62.499s-53 24.833 -82 31.5s-61.167 10.334 -96.5 11.001v-405c173.333 5.33301 260 73 260 203zM144 351.001c0 -130 86.999 -197.668 260.999 -203.001v405
c-35.333 -0.666992 -67.666 -4.33398 -96.999 -11.001s-56.833 -17.167 -82.5 -31.5s-45.667 -35.166 -60 -62.499s-21.5 -59.666 -21.5 -96.999zM403.999 -1l0.000976562 78.999c-46.667 0.666992 -89.834 6.16699 -129.501 16.5s-76 25.833 -109 46.5
s-58.833 48.834 -77.5 84.501s-28 77.5 -28 125.5s9.33301 89.833 28 125.5s44.5 63.834 77.5 84.501s69.167 36.167 108.5 46.5s82.333 16.166 129 17.499v76h79v-76c48 -1.33301 91.667 -7 131 -17s75.333 -25.167 108 -45.5s58.167 -48.5 76.5 -84.5
s27.5 -78.333 27.5 -127s-9.33301 -91 -28 -127s-44.5 -64.167 -77.5 -84.5s-69.167 -35.5 -108.5 -45.5s-82.333 -15.333 -129 -16v-79h-78z" />
    <glyph glyph-name="afii10039" unicode="&#x425;" horiz-adv-x="632" 
d="M316 423h2l98 149l90 128h89v-11l-228 -320l254 -358v-11h-91l-116 164l-96 146h-3l-94 -144l-117 -166h-92v12l254 357l-228 319v12h90l91 -130z" />
    <glyph glyph-name="afii10040" unicode="&#x426;" horiz-adv-x="728" 
d="M621 0h-528v700h84v-623h353v623h84v-628h75v-184h-68v112z" />
    <glyph glyph-name="afii10041" unicode="&#x427;" horiz-adv-x="634" 
d="M541 0l-83 0.00195312v262c-136.667 -20 -240 -4.33301 -310 47s-105 147 -105 287v103h84v-103c0 -112.667 26.833 -187.834 80.5 -225.501s137.167 -47.834 250.5 -30.501v359h83v-699z" />
    <glyph glyph-name="afii10042" unicode="&#x428;" horiz-adv-x="1028" 
d="M93 0v700h83v-623h294v623h84v-623h297v623h84v-700h-842z" />
    <glyph glyph-name="afii10043" unicode="&#x429;" horiz-adv-x="1039" 
d="M93 0v700h85v-623h286v623h84v-623h293v623h83v-628h76v-183h-69v111h-838z" />
    <glyph glyph-name="afii10044" unicode="&#x42a;" horiz-adv-x="705" 
d="M429 386h-192.999v-312h193c47.333 0 86.5 14.833 117.5 44.5s46.5 67.834 46.5 114.501c-0.666992 45.333 -16.334 82.166 -47.001 110.499s-69.667 42.5 -117 42.5zM22.001 629l-0.000976562 71h214v-240h194c72.667 0 131.334 -21.333 176.001 -64s67 -97 67 -163
c0 -66.667 -22.5 -122.167 -67.5 -166.5s-103.5 -66.5 -175.5 -66.5h-276v629h-132z" />
    <glyph glyph-name="afii10045" unicode="&#x42b;" horiz-adv-x="904" 
d="M174 700l-0.00195312 -51.999v-188h193c76.667 0 137.334 -23.333 182.001 -70s65 -104.334 61 -173.001c-3.33301 -63.333 -27.166 -115.333 -71.499 -156s-101.5 -61 -171.5 -61h-274v700h81zM366.998 386.001h-47.001h-146v-312h180c51.333 0 93 13.333 125 40
s49 64 51 112c1.33301 46.667 -13.167 85 -43.5 115s-70.166 45 -119.499 45zM810.997 700.001v-700h-83v700h83z" />
    <glyph glyph-name="afii10046" unicode="&#x42c;" horiz-adv-x="643" 
d="M174 700l-0.000976562 -240h193c73.333 0 132.333 -21.333 177 -64s67 -97 67 -163c0.666992 -66.667 -21.666 -122.167 -66.999 -166.5s-104.333 -66.5 -177 -66.5h-274v700h81zM366.999 386h-193v-312h193c47.333 0 86.5 15 117.5 45s46.167 68 45.5 114
c0 46 -15.167 83 -45.5 111s-69.5 42 -117.5 42z" />
    <glyph glyph-name="afii10047" unicode="&#x42d;" horiz-adv-x="760" 
d="M359 633c-52 0 -98.499 -12.499 -139.499 -37.499s-71.5 -60.5 -91.5 -106.5h-82c20.667 70 60 124 118 162s123 57.667 195 59c100 0.666992 183.5 -32.333 250.5 -99s100.5 -153.667 100.5 -261s-33.833 -194 -101.5 -260s-151.834 -99 -252.501 -99
c-74 0 -140.5 19.833 -199.5 59.5s-98.167 96.834 -117.5 171.501h82c17.333 -49.333 47.333 -87.5 90 -114.5s91 -40.5 145 -40.5c74 0 135.5 23 184.5 69s76.167 105.333 81.5 178h-305v71h306c-4 73.333 -30.5 133.166 -79.5 179.499s-110.5 69.166 -184.5 68.499z" />
    <glyph glyph-name="afii10048" unicode="&#x42e;" horiz-adv-x="1060" 
d="M1010 350c0 -109.333 -33.999 -196.998 -101.999 -262.998s-152.333 -98.667 -253 -98c-95.333 0 -175.833 30 -241.5 90s-101.834 139.333 -108.501 238h-128v-317h-84v700h84v-306h129c9.33301 96 46.833 173 112.5 231s145.167 86.667 238.5 86
c100.667 -0.666992 184.667 -33.834 252 -99.501s101 -152.834 101 -261.501zM386.001 350.002c0 -84.667 25.5 -152.834 76.5 -204.501s115.5 -77.5 193.5 -77.5s142.5 25.833 193.5 77.5s76.5 119.834 76.5 204.501c0 84 -25.667 151.833 -77 203.5s-116 77.5 -194 77.5
s-142.333 -25.833 -193 -77.5s-76 -119.5 -76 -203.5z" />
    <glyph glyph-name="afii10049" unicode="&#x42f;" horiz-adv-x="672" 
d="M30 13l199.001 252.998c-50.667 12 -91.334 36.833 -122.001 74.5s-46 82.834 -46 135.501c0 64.667 22 118.334 66 161.001s101.667 64 173 64h279v-700h-84v254h-183l-191 -254h-91v12zM300.001 326.998l196 0.00195312v300h-196c-45.333 0 -83 -13.833 -113 -41.5
s-45 -63.834 -45 -108.501s14.833 -80.834 44.5 -108.501s67.5 -41.5 113.5 -41.5z" />
    <glyph glyph-name="afii10065" unicode="&#x430;" horiz-adv-x="544" 
d="M400 87c-16.667 -31.333 -42.498 -54.9961 -77.498 -70.9961s-72.5 -24 -112.5 -24c-47.333 0 -87.666 13.167 -120.999 39.5s-50.666 62.833 -51.999 109.5c-1.33301 52.667 16.167 93.667 52.5 123s81.166 44 134.499 44c63.333 0 118.666 -13.333 165.999 -40v59
c0 25.333 -8.5 46.166 -25.5 62.499s-36.167 27.166 -57.5 32.499s-44.333 8 -69 8c-60 0 -110 -11.667 -150 -35l-13 60c49.333 25.333 107.666 38 174.999 38c61.333 0 112.166 -13.333 152.499 -40s59.833 -69.334 58.5 -128.001v-201v-7v-16
c0 -3.33301 0.166992 -7.83301 0.5 -13.5s0.833008 -9.5 1.5 -11.5s1.66699 -5.33301 3 -10s2.83301 -7.5 4.5 -8.5s4 -3 7 -6s6.33301 -4.16699 10 -3.5s8 0.166992 13 -1.5s10.5 -1.16699 16.5 1.5l1 -51c-42 -6.66699 -72.167 -3.83398 -90.5 8.49902
s-27.5 39.5 -27.5 81.5zM389.002 163.004l0.000976562 46c-46 26 -96.667 39 -152 39c-34.667 0 -64.167 -9.16699 -88.5 -27.5s-35.833 -43.833 -34.5 -76.5c1.33301 -28.667 12.5 -50 33.5 -64s46.5 -21 76.5 -21c36 0 70.667 9 104 27s53.666 43.667 60.999 77z" />
    <glyph glyph-name="afii10066" unicode="&#x431;" horiz-adv-x="601" 
d="M319 478c71.333 1.33301 128.831 -21.4971 172.498 -68.4971s64.834 -105.167 63.501 -174.5c-0.666992 -66.667 -22.667 -124 -66 -172s-103.666 -72 -180.999 -72c-73.333 0 -131 20.5 -173 61.5s-66.667 93.5 -74 157.5c-11.333 102.667 -2.83301 186.667 25.5 252
s84.5 118 168.5 158c10 4.66699 24 10.5 42 17.5s32 13 42 18s20.5 11.167 31.5 18.5s18.167 16 21.5 26s3.33301 21.667 0 35h77c5.33301 -12.667 6.66602 -25.167 3.99902 -37.5s-5.66699 -22.833 -9 -31.5s-10 -17.334 -20 -26.001s-19.167 -15.834 -27.5 -21.501
s-19 -11.834 -32 -18.501s-24.5 -12 -34.5 -16l-33.5 -14l-29.5 -13c-49.333 -24 -86.5 -49.833 -111.5 -77.5s-40.833 -66.167 -47.5 -115.5c15.333 32.667 40.333 59.667 75 81s73.334 32.333 116.001 33zM133.998 236.003c0 -52.667 16.332 -95.167 48.999 -127.5
s74.334 -48.5 125.001 -48.5c52.667 0 94.5 17 125.5 51s46.167 76 45.5 126c-0.666992 48 -16.167 88.667 -46.5 122s-71.5 50 -123.5 50s-94 -17.167 -126 -51.5s-48.333 -74.833 -49 -121.5z" />
    <glyph glyph-name="afii10067" unicode="&#x432;" horiz-adv-x="527" 
d="M455 357c0 -23.333 -6.00098 -44.168 -18.001 -62.501s-30 -30.833 -54 -37.5c30.667 -7.33301 55 -22 73 -44s27 -48.333 27 -79c0 -23.333 -4.33301 -43.5 -13 -60.5s-19.5 -30.167 -32.5 -39.5s-29.5 -16.833 -49.5 -22.5s-38.5 -9.16699 -55.5 -10.5
s-36.5 -2 -58.5 -2h-198v484h176c20.667 0 39 -0.666992 55 -2s33.833 -4.5 53.5 -9.5s35.834 -11.667 48.501 -20s23.5 -20.666 32.5 -36.999s13.5 -35.5 13.5 -57.5zM151.999 63.998h114.998h27c4.66699 0 13.334 0.5 26.001 1.5s21.834 2.33301 27.501 4
s13 4.33398 22 8.00098s15.667 8.16699 20 13.5s8.16602 12.166 11.499 20.499s5 17.833 5 28.5c0 18 -4.5 32.833 -13.5 44.5s-21.667 20 -38 25s-31.666 8.33301 -45.999 10s-30.833 2.5 -49.5 2.5h-107v-158zM151.997 281.998l104 0.00292969c17.333 0 31.5 0.5 42.5 1.5
s23.5 3.66699 37.5 8s24.5 11.5 31.5 21.5s10.5 22.667 10.5 38s-3.66699 28.166 -11 38.499s-17.666 17.666 -30.999 21.999s-25.833 7.16602 -37.5 8.49902s-25.834 2 -42.501 2h-104v-140z" />
    <glyph glyph-name="afii10068" unicode="&#x433;" horiz-adv-x="426" 
d="M154 0h-78v482h328v-72h-250v-410z" />
    <glyph glyph-name="afii10069" unicode="&#x434;" horiz-adv-x="585" 
d="M94 -119l-68.001 0.000976562l-2 181h1h15c10.667 0.666992 20.167 2.66699 28.5 6s15.5 9.66602 21.5 18.999l14.5 23c3.66699 6 7.16699 17.5 10.5 34.5l7 36c1.33301 7 3.33301 21.5 6 43.5c0.666992 6 1.33398 10.667 2.00098 14l35 244h319v-420h66l-3 -181h-67v119
h-386v-119zM409.999 62.001l-0.000976562 353.999h-181l-25 -195c-5.33301 -50 -12.666 -86.667 -21.999 -110s-23.333 -39.666 -42 -48.999h270z" />
    <glyph glyph-name="afii10070" unicode="&#x435;" horiz-adv-x="554" 
d="M292 493c81.333 -0.666992 140.666 -24.167 177.999 -70.5s49.333 -109.5 36 -189.5h-383c-2.66699 -54 14.666 -97.333 51.999 -130s84 -49 140 -49c52 0 106.333 11.667 163 35l12 -59c-58 -27.333 -117 -41 -177 -41c-81.333 0 -147 24 -197 72
s-73.667 112.333 -71 193c2.66699 74 27.334 132.333 74.001 175s104.334 64 173.001 64zM292 431c-44.667 0 -81.832 -12.168 -111.499 -36.501s-47.834 -58.166 -54.501 -101.499h314c2.66699 44 -10 78 -38 102s-64.667 36 -110 36z" />
    <glyph glyph-name="afii10072" unicode="&#x436;" horiz-adv-x="749" 
d="M412 280c75.333 0 129.832 17.332 163.499 51.999s49.834 84.667 48.501 150h72c2 -55.333 -7.83301 -103.666 -29.5 -144.999s-56.167 -71 -103.5 -89l161 -238v-10h-80l-147 224c-30 -6.66699 -58.333 -10 -85 -10v-214h-75v214c-26 0 -54 3.33301 -84 10l-147 -224
h-80v10l160 238c-92 34.667 -135.667 112.667 -131 234h72c-1.33301 -66 14.5 -116.167 47.5 -150.5s87.167 -51.5 162.5 -51.5v203h75v-203z" />
    <glyph glyph-name="afii10073" unicode="&#x437;" horiz-adv-x="484" 
d="M59 391l-3.99902 62.0029c47.333 26.667 104 39.334 170 38.001c52 0 96 -10.167 132 -30.5s54 -53.166 54 -98.499c0 -24.667 -7.16699 -47 -21.5 -67s-32.833 -32.333 -55.5 -37c32.667 -7.33301 58.5 -21.333 77.5 -42s28.5 -47 28.5 -79
c0 -49.333 -19.833 -86.333 -59.5 -111s-87.5 -37 -143.5 -37c-80 0 -146.333 18 -199 54l4 69c18 -16 45 -29.333 81 -40s70.333 -16 103 -16c38 0.666992 69.667 7.66699 95 21s38 34.666 38 63.999c0 17.333 -4.33301 31.666 -13 42.999s-20.834 19.5 -36.501 24.5
s-31 8.33301 -46 10s-32.167 2.5 -51.5 2.5h-64v62c6 0 15.667 -0.166992 29 -0.5s23.666 -0.5 30.999 -0.5c18 0 32.5 0.666992 43.5 2s23.333 4.16602 37 8.49902s23.834 11.666 30.501 21.999s10 23.166 10 38.499c0 49.333 -39 74 -117 74c-60 0 -111 -12 -153 -36z" />
    <glyph glyph-name="afii10074" unicode="&#x438;" horiz-adv-x="576" 
d="M432 344l-333 -344h-23v482h76v-171l-6 -167l328 339h26v-483h-76v161z" />
    <glyph glyph-name="afii10075" unicode="&#x439;" horiz-adv-x="576" 
d="M156 681l54 6c7.33301 -48 38 -72.667 92 -74c24.667 0 45.5 6.33301 62.5 19s27.833 31 32.5 55c6.66699 -0.666992 24.334 -2.66699 53.001 -6c-4.66699 -39.333 -20.334 -70.666 -47.001 -93.999s-60 -35 -100 -35c-38.667 0 -71.667 11.667 -99 35
s-43.333 54.666 -48 93.999zM99 0l333 344l-8 -183v-161h76v483h-26l-328 -339l6 167v171h-76v-482h23z" />
    <glyph glyph-name="afii10076" unicode="&#x43a;" horiz-adv-x="534" 
d="M155 278h64c126.667 0 190 68.333 190 205h74c2 -124 -43.667 -204 -137 -240l161 -234v-9h-84l-146 219c-15.333 -3.33301 -35 -5 -59 -5h-63v-214h-79v483h79v-205z" />
    <glyph glyph-name="afii10077" unicode="&#x43b;" horiz-adv-x="583" 
d="M430 412l-199.001 0.000976562l-28 -253c-6.66699 -69.333 -22.5 -115.666 -47.5 -138.999s-71.167 -30 -138.5 -20l2 59c11.333 -2 21.333 -3 30 -3s16.334 1 23.001 3s12.5 4.16699 17.5 6.5s9.5 6.16602 13.5 11.499s7.16699 10.5 9.5 15.5s4.5 11.667 6.5 20
s3.5 16.166 4.5 23.499l3.5 27l37 319h343v-482h-77v412z" />
    <glyph glyph-name="afii10078" unicode="&#x43c;" horiz-adv-x="640" 
d="M323 120h-8l-163 197v-315h-76v480h26l218 -264l219 264h25v-480h-75v315z" />
    <glyph glyph-name="afii10079" unicode="&#x43d;" horiz-adv-x="578" 
d="M426 482h76v-482h-76v215h-273v-215h-77v482h77v-199h273v199z" />
    <glyph glyph-name="afii10080" unicode="&#x43e;" 
d="M553 242c0 -40 -7.33301 -76.333 -22 -109s-33.834 -59 -57.501 -79s-50.667 -35.5 -81 -46.5s-61.5 -16.5 -93.5 -16.5s-63.167 5.5 -93.5 16.5s-57.333 26.5 -81 46.5s-42.834 46.167 -57.501 78.5s-22 68.833 -22 109.5s7.33301 77.334 22 110.001
s33.834 59 57.501 79s50.667 35.5 81 46.5s61.5 16.5 93.5 16.5s63.167 -5.5 93.5 -16.5s57.333 -26.5 81 -46.5s42.834 -46.333 57.501 -79s22 -69.334 22 -110.001zM124 242c0 -39.333 8.66699 -73.333 26 -102s39 -49.5 65 -62.5s54.167 -19.5 84.5 -19.5
s58.5 6.5 84.5 19.5s47.667 33.833 65 62.5s26 62.667 26 102s-8.66699 73.333 -26 102s-39 49.334 -65 62.001s-54.167 19 -84.5 19s-58.5 -6.33301 -84.5 -19s-47.667 -33.334 -65 -62.001s-26 -62.667 -26 -102z" />
    <glyph glyph-name="afii10081" unicode="&#x43f;" horiz-adv-x="577" 
d="M76 482h425v-482h-78v412h-268v-412h-79v482z" />
    </font>
</defs>
</svg>
